<svg viewBox="0 0 26 21" fill="none"
  xmlns="http://www.w3.org/2000/svg">
  <path d="M26 1.88186C26 0.844198 25.2931 0 24.4243 0C23.5554 0 22.8485 0.844198 22.8485 1.88186C22.8485 2.40069 23.0252 2.87118 23.3105 3.21189L18.5152 8.93891L13.8987 3.42561C14.3074 3.08526 14.5758 2.52071 14.5758 1.88192C14.5758 0.844258 13.869 6.06131e-05 13.0001 6.06131e-05C12.1312 6.06131e-05 11.4244 0.844258 11.4244 1.88192C11.4244 2.52071 11.6928 3.08526 12.1015 3.42561L7.485 8.93891L2.68968 3.21189C2.97497 2.87118 3.15169 2.40069 3.15169 1.88186C3.15169 0.844198 2.44481 0 1.57595 0C0.707078 0 0 0.844198 0 1.88186C0 2.75686 0.503293 3.49208 1.18183 3.7018V20.2301H24.8182V3.70186C25.4967 3.49214 26 2.75686 26 1.88186Z" fill="currentColor"/>
  <path d="M24.4785 0C23.6396 0 22.9571 0.844193 22.9571 1.88185C22.9571 2.40067 23.1277 2.87117 23.4032 3.21187L18.7732 8.93886L14.3159 3.42559C14.7105 3.08525 14.9697 2.52069 14.9697 1.88191C14.9697 0.844253 14.2872 6.06127e-05 13.4482 6.06127e-05V20.2301H24.859V3.70183C25.514 3.49212 25.9999 2.75685 25.9999 1.88185C25.9999 0.844193 25.3174 0 24.4785 0Z" fill="currentColor"/>
</svg>
