<svg width="29" height="30" viewBox="0 0 29 30" fill="none" xmlns="http://www.w3.org/2000/svg">
<path fill-rule="evenodd" clip-rule="evenodd" d="M14.5 29.7148C22.5081 29.7148 29 23.223 29 15.2148C29 7.20671 22.5081 0.714844 14.5 0.714844C6.49187 0.714844 0 7.20671 0 15.2148C0 23.223 6.49187 29.7148 14.5 29.7148Z" fill="#4CBA38"/>
<path fill-rule="evenodd" clip-rule="evenodd" d="M7.23667 15.6769C7.59587 15.3177 8.17824 15.3177 8.53743 15.6769L12.4397 19.5792L11.139 20.88L7.23667 16.9777C6.87748 16.6185 6.87748 16.0361 7.23667 15.6769ZM20.8947 11.1246C21.2539 10.7654 21.8362 10.7654 22.1954 11.1246C22.5546 11.4838 22.5546 12.0662 22.1954 12.4254L13.7405 20.8803C13.0221 21.5987 11.8574 21.5987 11.139 20.8803L20.8947 11.1246Z" fill="white"/>
</svg>
