<svg width="149" height="149" viewBox="0 0 149 149" fill="none" xmlns="http://www.w3.org/2000/svg">
<circle cx="74.5" cy="74.5" r="72.5" stroke="#FF0000" stroke-width="4"/>
<path fill-rule="evenodd" clip-rule="evenodd" d="M85.6194 65.3803C86.2378 65.9986 86.2378 67.0011 85.6194 67.6194L66.6194 86.6194C66.0011 87.2378 64.9986 87.2378 64.3803 86.6194C63.7619 86.0011 63.7619 84.9986 64.3803 84.3803L83.3803 65.3803C83.9986 64.7619 85.0011 64.7619 85.6194 65.3803Z" fill="#FF0000"/>
<path fill-rule="evenodd" clip-rule="evenodd" d="M64.3803 65.3803C64.9986 64.7619 66.0011 64.7619 66.6194 65.3803L85.6194 84.3803C86.2378 84.9986 86.2378 86.0011 85.6194 86.6194C85.0011 87.2378 83.9986 87.2378 83.3803 86.6194L64.3803 67.6194C63.7619 67.0011 63.7619 65.9986 64.3803 65.3803Z" fill="#FF0000"/>
</svg>
