<svg viewBox="0 0 50 29" fill="none"
  xmlns="http://www.w3.org/2000/svg">
  <path d="M49.4675 26.4679C49.4675 26.8769 49.2332 27.2619 48.8427 27.5026C48.6344 27.6229 48.4001 27.671 48.1657 27.671C47.9574 27.671 47.7752 27.6229 47.593 27.5507L36.4497 22.4015V19.7066L46.864 24.5189V4.35517L36.4497 9.16752V6.4726L47.593 1.3234C47.9835 1.1309 48.4782 1.15496 48.8427 1.37152C49.2332 1.61214 49.4675 1.99712 49.4675 2.40617V26.4679Z" fill="currentColor"/>
  <path d="M33.9764 19.9233C34.3148 19.3217 35.0959 19.0811 35.7208 19.3698L36.4498 19.7067V22.4016L34.5752 21.5354C34.1065 21.3188 33.8462 20.8857 33.8462 20.4526C33.8462 20.2601 33.8983 20.0917 33.9764 19.9233Z" fill="currentColor"/>
  <path d="M35.7208 19.37C35.0959 19.0812 34.3148 19.3218 33.9764 19.9234C33.8983 20.0918 33.8462 20.2602 33.8462 20.4527V8.42188C33.8462 8.61437 33.8983 8.7828 33.9764 8.95123C34.3148 9.55278 35.0959 9.79339 35.7208 9.50465L36.4498 9.16779V19.7068L35.7208 19.37Z" fill="currentColor"/>
  <path d="M33.9764 8.95101C33.8983 8.78258 33.8462 8.61415 33.8462 8.42166C33.8462 7.98855 34.1065 7.55544 34.5752 7.33888L36.4498 6.47266V9.16757L35.7208 9.50443C35.0959 9.79317 34.3148 9.55256 33.9764 8.95101Z" fill="currentColor"/>
  <path d="M0 4.81234C0 2.16556 2.34321 0 5.20712 0H31.2427C34.1067 0 36.4499 2.16556 36.4499 4.81234V6.4726L34.5753 7.33883C34.1067 7.55538 33.8463 7.98849 33.8463 8.4216V4.81234C33.8463 3.48895 32.6747 2.40617 31.2427 2.40617H5.20712C3.77516 2.40617 2.60356 3.48895 2.60356 4.81234V24.0617C2.60356 25.3851 3.77516 26.4679 5.20712 26.4679H31.2427C32.6747 26.4679 33.8463 25.3851 33.8463 24.0617V20.4525C33.8463 20.8856 34.1067 21.3187 34.5753 21.5352L36.4499 22.4015V24.0617C36.4499 26.7085 34.1067 28.8741 31.2427 28.8741H5.20712C2.34321 28.8741 0 26.7085 0 24.0617V4.81234Z" fill="currentColor"/>
</svg>
