<svg viewBox="0 0 19 19" fill="none"
  xmlns="http://www.w3.org/2000/svg">
  <path d="M9.65284 3.61515L11.2038 6.75807C11.2367 6.82429 11.2851 6.88155 11.345 6.92493C11.4048 6.96831 11.4743 6.99651 11.5475 7.00711L15.0156 7.51135C15.0998 7.52353 15.1789 7.55903 15.2439 7.61383C15.309 7.66863 15.3574 7.74055 15.3838 7.82144C15.4101 7.90234 15.4132 7.98898 15.3929 8.07158C15.3725 8.15418 15.3295 8.22944 15.2686 8.28883L12.7606 10.7352C12.7074 10.7867 12.6676 10.8503 12.6446 10.9206C12.6216 10.9909 12.6161 11.0658 12.6286 11.1387L13.2208 14.5932C13.2351 14.6768 13.2257 14.7628 13.1937 14.8415C13.1618 14.9201 13.1085 14.9882 13.0399 15.0382C12.9713 15.0882 12.8901 15.1181 12.8055 15.1244C12.7208 15.1307 12.6361 15.1133 12.5608 15.0741L9.45836 13.443C9.39298 13.4085 9.32019 13.3905 9.24628 13.3905C9.17238 13.3905 9.09958 13.4085 9.0342 13.443L5.92956 15.0741C5.85429 15.1133 5.76955 15.1307 5.68491 15.1244C5.60026 15.1181 5.51906 15.0882 5.45046 15.0382C5.38186 14.9882 5.32857 14.9201 5.29661 14.8415C5.26465 14.7628 5.25528 14.6768 5.26956 14.5932L5.8618 11.1387C5.8743 11.0658 5.8688 10.9909 5.8458 10.9206C5.8228 10.8503 5.78298 10.7867 5.7298 10.7352L3.2218 8.28883C3.1609 8.22944 3.11783 8.15418 3.09747 8.07158C3.07712 7.98898 3.08028 7.90234 3.1066 7.82144C3.13293 7.74055 3.18136 7.66863 3.24643 7.61383C3.3115 7.55903 3.39061 7.52353 3.4748 7.51135L6.94288 7.00711C7.01604 6.99651 7.08553 6.96831 7.14538 6.92493C7.20524 6.88155 7.25367 6.82429 7.28652 6.75807L8.83752 3.61515C8.87539 3.53946 8.93358 3.47581 9.00558 3.43133C9.07758 3.38684 9.16055 3.36328 9.24518 3.36328C9.32981 3.36328 9.41278 3.38684 9.48478 3.43133C9.55678 3.47581 9.61497 3.53946 9.65284 3.61515Z" fill="currentColor"/>
  <path d="M9.24385 2.67212C9.09798 2.67212 8.95808 2.61417 8.85494 2.51103C8.75179 2.40788 8.69385 2.26799 8.69385 2.12212V0.55C8.69385 0.404131 8.75179 0.264236 8.85494 0.161091C8.95808 0.0579464 9.09798 0 9.24385 0C9.38972 0 9.52961 0.0579464 9.63276 0.161091C9.7359 0.264236 9.79385 0.404131 9.79385 0.55V2.12212C9.79385 2.26799 9.7359 2.40788 9.63276 2.51103C9.52961 2.61417 9.38972 2.67212 9.24385 2.67212Z" fill="currentColor"/>
  <path d="M5.11009 5.66034C5.03785 5.66045 4.96629 5.64628 4.89954 5.61864C4.83279 5.591 4.77216 5.55045 4.72113 5.4993L2.70726 3.48542C2.6041 3.38226 2.54614 3.24235 2.54614 3.09646C2.54614 2.95057 2.6041 2.81066 2.70726 2.7075C2.81041 2.60434 2.95033 2.54639 3.09621 2.54639C3.2421 2.54639 3.38202 2.60434 3.48517 2.7075L5.49905 4.72138C5.57599 4.7983 5.62839 4.89631 5.64962 5.00301C5.67085 5.10971 5.65996 5.22032 5.61832 5.32083C5.57669 5.42134 5.50618 5.50725 5.41571 5.56768C5.32525 5.62811 5.21889 5.66036 5.11009 5.66034Z" fill="currentColor"/>
  <path d="M2.12212 9.79434H0.55C0.404131 9.79434 0.264236 9.73639 0.161091 9.63325C0.0579463 9.5301 0 9.39021 0 9.24434C0 9.09847 0.0579463 8.95857 0.161091 8.85543C0.264236 8.75228 0.404131 8.69434 0.55 8.69434H2.12212C2.26799 8.69434 2.40788 8.75228 2.51103 8.85543C2.61417 8.95857 2.67212 9.09847 2.67212 9.24434C2.67212 9.39021 2.61417 9.5301 2.51103 9.63325C2.40788 9.73639 2.26799 9.79434 2.12212 9.79434Z" fill="currentColor"/>
  <path d="M3.09625 15.9416C2.98745 15.9416 2.88109 15.9094 2.79063 15.849C2.70016 15.7885 2.62965 15.7026 2.58801 15.6021C2.54638 15.5016 2.53549 15.391 2.55672 15.2843C2.57795 15.1776 2.63035 15.0796 2.70729 15.0026L3.39941 14.3105C3.50256 14.2074 3.64248 14.1494 3.78837 14.1494C3.93425 14.1494 4.07417 14.2074 4.17733 14.3105C4.28048 14.4137 4.33844 14.5536 4.33844 14.6995C4.33844 14.8454 4.28048 14.9853 4.17733 15.0884L3.48521 15.7806C3.43418 15.8317 3.37355 15.8723 3.3068 15.8999C3.24005 15.9275 3.16849 15.9417 3.09625 15.9416Z" fill="currentColor"/>
  <path d="M9.24385 18.4876C9.09798 18.4876 8.95808 18.4296 8.85494 18.3265C8.75179 18.2233 8.69385 18.0834 8.69385 17.9376V16.3654C8.69385 16.2196 8.75179 16.0797 8.85494 15.9765C8.95808 15.8734 9.09798 15.8154 9.24385 15.8154C9.38972 15.8154 9.52961 15.8734 9.63276 15.9765C9.7359 16.0797 9.79385 16.2196 9.79385 16.3654V17.9376C9.79385 18.0834 9.7359 18.2233 9.63276 18.3265C9.52961 18.4296 9.38972 18.4876 9.24385 18.4876Z" fill="currentColor"/>
  <path d="M15.3916 15.9416C15.3194 15.9417 15.2478 15.9275 15.1811 15.8999C15.1143 15.8723 15.0537 15.8317 15.0026 15.7806L14.3105 15.0884C14.2074 14.9853 14.1494 14.8454 14.1494 14.6995C14.1494 14.5536 14.2074 14.4137 14.3105 14.3105C14.4137 14.2074 14.5536 14.1494 14.6995 14.1494C14.8454 14.1494 14.9853 14.2074 15.0884 14.3105L15.7806 15.0026C15.8575 15.0796 15.9099 15.1776 15.9311 15.2843C15.9524 15.391 15.9415 15.5016 15.8998 15.6021C15.8582 15.7026 15.7877 15.7885 15.6972 15.849C15.6068 15.9094 15.5004 15.9416 15.3916 15.9416Z" fill="currentColor"/>
  <path d="M17.938 9.79434H16.3659C16.22 9.79434 16.0802 9.73639 15.977 9.63325C15.8739 9.5301 15.8159 9.39021 15.8159 9.24434C15.8159 9.09847 15.8739 8.95857 15.977 8.85543C16.0802 8.75228 16.22 8.69434 16.3659 8.69434H17.938C18.0839 8.69434 18.2238 8.75228 18.3269 8.85543C18.4301 8.95857 18.488 9.09847 18.488 9.24434C18.488 9.39021 18.4301 9.5301 18.3269 9.63325C18.2238 9.73639 18.0839 9.79434 17.938 9.79434Z" fill="currentColor"/>
  <path d="M13.3799 5.66034C13.2711 5.66036 13.1648 5.62811 13.0743 5.56768C12.9839 5.50725 12.9133 5.42134 12.8717 5.32083C12.8301 5.22032 12.8192 5.10971 12.8404 5.00301C12.8616 4.89631 12.914 4.7983 12.991 4.72138L15.0049 2.7075C15.0559 2.65642 15.1166 2.6159 15.1833 2.58826C15.2501 2.56061 15.3216 2.54639 15.3938 2.54639C15.4661 2.54639 15.5376 2.56061 15.6043 2.58826C15.6711 2.6159 15.7317 2.65642 15.7828 2.7075C15.8339 2.75858 15.8744 2.81922 15.902 2.88596C15.9297 2.95269 15.9439 3.02422 15.9439 3.09646C15.9439 3.1687 15.9297 3.24022 15.902 3.30696C15.8744 3.3737 15.8339 3.43434 15.7828 3.48542L13.7689 5.4993C13.7179 5.55045 13.6572 5.591 13.5905 5.61864C13.5237 5.64628 13.4522 5.66045 13.3799 5.66034Z" fill="currentColor"/>
</svg>
