<svg viewBox="0 0 16 17" fill="none"
  xmlns="http://www.w3.org/2000/svg">
  <path d="M15.7714 9.76562V6.87531C15.7714 6.77389 15.7403 6.67515 15.6827 6.59362C15.6251 6.51208 15.5441 6.45206 15.4515 6.42239L14.2797 6.04668C14.1895 5.77098 14.0828 5.5015 13.9603 5.23983L14.5367 4.1043C14.5816 4.01478 14.5979 3.91255 14.5833 3.8126C14.5687 3.71266 14.5239 3.62025 14.4555 3.54891L12.5045 1.50506C12.4361 1.43317 12.3476 1.38615 12.2518 1.37092C12.156 1.35568 12.0581 1.37303 11.9725 1.42041L10.8886 2.02431C10.6389 1.89597 10.3819 1.78421 10.1189 1.68969L9.76022 0.460115C9.7319 0.363129 9.67461 0.278229 9.59678 0.217903C9.51895 0.157578 9.4247 0.125013 9.32789 0.125H6.56848C6.47167 0.125013 6.37742 0.157578 6.29959 0.217903C6.22176 0.278229 6.16447 0.363129 6.13615 0.460115L5.77752 1.68969C5.51451 1.78421 5.25743 1.89597 5.00782 2.02431L3.9239 1.42041C3.83839 1.37285 3.74057 1.35525 3.64481 1.37022C3.54905 1.38519 3.4604 1.43193 3.39187 1.50357L1.44091 3.54891C1.37239 3.62063 1.32768 3.71351 1.31339 3.81387C1.2991 3.91423 1.31598 4.01674 1.36153 4.10628L1.93798 5.24181C1.81547 5.50348 1.70879 5.77296 1.61857 6.04866L0.444882 6.42239C0.352305 6.45206 0.271264 6.51208 0.21368 6.59362C0.156097 6.67515 0.125012 6.77389 0.125 6.87531V9.76562C0.125012 9.86704 0.156097 9.96578 0.21368 10.0473C0.271264 10.1288 0.352305 10.1889 0.444882 10.2185L1.61668 10.5942C1.7069 10.8699 1.81358 11.1394 1.93609 11.4011L1.35964 12.5366C1.31409 12.6262 1.29721 12.7287 1.3115 12.829C1.32579 12.9294 1.3705 13.0223 1.43902 13.094L3.38998 15.1379C3.45851 15.2095 3.54716 15.2562 3.64292 15.2712C3.73868 15.2862 3.8365 15.2686 3.92201 15.221L5.00593 14.6166C5.25554 14.745 5.51262 14.8567 5.77563 14.9512L6.13426 16.1808C6.16234 16.2785 6.21977 16.3641 6.29801 16.4248C6.37625 16.4855 6.47111 16.5182 6.56848 16.5179H9.32789C9.4247 16.5179 9.51895 16.4853 9.59678 16.425C9.67461 16.3647 9.7319 16.2798 9.76022 16.1828L10.1189 14.9532C10.3819 14.8587 10.6389 14.7469 10.8886 14.6186L11.9725 15.223C12.058 15.2706 12.1558 15.2882 12.2516 15.2732C12.3473 15.2582 12.436 15.2115 12.5045 15.1398L14.4555 13.096C14.524 13.0243 14.5687 12.9314 14.583 12.831C14.5973 12.7307 14.5804 12.6281 14.5348 12.5386L13.9584 11.4031C14.0809 11.1414 14.1876 10.8719 14.2778 10.5962L15.4515 10.2205C15.5444 10.1907 15.6256 10.1304 15.6833 10.0485C15.7409 9.96657 15.7718 9.86738 15.7714 9.76562ZM8.0167 12.0921C7.29909 12.1064 6.59379 11.8956 5.9914 11.4868C5.38901 11.078 4.91703 10.4899 4.63608 9.79796C4.35513 9.10604 4.27804 8.34194 4.41472 7.60378C4.55141 6.86563 4.89561 6.18714 5.40313 5.65545C5.91064 5.12377 6.55829 4.76317 7.2629 4.61999C7.9675 4.4768 8.69687 4.55755 9.35734 4.85188C10.0178 5.1462 10.5792 5.64066 10.9694 6.27174C11.3596 6.90282 11.5608 7.6417 11.5472 8.39348C11.5292 9.36836 11.1514 10.298 10.4931 10.9874C9.83484 11.6767 8.94728 12.0721 8.0167 12.0906V12.0921Z" fill="currentColor"/>
</svg>
