<svg viewBox="0 0 18 16" fill="none"
  xmlns="http://www.w3.org/2000/svg">
  <path d="M17.3678 0.1875H0.8145C0.648209 0.1875 0.488729 0.253559 0.371144 0.371144C0.253559 0.488729 0.1875 0.648209 0.1875 0.8145V15.0908C0.1875 15.2571 0.253559 15.4165 0.371144 15.5341C0.488729 15.6517 0.648209 15.7178 0.8145 15.7178H17.3678C17.5341 15.7178 17.6936 15.6517 17.8112 15.5341C17.9288 15.4165 17.9948 15.2571 17.9948 15.0908V0.8145C17.9948 0.648209 17.9288 0.488729 17.8112 0.371144C17.6936 0.253559 17.5341 0.1875 17.3678 0.1875ZM2.99437 14.7731C2.99437 14.8102 2.97962 14.8458 2.95336 14.8721C2.92709 14.8984 2.89148 14.9131 2.85434 14.9131H1.11598C1.07884 14.9131 1.04323 14.8984 1.01697 14.8721C0.990705 14.8458 0.975952 14.8102 0.975952 14.7731V13.0358C0.975952 12.9986 0.990705 12.963 1.01697 12.9368C1.04323 12.9105 1.07884 12.8957 1.11598 12.8957H2.85225C2.88939 12.8957 2.92501 12.9105 2.95127 12.9368C2.97753 12.963 2.99228 12.9986 2.99228 13.0358L2.99437 14.7731ZM2.99437 10.8057C2.99437 10.8243 2.99068 10.8427 2.98351 10.8598C2.97635 10.8769 2.96584 10.8925 2.95262 10.9055C2.93939 10.9185 2.92371 10.9288 2.90648 10.9357C2.88925 10.9426 2.87081 10.9461 2.85225 10.9458H1.11598C1.07884 10.9458 1.04323 10.931 1.01697 10.9048C0.990705 10.8785 0.975952 10.8429 0.975952 10.8057V9.06739C0.975952 9.03025 0.990705 8.99463 1.01697 8.96837C1.04323 8.94211 1.07884 8.92736 1.11598 8.92736H2.85225C2.88939 8.92736 2.92501 8.94211 2.95127 8.96837C2.97753 8.99463 2.99228 9.03025 2.99228 9.06739L2.99437 10.8057ZM2.99437 6.8384C2.99437 6.87554 2.97962 6.91116 2.95336 6.93742C2.92709 6.96368 2.89148 6.97843 2.85434 6.97843H1.11598C1.07884 6.97843 1.04323 6.96368 1.01697 6.93742C0.990705 6.91116 0.975952 6.87554 0.975952 6.8384V5.09952C0.97609 5.06247 0.990905 5.02699 1.01715 5.00084C1.0434 4.9747 1.07893 4.96001 1.11598 4.96001H2.85225C2.8893 4.96001 2.92484 4.9747 2.95108 5.00084C2.97733 5.02699 2.99214 5.06247 2.99228 5.09952L2.99437 6.8384ZM2.99437 2.87106C2.99437 2.88942 2.99074 2.90761 2.9837 2.92457C2.97666 2.94153 2.96633 2.95693 2.95332 2.96989C2.94031 2.98285 2.92487 2.99312 2.90789 3.0001C2.8909 3.00708 2.8727 3.01064 2.85434 3.01057H1.11598C1.09762 3.01064 1.07942 3.00708 1.06243 3.0001C1.04545 2.99312 1.03001 2.98285 1.017 2.96989C1.00399 2.95693 0.993665 2.94153 0.986622 2.92457C0.979578 2.90761 0.975952 2.88942 0.975952 2.87106V1.13218C0.975952 1.11382 0.979578 1.09563 0.986622 1.07867C0.993665 1.06171 1.00399 1.04631 1.017 1.03335C1.03001 1.02039 1.04545 1.01012 1.06243 1.00314C1.07942 0.996162 1.09762 0.992604 1.11598 0.992673H2.85225C2.87061 0.992604 2.88881 0.996162 2.9058 1.00314C2.92278 1.01012 2.93822 1.02039 2.95123 1.03335C2.96424 1.04631 2.97457 1.06171 2.98161 1.07867C2.98865 1.09563 2.99228 1.11382 2.99228 1.13218L2.99437 2.87106ZM14.4408 14.9131H3.7405V0.992673H14.4408V14.9131ZM17.2372 14.7731C17.2372 14.8102 17.2224 14.8458 17.1962 14.8721C17.1699 14.8984 17.1343 14.9131 17.0972 14.9131H15.3583C15.3212 14.913 15.2858 14.8982 15.2596 14.8719C15.2335 14.8457 15.2188 14.8101 15.2188 14.7731V13.0358C15.2188 12.9987 15.2335 12.9632 15.2596 12.9369C15.2858 12.9107 15.3212 12.8959 15.3583 12.8957H17.0972C17.1343 12.8957 17.1699 12.9105 17.1962 12.9368C17.2224 12.963 17.2372 12.9986 17.2372 13.0358V14.7731ZM17.2372 10.8057C17.2372 10.8429 17.2224 10.8785 17.1962 10.9048C17.1699 10.931 17.1343 10.9458 17.0972 10.9458H15.3583C15.3212 10.9456 15.2858 10.9308 15.2596 10.9046C15.2335 10.8783 15.2188 10.8428 15.2188 10.8057V9.06739C15.2188 9.03034 15.2335 8.9948 15.2596 8.96855C15.2858 8.94231 15.3212 8.9275 15.3583 8.92736H17.0972C17.1343 8.92736 17.1699 8.94211 17.1962 8.96837C17.2224 8.99463 17.2372 9.03025 17.2372 9.06739V10.8057ZM17.2372 6.8384C17.2372 6.87554 17.2224 6.91116 17.1962 6.93742C17.1699 6.96368 17.1343 6.97843 17.0972 6.97843H15.3583C15.3212 6.97829 15.2858 6.96348 15.2596 6.93723C15.2335 6.91099 15.2188 6.87545 15.2188 6.8384V5.09952C15.2189 5.06257 15.2337 5.02716 15.2598 5.00103C15.2859 4.97489 15.3213 4.96015 15.3583 4.96001H17.0972C17.1342 4.96001 17.1698 4.9747 17.196 5.00084C17.2222 5.02699 17.2371 5.06247 17.2372 5.09952V6.8384ZM17.2372 2.87106C17.2372 2.88942 17.2336 2.90761 17.2265 2.92457C17.2195 2.94153 17.2092 2.95693 17.1961 2.96989C17.1831 2.98285 17.1677 2.99312 17.1507 3.0001C17.1337 3.00708 17.1155 3.01064 17.0972 3.01057H15.3583C15.3213 3.01057 15.2858 2.99587 15.2596 2.96971C15.2335 2.94354 15.2188 2.90806 15.2188 2.87106V1.13218C15.2188 1.09518 15.2335 1.0597 15.2596 1.03353C15.2858 1.00737 15.3213 0.992673 15.3583 0.992673H17.0972C17.1155 0.992604 17.1337 0.996162 17.1507 1.00314C17.1677 1.01012 17.1831 1.02039 17.1961 1.03335C17.2092 1.04631 17.2195 1.06171 17.2265 1.07867C17.2336 1.09563 17.2372 1.11382 17.2372 1.13218V2.87106Z" fill="currentColor"/>
  <path d="M11.0065 4.4668C10.6336 4.46652 10.2658 4.5539 9.93291 4.7219C9.6 4.8899 9.31124 5.13381 9.08994 5.43394C8.75366 4.98099 8.26765 4.66195 7.71831 4.53355C7.16897 4.40515 6.59189 4.47571 6.08967 4.73268C5.58745 4.98965 5.19262 5.41639 4.97538 5.93702C4.75813 6.45766 4.73254 7.03847 4.90315 7.57619C5.40005 9.23565 7.41376 10.9296 8.62335 11.8262C8.79787 11.9558 8.95566 12.0681 9.08994 12.1622C9.22423 12.0681 9.3815 11.9558 9.55654 11.8262C10.7661 10.9296 12.7793 9.23565 13.2762 7.57619C13.3903 7.21887 13.4185 6.83966 13.3585 6.46939C13.2984 6.09913 13.1519 5.74825 12.9307 5.44528C12.7096 5.14231 12.42 4.8958 12.0857 4.72578C11.7513 4.55576 11.3816 4.46703 11.0065 4.4668Z" fill="currentColor"/>
</svg>
