<svg viewBox="0 0 20 20" fill="none"
  xmlns="http://www.w3.org/2000/svg">
  <path d="M16.4079 0H3.59215C1.61137 0 0 1.61137 0 3.59215V16.4078C0 18.3886 1.61137 20 3.59215 20H16.4079C18.3886 20 20 18.3886 20 16.4079V3.59215C20 1.61137 18.3886 0 16.4079 0ZM16.902 15.6079H10.4921C9.92879 17.2754 7.56223 17.278 6.99805 15.6079H3.09805C2.31984 15.6079 2.31965 14.4314 3.09805 14.4314H6.99805C7.56137 12.7638 9.92797 12.7612 10.4921 14.4314H16.902C17.6802 14.4314 17.6804 15.6079 16.902 15.6079ZM16.902 10.5882H15.5118C14.9484 12.2558 12.5818 12.2584 12.0176 10.5882H3.09805C2.31984 10.5882 2.31965 9.41176 3.09805 9.41176H12.0177C12.581 7.74418 14.9476 7.74164 15.5118 9.41176H16.902C17.6802 9.41176 17.6804 10.5882 16.902 10.5882ZM16.902 5.56863H7.98234C7.41898 7.23621 5.05242 7.23875 4.48824 5.56863H3.09805C2.31984 5.56863 2.31965 4.39215 3.09805 4.39215H4.48824C5.05156 2.72457 7.41816 2.72203 7.98234 4.39215H16.902C17.6802 4.39215 17.6804 5.56863 16.902 5.56863Z" fill="currentColor"/>
  <path d="M8.74512 14.353C7.86305 14.353 7.86352 15.6863 8.74512 15.6863C9.62715 15.6864 9.62668 14.353 8.74512 14.353Z" fill="currentColor"/>
  <path d="M6.23535 4.31348C5.35328 4.31348 5.35375 5.6468 6.23535 5.6468C7.11738 5.64684 7.11691 4.31348 6.23535 4.31348Z" fill="currentColor"/>
  <path d="M13.7646 9.33301C12.8826 9.33301 12.883 10.6663 13.7646 10.6663C14.6467 10.6664 14.6463 9.33301 13.7646 9.33301Z" fill="currentColor"/>
</svg>
