<svg viewBox="0 0 18 16" fill="none"
  xmlns="http://www.w3.org/2000/svg">
  <path d="M16.884 6.28744H15.851L14.9887 1.06815C14.9399 0.773328 14.776 0.50994 14.5331 0.335896C14.2902 0.161852 13.9881 0.0913995 13.6933 0.140028L0.941079 2.24724C0.646739 2.29673 0.384005 2.46084 0.210417 2.70364C0.0368295 2.94644 -0.033463 3.24814 0.0149339 3.54266L1.33708 11.528C1.38042 11.7907 1.51531 12.0297 1.71788 12.2025C1.92044 12.3754 2.17762 12.471 2.4439 12.4725C2.50608 12.4723 2.56815 12.4671 2.62952 12.4571L3.45271 12.321V14.89C3.45297 15.0246 3.50659 15.1535 3.60181 15.2485C3.69703 15.3436 3.82605 15.3969 3.96058 15.3969H16.884C17.0187 15.3969 17.1479 15.3434 17.2432 15.2482C17.3384 15.1529 17.3919 15.0237 17.3919 14.8891V6.79531C17.3919 6.66061 17.3384 6.53143 17.2432 6.43619C17.1479 6.34094 17.0187 6.28744 16.884 6.28744ZM1.39549 4.30744L1.25392 3.4496L13.7858 1.37852L13.9274 2.23635L1.39549 4.30744ZM2.53745 11.2166L1.76278 6.52801L14.2942 4.45693L14.5971 6.28843H3.96058C3.82588 6.28843 3.6967 6.34193 3.60146 6.43718C3.50622 6.53242 3.45271 6.6616 3.45271 6.7963V11.0667L2.53745 11.2166ZM6.53458 13.9134H4.26847V13.0541H6.53458V13.9134ZM9.88276 13.9134H7.61615V13.0541H9.88028L9.88276 13.9134ZM13.2309 13.9134H10.9643V13.0541H13.2285L13.2309 13.9134ZM16.5786 13.9134H14.312V13.0541H16.5761L16.5786 13.9134ZM16.5786 8.15804C16.5786 8.29956 16.5224 8.43529 16.4223 8.53536C16.3223 8.63543 16.1865 8.69165 16.045 8.69165H12.2766C12.1351 8.69165 11.9993 8.63543 11.8993 8.53536C11.7992 8.43529 11.743 8.29956 11.743 8.15804V7.79521C11.743 7.65364 11.7992 7.51786 11.8992 7.41771C11.9993 7.31756 12.135 7.26123 12.2766 7.2611H16.0425C16.1841 7.26123 16.3198 7.31756 16.4199 7.41771C16.5199 7.51786 16.5761 7.65364 16.5761 7.79521L16.5786 8.15804Z" fill="currentColor"/>
</svg>
