<svg viewBox="0 0 14 18" fill="none"
  xmlns="http://www.w3.org/2000/svg">
  <path d="M12.4925 6.41797H1.5235C1.13652 6.41824 0.765464 6.57948 0.491913 6.86625C0.218361 7.15302 0.0646972 7.54184 0.0646973 7.94726V9.2187C0.0646972 9.53667 0.185234 9.84162 0.399805 10.0665C0.614375 10.2914 0.905413 10.4178 1.20893 10.4179H12.8066C13.1099 10.4173 13.4006 10.2905 13.6148 10.0654C13.8289 9.84038 13.9491 9.53547 13.9488 9.21768V7.94624C13.9486 7.54144 13.7951 7.15326 13.5221 6.86678C13.2491 6.58031 12.8789 6.41891 12.4925 6.41797Z" fill="currentColor"/>
  <path d="M0.957031 16.8499C0.95716 17.1218 1.06031 17.3825 1.24382 17.5747C1.42734 17.767 1.67619 17.875 1.93572 17.8752H12.0779C12.3375 17.875 12.5863 17.767 12.7698 17.5747C12.9533 17.3825 13.0565 17.1218 13.0566 16.8499V11.2393H0.957031V16.8499Z" fill="currentColor"/>
  <path d="M4.59749 5.36779C5.25861 5.68198 5.93837 5.95123 6.63253 6.17388C6.68806 6.19075 6.74559 6.19932 6.80342 6.19931C6.82138 6.19931 6.83885 6.19931 6.85682 6.19931C6.87478 6.19931 6.89128 6.19931 6.90876 6.19931C6.93426 6.19923 6.95972 6.19737 6.98498 6.19371C7.0104 6.19738 7.03602 6.19925 7.06168 6.19931C7.08158 6.19931 7.10197 6.19931 7.12139 6.19626C7.14081 6.19321 7.16168 6.19931 7.18256 6.19931C7.23317 6.19945 7.28358 6.19278 7.33257 6.17947C8.13757 5.95575 8.92914 5.68199 9.70307 5.35965C11.4638 4.61865 12.4551 3.84358 12.7328 2.98968C12.8527 2.62249 12.9008 2.05797 12.4498 1.45378C11.9745 0.818058 11.2954 0.61717 10.5376 0.890784C9.75064 1.17508 8.83409 1.99999 7.81414 3.34263C7.4918 3.76679 7.21508 4.17009 7.01556 4.4732C6.83448 4.15839 6.58496 3.74288 6.29514 3.30856C5.34946 1.89014 4.53146 1.08557 3.79502 0.848064C3.14256 0.637513 2.54059 0.868915 2.13815 1.48785C1.81629 1.98372 1.74298 2.5284 1.926 3.06444C2.20805 3.88681 3.08188 4.64052 4.59749 5.36779ZM8.99721 3.83697C10.2453 2.27208 10.9119 2.06254 11.14 2.04525C11.1531 2.04525 11.1653 2.04525 11.1779 2.04525C11.2832 2.04525 11.3808 2.08441 11.4954 2.23851C11.6362 2.42719 11.6051 2.52332 11.5862 2.58078C11.5318 2.74862 11.2031 3.35891 9.26372 4.1767C9.00934 4.28401 8.75642 4.38013 8.51806 4.46964C8.66418 4.26367 8.82536 4.05006 8.99721 3.83697ZM3.14159 2.2024C3.2348 2.05949 3.29354 2.04322 3.33141 2.04322H3.3484C3.44889 2.05034 4.00765 2.16935 5.13635 3.79476C5.28198 4.00378 5.41986 4.21433 5.54753 4.41726C4.39699 3.91275 3.27412 3.23532 3.06829 2.63215C3.03139 2.52535 3.01489 2.39821 3.14159 2.2024Z" fill="currentColor"/>
</svg>
