<svg viewBox="0 0 18 17" fill="none"
  xmlns="http://www.w3.org/2000/svg">
  <path d="M17.3259 0.5H0.62896C0.578989 0.499926 0.529499 0.509751 0.483345 0.528907C0.437192 0.548062 0.39529 0.57617 0.360057 0.611606C0.324825 0.647043 0.296961 0.689107 0.278073 0.735371C0.259185 0.781635 0.249647 0.831181 0.25001 0.88115V16.1767C0.25001 16.2264 0.259816 16.2756 0.278867 16.3216C0.297917 16.3675 0.325839 16.4093 0.361035 16.4444C0.396231 16.4796 0.438011 16.5074 0.483984 16.5264C0.529957 16.5454 0.579221 16.5551 0.62896 16.555H17.3259C17.3756 16.5551 17.4249 16.5454 17.4708 16.5264C17.5168 16.5074 17.5586 16.4796 17.5938 16.4444C17.629 16.4093 17.6569 16.3675 17.676 16.3216C17.695 16.2756 17.7048 16.2264 17.7048 16.1767V0.88115C17.7052 0.831181 17.6956 0.781635 17.6767 0.735371C17.6579 0.689107 17.63 0.647043 17.5948 0.611606C17.5595 0.57617 17.5176 0.548062 17.4715 0.528907C17.4253 0.509751 17.3758 0.499926 17.3259 0.5ZM13.4253 8.85615L9.75126 10.6997L5.95626 12.6044C5.90011 12.6326 5.83767 12.646 5.77489 12.6432C5.71212 12.6404 5.65111 12.6215 5.59769 12.5884C5.54428 12.5553 5.50026 12.5091 5.46982 12.4541C5.43939 12.3991 5.42356 12.3372 5.42386 12.2744V4.77735C5.42356 4.71451 5.43939 4.65265 5.46982 4.59767C5.50026 4.54269 5.54428 4.49644 5.59769 4.46334C5.65111 4.43023 5.71212 4.41138 5.77489 4.40858C5.83767 4.40578 5.90011 4.41913 5.95626 4.44735L9.75126 6.352L13.4253 8.19615C13.4868 8.22653 13.5387 8.27353 13.575 8.33185C13.6112 8.39017 13.6305 8.45748 13.6305 8.52615C13.6305 8.59482 13.6112 8.66213 13.575 8.72045C13.5387 8.77877 13.4868 8.82577 13.4253 8.85615Z" fill="currentColor"/>
</svg>
