<svg viewBox="0 0 18 18" fill="none"
  xmlns="http://www.w3.org/2000/svg">
  <path d="M8.63082 17.3866C3.87189 17.3866 0 13.5147 0 8.75582C0 3.99689 3.87189 0.125 8.63082 0.125C13.3897 0.125 17.2616 3.99689 17.2616 8.75582C17.2616 13.5147 13.3897 17.3866 8.63082 17.3866ZM8.63082 1.3625C4.554 1.3625 1.2375 4.679 1.2375 8.75582C1.2375 12.8326 4.554 16.1491 8.63082 16.1491C12.7076 16.1491 16.0241 12.8326 16.0241 8.75582C16.0241 4.679 12.7076 1.3625 8.63082 1.3625Z" fill="currentColor"/>
  <path d="M10.3498 9.27637C10.9715 8.90084 11.4531 8.33208 11.7211 7.65702C11.989 6.98196 12.0286 6.23773 11.8337 5.53808C11.6387 4.83843 11.2201 4.22185 10.6417 3.78256C10.0633 3.34328 9.357 3.10547 8.63071 3.10547C7.90442 3.10547 7.1981 3.34328 6.61971 3.78256C6.04132 4.22185 5.62268 4.83843 5.42777 5.53808C5.23285 6.23773 5.27239 6.98196 5.54034 7.65702C5.80828 8.33208 6.2899 8.90084 6.91158 9.27637C6.17465 9.5243 5.49964 9.92776 4.93229 10.4594C4.36495 10.9911 3.91853 11.6385 3.62329 12.3577C3.8182 12.6275 4.03438 12.8813 4.26976 13.1166C5.42641 14.2731 6.99507 14.9228 8.63071 14.9228C10.2664 14.9228 11.835 14.2731 12.9917 13.1166C13.227 12.8813 13.4432 12.6275 13.6381 12.3577C13.3429 11.6385 12.8965 10.9911 12.3291 10.4594C11.7618 9.92776 11.0868 9.5243 10.3498 9.27637Z" fill="currentColor"/>
</svg>
