<svg viewBox="0 0 18 17" fill="none"
  xmlns="http://www.w3.org/2000/svg">
  <path d="M15.5268 0.5H2.65405C2.01704 0.501886 1.40665 0.755775 0.956214 1.20621C0.505775 1.65665 0.251886 2.26704 0.25 2.90405V10.934C0.252032 11.5709 0.506002 12.1811 0.956441 12.6313C1.40688 13.0816 2.01718 13.3353 2.65405 13.337H4.1671V16.2256C4.16708 16.2702 4.1803 16.3138 4.20507 16.3509C4.22985 16.388 4.26508 16.4169 4.30629 16.434C4.34751 16.4511 4.39286 16.4556 4.43662 16.4469C4.48037 16.4381 4.52056 16.4167 4.5521 16.3851L6.72405 14.2098L7.59635 13.337H15.5268C16.1638 13.3353 16.7741 13.0815 17.2246 12.6311C17.6751 12.1808 17.929 11.5705 17.9309 10.9335V2.9035C17.9288 2.26658 17.6749 1.65634 17.2244 1.20602C16.774 0.755699 16.1637 0.501885 15.5268 0.5ZM4.00705 8.222C3.73847 8.222 3.47593 8.14236 3.25261 7.99314C3.0293 7.84393 2.85525 7.63185 2.75247 7.38371C2.64969 7.13558 2.6228 6.86254 2.67519 6.59913C2.72759 6.33571 2.85692 6.09375 3.04683 5.90383C3.23675 5.71392 3.47871 5.58459 3.74213 5.53219C4.00554 5.47979 4.27858 5.50669 4.52671 5.60947C4.77485 5.71225 4.98693 5.8863 5.13614 6.10961C5.28536 6.33293 5.365 6.59547 5.365 6.86405C5.36507 7.0424 5.33 7.21901 5.26178 7.3838C5.19356 7.54859 5.09354 7.69831 4.96743 7.82443C4.84132 7.95054 4.69159 8.05056 4.5268 8.11878C4.36201 8.187 4.1854 8.22207 4.00705 8.222ZM9.17265 8.222C8.9041 8.22189 8.6416 8.14216 8.41836 7.99288C8.19512 7.8436 8.02116 7.63147 7.91846 7.38333C7.81576 7.13519 7.78895 6.86217 7.84141 6.59879C7.89387 6.33541 8.02324 6.0935 8.21318 5.90364C8.40311 5.71378 8.64508 5.5845 8.90848 5.53215C9.17188 5.4798 9.44489 5.50672 9.69299 5.60952C9.94109 5.71232 10.1531 5.88637 10.3023 6.10967C10.4515 6.33297 10.5311 6.59549 10.5311 6.86405C10.5311 7.04242 10.496 7.21905 10.4277 7.38384C10.3595 7.54863 10.2594 7.69835 10.1332 7.82446C10.0071 7.95056 9.8573 8.05058 9.69248 8.11879C9.52767 8.187 9.35103 8.22207 9.17265 8.222ZM14.3388 8.222C14.0702 8.222 13.8077 8.14236 13.5844 7.99314C13.361 7.84393 13.187 7.63185 13.0842 7.38371C12.9814 7.13558 12.9545 6.86254 13.0069 6.59913C13.0593 6.33571 13.1887 6.09375 13.3786 5.90383C13.5685 5.71392 13.8105 5.58459 14.0739 5.53219C14.3373 5.47979 14.6103 5.50669 14.8585 5.60947C15.1066 5.71225 15.3187 5.8863 15.4679 6.10961C15.6171 6.33293 15.6968 6.59547 15.6968 6.86405C15.6968 7.0424 15.6617 7.21901 15.5935 7.3838C15.5253 7.54859 15.4253 7.69831 15.2992 7.82443C15.1731 7.95054 15.0233 8.05056 14.8586 8.11878C14.6938 8.187 14.5171 8.22207 14.3388 8.222Z" fill="currentColor"/>
</svg>
