<?xml version="1.0" encoding="UTF-8"?>
<svg width="50px" height="50px" viewBox="0 0 50 50" version="1.1" xmlns="http://www.w3.org/2000/svg" xmlns:xlink="http://www.w3.org/1999/xlink">
    <!-- Generator: Sketch 52.6 (67491) - http://www.bohemiancoding.com/sketch -->
    <title>Group 14</title>
    <desc>Created with Sketch.</desc>
    <g id="Web" stroke="none" stroke-width="1" fill="none" fill-rule="evenodd">
        <g id="12-Team" transform="translate(-735.000000, -1500.000000)">
            <g id="Group-2" transform="translate(150.000000, 1228.000000)">
                <g id="Group-7" transform="translate(585.000000, 272.000000)">
                    <g id="Group-14">
                        <circle id="Oval" fill="#FFBA4A" cx="25" cy="25" r="25"></circle>
                        <g id="glasses-with-mustache" transform="translate(9.000000, 14.000000)" fill="#000000" fill-rule="nonzero">
                            <path d="M31.53125,5.03979494 L30.1374512,5.03979494 C29.388916,2.097168 26.7192382,0 23.6469726,0 C20.6130371,0 17.9716797,2.045166 17.1853027,4.93017575 C16.4023438,4.75683594 15.5976562,4.75683594 14.8149414,4.93017575 C14.6086426,4.171875 14.2719726,3.46191406 13.8103027,2.814209 C13.6601562,2.60351562 13.3674316,2.55444337 13.1564941,2.70458987 C12.9458007,2.8549805 12.8967285,3.14770506 13.046875,3.35839844 C13.5280762,4.03344725 13.8513184,4.78686525 14.0083007,5.59765625 C14.0615234,5.87280275 14.3435059,6.04052737 14.6108399,5.95507812 C15.5197754,5.66552737 16.4804688,5.66552737 17.3894043,5.95507812 C17.6567382,6.04052737 17.9387207,5.87280275 17.9919434,5.59765625 C18.5141601,2.89746094 20.892334,0.9375 23.6469726,0.9375 C26.4016113,0.9375 28.7800293,2.89746094 29.3020019,5.59765625 C29.3447266,5.81811525 29.5378418,5.97729494 29.762207,5.97729494 L31.0625,5.97729494 L31.0625,7.41870119 L29.762207,7.41870119 C29.5375976,7.41870119 29.3447266,7.57788087 29.3020019,7.798584 C28.7797851,10.4987793 26.4016113,12.4584961 23.6469726,12.4584961 C21.3422851,12.4584961 19.2644043,11.0900879 18.3532715,8.97265625 C17.4643555,6.90625 14.5371094,6.90332031 13.6467285,8.97265625 C12.7355957,11.0900879 10.6577149,12.4584961 8.35302737,12.4584961 C5.59838869,12.4584961 3.22021487,10.4987793 2.69799806,7.798584 C2.65527344,7.57788087 2.46240237,7.41870119 2.237793,7.41870119 L0.9375,7.41870119 L0.9375,5.97729494 L2.237793,5.97729494 C2.46240237,5.97729494 2.65527344,5.81811525 2.69799806,5.59765625 C3.48535156,1.52587887 8.21679687,-0.387939437 11.612793,1.94799806 C11.8261719,2.09497069 12.1179199,2.0407715 12.2646484,1.82739256 C12.4116211,1.61425781 12.3574219,1.32226562 12.1442871,1.17553712 C11.0258789,0.406494125 9.71508787,0 8.35302737,0 C5.28076175,0 2.611084,2.097168 1.86254881,5.03979494 L0.46875,5.03979494 C0.209960937,5.03979494 -1.77635684e-15,5.24951175 -1.77635684e-15,5.50854494 L-1.77635684e-15,7.88745119 C-1.77635684e-15,8.14624025 0.209960937,8.35620119 0.46875,8.35620119 L1.86254881,8.35620119 C3.17846681,13.5297851 9.78417969,15.1586914 13.3525391,11.1574707 C13.3220215,11.5915527 13.2834472,12.1396484 13.2346191,12.8334961 C11.6386719,13.6611328 10.6010742,15.2880859 10.5283203,17.0866699 L9.01879881,17.0866699 C6.15527344,17.0866699 3.82592775,19.4160156 3.82592775,22.279541 C3.82592775,22.5383301 4.0356445,22.748291 4.29467775,22.748291 L8.36962887,22.748291 C8.628418,22.748291 8.83837887,22.5383301 8.83837887,22.279541 C8.83837887,22.0205078 8.628418,21.810791 8.36962887,21.810791 L4.7890625,21.810791 C5.02319337,19.684082 6.83081056,18.0241699 9.01879881,18.0241699 L10.6723632,18.0241699 C10.9599609,18.7058106 11.6352539,19.1855469 12.4206543,19.1855469 L13.7963867,19.1855469 C14.0913086,19.4916992 14.4458007,19.7307129 14.8330078,19.890625 C14.0529785,21.0720215 12.7102051,21.810791 11.2758789,21.810791 L10.5571289,21.810791 C10.2983399,21.810791 10.0883789,22.0205078 10.0883789,22.279541 C10.0883789,22.5383301 10.2983399,22.748291 10.5571289,22.748291 L11.2758789,22.748291 C13.1403809,22.748291 14.8781738,21.7253418 15.7939453,20.1159668 C15.9267578,20.125 16.0637207,20.1257324 16.2060547,20.1159668 C17.121582,21.7253418 18.8596191,22.748291 20.7241211,22.748291 L27.7053223,22.748291 C27.9643555,22.748291 28.1740723,22.5383301 28.1740723,22.279541 C28.1740723,19.4160156 25.8447266,17.0866699 22.9812012,17.0866699 L21.4716797,17.0866699 C21.3989258,15.2880859 20.3613281,13.6611328 18.7653809,12.8334961 C18.7165527,12.1396484 18.6779785,11.5915527 18.6474609,11.1574707 C19.8964844,12.5581055 21.7021484,13.3959961 23.6469726,13.3959961 C26.7192382,13.3959961 29.388916,11.2988281 30.1374512,8.35620119 L31.53125,8.35620119 C31.7900391,8.35620119 32,8.14648438 32,7.88745119 L32,5.50854494 C32,5.24975588 31.7900391,5.03979494 31.53125,5.03979494 Z M11.4616699,17.2893066 C11.4616699,15.9660644 12.1054687,14.7402344 13.1530762,13.9821777 C12.9396972,16.9897461 12.8173828,17.3815918 13.1806641,18.248291 L12.4206543,18.248291 C11.8613281,18.2480469 11.4616699,17.7824707 11.4616699,17.2893066 Z M27.2109375,21.810791 L20.7241211,21.810791 C19.2897949,21.810791 17.9470215,21.0720215 17.1669922,19.890625 C17.5541993,19.7307129 17.9086914,19.4916993 18.2033691,19.1855469 L19.5793457,19.1855469 C20.3647461,19.1855469 21.0400391,18.7058106 21.3276368,18.0241699 L22.9812012,18.0241699 C25.1691894,18.0241699 26.9768066,19.684082 27.2109375,21.810791 Z M20.5383301,17.2893066 C20.5383301,17.784668 20.1362305,18.248291 19.5793457,18.248291 L18.8193359,18.248291 C19.1767578,17.3955078 19.0639649,17.0439453 18.8469238,13.9821777 C19.8945312,14.7402344 20.5383301,15.9660644 20.5383301,17.2893066 Z M18.1157226,16.9143066 C18.2026368,18.1369629 17.2363281,19.1855469 16,19.1855469 C14.7380371,19.1855469 13.7993164,18.1088867 13.8842774,16.9145507 C14.3347168,10.6098633 14.3881836,9.737793 14.4086914,9.56274413 C14.4431153,9.49023438 14.4760743,9.41723631 14.5078125,9.34326175 C15.0725098,8.03100587 16.9265137,8.02905275 17.4919434,9.34326175 C17.5239258,9.41723631 17.5568848,9.49023438 17.5910644,9.56274413 C17.6118164,9.73828125 17.6657715,10.6174316 18.1157226,16.9143066 Z" id="Shape"></path>
                            <path d="M8.35302737,1.93066406 C5.72436525,1.93066406 3.58569338,4.06933594 3.58569338,6.69799806 C3.58569338,9.32666013 5.72436525,11.465332 8.35302737,11.465332 C10.9819336,11.465332 13.1206055,9.32666013 13.1206055,6.69799806 C13.1206055,4.06933594 10.9819336,1.93066406 8.35302737,1.93066406 Z M8.35302737,10.5280762 C6.24121094,10.5280762 4.52319338,8.80981444 4.52319338,6.69799806 C4.52319338,4.58618163 6.24121094,2.86816406 8.35302737,2.86816406 C10.4648438,2.86816406 12.1831055,4.58618163 12.1831055,6.69799806 C12.1831055,8.80981444 10.4648438,10.5280762 8.35302737,10.5280762 Z" id="Shape"></path>
                            <path d="M27.1191406,9.26464844 C27.3425293,9.39550781 27.6298828,9.32055663 27.7604981,9.09692381 C28.1853027,8.37109375 28.409668,7.54150388 28.409668,6.69799806 C28.409668,4.07177737 26.2731934,1.93505862 23.6469726,1.93505862 C21.0205078,1.93505862 18.8840332,4.07177737 18.8840332,6.69799806 C18.8840332,9.32421875 21.0205078,11.4609375 23.6469726,11.4609375 C24.4926757,11.4609375 25.3242187,11.2351074 26.0515137,10.8083496 C26.2749024,10.6772461 26.3496094,10.3898926 26.2185059,10.1667481 C26.0874024,9.94335938 25.800293,9.86865237 25.5769043,9.99975587 C24.9934082,10.3422851 24.3259277,10.5234375 23.6469726,10.5234375 C21.5375976,10.5234375 19.8215332,8.80737306 19.8215332,6.69799806 C19.8215332,4.58862306 21.5375976,2.87255862 23.6469726,2.87255862 C25.7561035,2.87255862 27.472168,4.58862306 27.472168,6.69799806 C27.472168,7.37524412 27.2922363,8.04101562 26.951416,8.62353513 C26.8205566,8.84692381 26.8957519,9.13403319 27.1191406,9.26464844 Z" id="Path"></path>
                        </g>
                    </g>
                </g>
            </g>
        </g>
    </g>
</svg>