<?xml version="1.0" encoding="UTF-8"?>
<svg width="50px" height="50px" viewBox="0 0 50 50" version="1.1" xmlns="http://www.w3.org/2000/svg" xmlns:xlink="http://www.w3.org/1999/xlink">
    <!-- Generator: Sketch 52.6 (67491) - http://www.bohemiancoding.com/sketch -->
    <title>Group 13</title>
    <desc>Created with Sketch.</desc>
    <g id="Web" stroke="none" stroke-width="1" fill="none" fill-rule="evenodd">
        <g id="12-Team" transform="translate(-735.000000, -1430.000000)">
            <g id="Group-2" transform="translate(150.000000, 1228.000000)">
                <g id="Group-7" transform="translate(585.000000, 202.000000)">
                    <g id="Group-13">
                        <circle id="Oval" fill="#FFBA4A" cx="25" cy="25" r="25"></circle>
                        <g id="luxury" transform="translate(10.000000, 10.000000)" fill="#000000" fill-rule="nonzero">
                            <path d="M25.2346279,18.1079418 C24.2430936,14.0633015 21.0851393,10.9052807 17.0404324,9.91374636 L17.0404324,7.98336798 C17.0387692,7.89748025 17.0157505,7.81332225 16.9733721,7.7385447 L21.6745114,3.03740541 C21.8822786,2.82957173 21.8822786,2.4926736 21.6745114,2.28483992 L19.5456133,0.155941788 C19.4458212,0.0561496881 19.3105031,0 19.1693306,0 L9.58928898,0 C9.44811642,0 9.31279834,0.0561496881 9.21300624,0.155941788 L7.08410811,2.28483992 C6.87634096,2.4926736 6.87634096,2.82957173 7.08410811,3.03740541 L11.7852474,7.7385447 C11.7429356,7.81332225 11.7199168,7.89748025 11.7181871,7.98336798 L11.7181871,9.91374636 C5.7230104,11.3834179 2.05432017,17.4349439 3.52405821,23.4301871 C4.99372973,29.4254304 11.0452557,33.0940541 17.040499,31.6243825 C23.0356757,30.1546445 26.7042994,24.1031185 25.2346279,18.1079418 Z M15.7556424,7.45114345 L15.591185,7.45114345 L16.9015218,3.19334719 L20.0134387,3.19334719 L15.7556424,7.45114345 Z M15.9759834,8.51559252 L15.9759834,9.70777547 C15.4475509,9.62687734 14.9139293,9.58423285 14.3793098,9.58004158 C13.8446902,9.58423285 13.3110686,9.62687734 12.7826362,9.70777547 L12.7826362,8.51559252 L15.9759834,8.51559252 Z M14.2813805,7.45114345 L12.9710437,3.19334719 L15.7875759,3.19334719 L14.4772391,7.45114345 L14.2813805,7.45114345 Z M18.9489896,1.06444906 L20.0134387,2.12889813 L16.7285489,2.12889813 L15.6640998,1.06444906 L18.9489896,1.06444906 Z M14.3793098,1.28479002 L15.2234179,2.12889813 L13.5352017,2.12889813 L14.3793098,1.28479002 Z M9.80962994,1.06444906 L13.0945198,1.06444906 L12.0300707,2.12889813 L8.74518087,2.12889813 L9.80962994,1.06444906 Z M8.74518087,3.19334719 L11.8570977,3.19334719 L13.1674345,7.45114345 L13.0029771,7.45114345 L8.74518087,3.19334719 Z M12.7826362,30.7301123 C12.4239168,30.6735634 12.0685239,30.5973222 11.7181871,30.5017879 L11.7181871,29.4038087 C12.067526,29.5091892 12.423052,29.5930811 12.7826362,29.6550187 L12.7826362,30.7301123 Z M6.39594179,20.7567568 C6.39594179,16.3476757 9.97022869,12.7733888 14.3793098,12.7733888 C18.7883909,12.7733888 22.3626778,16.3476757 22.3626778,20.7567568 C22.3576881,25.1637755 18.7863285,28.7351351 14.3793098,28.7401247 C9.97022869,28.7401247 6.39594179,25.1658378 6.39594179,20.7567568 Z M14.9115343,30.8418794 C14.7343035,30.8514595 14.5592017,30.8690229 14.3793098,30.8690229 C14.1994179,30.8690229 14.024316,30.8514595 13.8470852,30.8418794 L13.8470852,29.7774304 C14.024316,29.7880748 14.1994179,29.8045738 14.3793098,29.8045738 C14.5592017,29.8045738 14.7343035,29.7880748 14.9115343,29.7774304 L14.9115343,30.8418794 Z M17.0404324,30.5017879 C16.6900956,30.5973222 16.3347027,30.6735634 15.9759834,30.7301123 L15.9759834,29.6550187 C16.3355676,29.5930811 16.6910936,29.5091892 17.0404324,29.4038087 L17.0404324,30.5017879 Z M18.1048815,30.1489231 L18.1048815,28.9923992 C22.6585946,26.9348191 24.6820457,21.5753181 22.6244657,17.0216715 C20.5668857,12.4679584 15.2073846,10.4445073 10.653738,12.5020873 C6.10002495,14.5596674 4.0765738,19.9191684 6.13415385,24.472815 C7.04066528,26.4790353 8.64751767,28.0859543 10.653738,28.9923992 L10.653738,30.1489231 C5.46474844,28.0892807 2.92796674,22.2131227 4.98760915,17.0241331 C7.04725156,11.8351435 12.9234096,9.29829522 18.1123992,11.3579376 C21.9644407,12.8869522 24.492973,16.6123243 24.4916424,20.7566902 C24.4851892,24.8993929 21.9551268,28.6200416 18.1048815,30.1489231 Z" id="Shape"></path>
                            <path d="M6.36028274,4.0635343 C6.30619543,3.92555509 6.19702287,3.81638254 6.05904366,3.76229522 L4.3655052,3.09488565 L3.69809563,1.40134719 C3.59078586,1.12771726 3.28196258,0.992798337 3.00833264,1.10010811 C2.87035343,1.15419543 2.76118087,1.26336798 2.70709356,1.40134719 L2.03968399,3.09488565 L0.34614553,3.76229522 C0.0725155925,3.86960499 -0.0624033264,4.17842827 0.0449064449,4.45205821 C0.098993763,4.59003742 0.20816632,4.69920998 0.34614553,4.7532973 L2.03968399,5.42070686 L2.70709356,7.11424532 C2.81440333,7.38787526 3.12322661,7.52279418 3.39685655,7.41548441 C3.53483576,7.36139709 3.64400832,7.25222453 3.69809563,7.11424532 L4.3655052,5.42070686 L6.05904366,4.7532973 C6.33274012,4.64598753 6.46759252,4.33716424 6.36028274,4.0635343 Z M3.75983368,4.51486071 C3.62245322,4.56894802 3.51374636,4.67765489 3.45965904,4.81503534 L3.20259459,5.46807484 L2.94553015,4.81503534 C2.89144283,4.67765489 2.78273597,4.56894802 2.64535551,4.51486071 L1.99231601,4.25779626 L2.64535551,4.00073181 C2.78273597,3.94664449 2.89144283,3.83793763 2.94553015,3.70055717 L3.20259459,3.04751767 L3.45965904,3.70055717 C3.51374636,3.83793763 3.62245322,3.94664449 3.75983368,4.00073181 L4.41287318,4.25779626 L3.75983368,4.51486071 Z" id="Shape"></path>
                            <path d="M30.3360665,8.95906861 C30.2982786,8.73573389 30.1233763,8.5608316 29.9000416,8.52304366 L25.7071767,7.83115177 L25.0152848,3.6382869 C24.9662536,3.34849064 24.6915593,3.15323077 24.401763,3.20226195 C24.1784283,3.2400499 24.003526,3.41495218 23.965738,3.6382869 L23.2738462,7.83115177 L19.0809813,8.52304366 C18.791185,8.57207484 18.5959252,8.84676923 18.6449563,9.13656549 C18.6827443,9.35990021 18.8576466,9.53480249 19.0809813,9.57259044 L23.2738462,10.2644823 L23.965738,14.4573472 C24.0147692,14.7471435 24.2894636,14.9424033 24.5792599,14.8933721 C24.8025946,14.8555842 24.9774969,14.6806819 25.0152848,14.4573472 L25.7071767,10.2644823 L29.9000416,9.57259044 C30.1899044,9.52355925 30.3850977,9.24886486 30.3360665,8.95906861 Z M25.157921,9.27560915 C24.9328565,9.31273181 24.7564906,9.48909771 24.719368,9.71416216 L24.4915759,11.0952848 L24.2637838,9.71150104 C24.2266611,9.48643659 24.0502952,9.31007069 23.8252308,9.27294802 L22.4441081,9.04781705 L23.8252308,8.82002495 C24.0502952,8.78290229 24.2266611,8.60653638 24.2637838,8.38147193 L24.4915759,6.99768815 L24.719368,8.38147193 C24.7564906,8.60653638 24.9328565,8.78290229 25.157921,8.82002495 L26.5390437,9.04781705 L25.157921,9.27560915 Z" id="Shape"></path>
                        </g>
                    </g>
                </g>
            </g>
        </g>
    </g>
</svg>