<?xml version="1.0" encoding="UTF-8"?>
<svg width="50px" height="50px" viewBox="0 0 50 50" version="1.1" xmlns="http://www.w3.org/2000/svg" xmlns:xlink="http://www.w3.org/1999/xlink">
    <!-- Generator: Sketch 52.6 (67491) - http://www.bohemiancoding.com/sketch -->
    <title>Group 15</title>
    <desc>Created with Sketch.</desc>
    <g id="Web" stroke="none" stroke-width="1" fill="none" fill-rule="evenodd">
        <g id="12-Team" transform="translate(-150.000000, -2025.000000)">
            <g id="Group-3" transform="translate(150.000000, 1893.000000)">
                <g id="Group-7" transform="translate(0.000000, 132.000000)">
                    <g id="Group-15">
                        <circle id="Oval" fill="#FFBA4A" cx="25" cy="25" r="25"></circle>
                        <g id="button" transform="translate(8.000000, 13.000000)" fill="#000000" fill-rule="nonzero">
                            <path d="M20.8051706,10.7907773 L22.0303165,10.7907773 C22.3052804,10.7907773 22.5278455,10.5682122 22.5278455,10.2932482 C22.5278455,10.0182843 22.3052804,9.79571922 22.0303165,9.79571922 L20.8051706,9.79571922 C20.5302067,9.79571922 20.3076416,10.0182843 20.3076416,10.2932482 C20.3076416,10.5682122 20.5302067,10.7907773 20.8051706,10.7907773 Z" id="Path"></path>
                            <path d="M26.868125,10.7907773 C27.1430889,10.7907773 27.3659134,10.5682122 27.3659134,10.2932482 C27.3659134,10.0182843 27.1430889,9.79571922 26.868125,9.79571922 L23.5096742,9.79571922 C23.2349697,9.79571922 23.0121451,10.0182843 23.0121451,10.2932482 C23.0121451,10.5682122 23.2349697,10.7907773 23.5096742,10.7907773 L26.868125,10.7907773 Z" id="Path"></path>
                            <path d="M20.8051706,13.1482038 L29.5788542,13.1482038 C29.8535587,13.1482038 30.0763832,12.9256386 30.0763832,12.6506747 C30.0763832,12.3757108 29.8535587,12.1531457 29.5788542,12.1531457 L20.8051706,12.1531457 C20.5302067,12.1531457 20.3076416,12.3757108 20.3076416,12.6506747 C20.3076416,12.9256386 20.5302067,13.1482038 20.8051706,13.1482038 Z" id="Path"></path>
                            <path d="M20.8051706,14.9082322 L29.5788542,14.9082322 C29.8535587,14.9082322 30.0763832,14.6856671 30.0763832,14.4107032 C30.0763832,14.1357393 29.8535587,13.9131741 29.5788542,13.9131741 L20.8051706,13.9131741 C20.5302067,13.9131741 20.3076416,14.1357393 20.3076416,14.4107032 C20.3076416,14.6856671 20.5302067,14.9082322 20.8051706,14.9082322 Z" id="Path"></path>
                            <path d="M20.8051706,16.6682607 L29.5788542,16.6682607 C29.8535587,16.6682607 30.0763832,16.4456956 30.0763832,16.1707317 C30.0763832,15.8957678 29.8535587,15.6732026 29.5788542,15.6732026 L20.8051706,15.6732026 C20.5302067,15.6732026 20.3076416,15.8957678 20.3076416,16.1707317 C20.3076416,16.4456956 20.5302067,16.6682607 20.8051706,16.6682607 Z" id="Path"></path>
                            <path d="M20.8051706,18.4072778 L25.0377991,18.4072778 C25.3127631,18.4072778 25.5353282,18.1844533 25.5353282,17.9094893 C25.5353282,17.6347848 25.3127631,17.4119603 25.0377991,17.4119603 L20.8051706,17.4119603 C20.5302067,17.4119603 20.3076416,17.6347848 20.3076416,17.9094893 C20.3076416,18.1844533 20.5302067,18.4072778 20.8051706,18.4072778 Z" id="Path"></path>
                            <path d="M25.424305,4.95972648 L23.2567593,4.95972648 C21.688168,4.95972648 20.2173704,5.38384537 18.95098,6.1223569 C17.8825117,2.60255939 14.6075877,0.0332031898 10.7433071,0.0332031898 L8.57576138,0.0332031898 C3.84716024,0.0332031898 1.89107264e-15,3.88036343 1.89107264e-15,8.60896457 C1.89107264e-15,13.3378251 3.84716024,17.1849853 8.57576138,17.1849853 L10.0600478,17.1849853 L10.0600478,19.0998756 C10.0600478,19.3644635 10.2182817,19.5999986 10.4634146,19.700127 C10.5433098,19.7328114 10.6268366,19.7486348 10.7093257,19.7486348 C10.8797515,19.7486348 11.046805,19.6809314 11.1715764,19.5533066 L14.1162843,16.5466021 C14.1800966,16.4814927 14.2532475,16.4296128 14.3339208,16.3919998 C14.5793131,16.2778638 14.8189987,16.1523143 15.0521992,16.0156105 C15.3948665,17.1411468 15.9681404,18.1950887 16.7476371,19.104026 C16.9263636,19.3128429 17.2404969,19.3369671 17.4490545,19.1579812 C17.6578714,18.9792546 17.6819956,18.6648619 17.5030097,18.4563044 C16.7465995,17.5740852 16.2093822,16.5377825 15.9209295,15.4327389 C16.5826587,14.9289842 17.1725341,14.3302892 17.666691,13.6553306 C17.8290753,13.4335437 17.7808269,13.1220044 17.55904,12.9598794 C17.3372531,12.7974951 17.0259732,12.8454841 16.8635888,13.0675304 C16.1004343,14.1100587 15.0807332,14.947661 13.9147305,15.4895474 C13.7248498,15.5777434 13.5533864,15.6991426 13.4052691,15.8503728 L11.0553652,18.2500814 L11.0553652,17.0895262 C11.0553652,16.5932941 10.651739,16.1896679 10.1557663,16.1896679 L8.57576138,16.1896679 C4.39579102,16.1896679 0.995058096,12.7889349 0.995058096,8.60896457 C0.995058096,4.42899421 4.39579102,1.02826129 8.57576138,1.02826129 L10.7433071,1.02826129 C14.9232774,1.02826129 18.3240104,4.42899421 18.3240104,8.60896457 C18.3240104,9.47043169 18.1787464,10.3165943 17.8923689,11.1241062 C17.8005414,11.3829873 17.9359481,11.6672896 18.1950887,11.7593766 C18.4537104,11.8512042 18.7382721,11.7157974 18.830359,11.4566569 C19.1546089,10.5422722 19.3190685,9.58404889 19.3190685,8.60896457 C19.3190685,8.1080633 19.2754893,7.61727865 19.1927407,7.13972342 C20.3680818,6.39005761 21.7623564,5.95478458 23.2567593,5.95478458 L25.424305,5.95478458 C29.6042754,5.95478458 33.0050083,9.35551751 33.0050083,13.5354879 C33.0050083,17.7157176 29.6042754,21.1161911 25.424305,21.1161911 L23.8443001,21.1161911 C23.3483274,21.1161911 22.9447012,21.5198174 22.9447012,22.0160495 L22.9447012,23.1766047 L20.5947973,20.776896 C20.44668,20.6256659 20.275476,20.5042667 20.0853359,20.4160707 C19.7569356,20.2632842 19.4360579,20.0853359 19.1320412,19.8866355 C18.9019534,19.7361836 18.5937863,19.8007741 18.4433344,20.0311213 C18.2928824,20.2609496 18.3577324,20.5693761 18.5878201,20.7198281 C18.931525,20.9444684 19.2944255,21.1460222 19.6661456,21.3185231 C19.7468189,21.3561361 19.8199698,21.4082754 19.8837821,21.4731254 L22.8282306,24.4800893 C22.9532614,24.6074547 23.1200555,24.6751581 23.2907407,24.6751581 C23.3732298,24.6751581 23.4567566,24.6593347 23.5366518,24.6266503 C23.7815253,24.5267813 23.9400186,24.2909868 23.9400186,24.0263989 L23.9400186,22.1115086 L25.4240456,22.1115086 C30.1529062,22.1115086 34.0000664,18.2643484 34.0000664,13.5354879 C34.0000664,8.80688672 30.1529062,4.95972648 25.424305,4.95972648 Z" id="Path"></path>
                            <path d="M9.37445375,11.4237131 C8.95759806,11.4237131 8.62011878,11.771309 8.62011878,12.1881646 C8.62011878,12.5951632 8.9477409,12.9526162 9.37445375,12.9526162 C9.80142599,12.9526162 10.1389053,12.5951632 10.1389053,12.1881646 C10.1389053,11.771309 9.79156882,11.4237131 9.37445375,11.4237131 Z" id="Path"></path>
                            <path d="M10.5062156,9.09092965 C10.7741757,8.88237205 11.6180036,8.20741349 11.6180036,7.27435199 C11.6180036,6.34129049 10.7741757,5.63624148 9.50363488,5.63624148 C8.16331554,5.63624148 7.54775948,6.43052407 7.54775948,6.96644427 C7.54775948,7.35372834 7.87538159,7.53245493 8.14360108,7.53245493 C8.67978073,7.53245493 8.46110658,6.76800335 9.47380387,6.76800335 C9.97003597,6.76800335 10.3671773,6.98641805 10.3671773,7.44322136 C10.3671773,7.97914156 9.81128322,8.28678983 9.4836611,8.56486655 C9.19572716,8.81311232 8.8185597,9.22011078 8.8185597,10.0737959 C8.8185597,10.5900017 8.95759806,10.7388973 9.36459652,10.7388973 C9.85097139,10.7388973 9.95032157,10.5204826 9.95032157,10.3318989 C9.95032157,9.815693 9.96017874,9.51790189 10.5062156,9.09092965 Z" id="Path"></path>
                        </g>
                    </g>
                </g>
            </g>
        </g>
    </g>
</svg>