<?xml version="1.0" encoding="UTF-8"?>
<svg width="50px" height="50px" viewBox="0 0 50 50" version="1.1" xmlns="http://www.w3.org/2000/svg" xmlns:xlink="http://www.w3.org/1999/xlink">
    <!-- Generator: Sketch 52.6 (67491) - http://www.bohemiancoding.com/sketch -->
    <title>Group 16</title>
    <desc>Created with Sketch.</desc>
    <g id="Web" stroke="none" stroke-width="1" fill="none" fill-rule="evenodd">
        <g id="12-Team" transform="translate(-150.000000, -2095.000000)">
            <g id="Group-3" transform="translate(150.000000, 1893.000000)">
                <g id="Group-7" transform="translate(0.000000, 202.000000)">
                    <g id="Group-16">
                        <circle id="Oval" fill="#FFBA4A" cx="25" cy="25" r="25"></circle>
                        <g id="diamond" transform="translate(9.000000, 7.500000)" fill="#000000" fill-rule="nonzero">
                            <path d="M32.9219513,15.233267 C32.9282456,15.2237182 32.9340362,15.2136668 32.9395752,15.2033642 C32.9456177,15.192559 32.9514084,15.1815025 32.9566956,15.1701947 C32.9587097,15.1656716 32.9614792,15.1616511 32.9632416,15.1571279 C32.9657593,15.1513484 32.9670181,15.1450663 32.9692841,15.1392867 C32.9735642,15.1274764 32.9775925,15.1159173 32.9811172,15.1038557 C32.9841385,15.0927992 32.986908,15.0817427 32.9894257,15.0706862 C32.9916916,15.0591272 32.9939575,15.0475681 32.9954682,15.0357577 C32.9972305,15.0241987 32.9982376,15.0126396 32.9989929,15.0010805 C32.9997482,14.9895214 33,14.9777111 33,14.966152 C33,14.9543417 32.9994965,14.9427826 32.9984893,14.9312235 C32.9974823,14.9196645 32.9962234,14.9081054 32.994461,14.8965464 C32.9924469,14.8849873 32.9904327,14.8734282 32.9876633,14.8618691 C32.9851456,14.8505614 32.9821243,14.8397561 32.9788513,14.8286996 C32.9750748,14.8168893 32.9710464,14.8053302 32.9665146,14.7937712 C32.9645004,14.7884942 32.9632416,14.782966 32.9609756,14.777689 C32.9587097,14.772412 32.9556885,14.7678889 32.9531708,14.7628633 C32.9478836,14.7518068 32.9420929,14.7410015 32.9360504,14.7301963 C32.9302597,14.7198937 32.9239654,14.7100936 32.9174194,14.7002935 C32.9111252,14.6907447 32.9043274,14.6814472 32.8970261,14.672401 C32.8894729,14.6626009 32.8811646,14.6530521 32.8728562,14.6437546 C32.8688278,14.6394828 32.8655548,14.6347083 32.8615265,14.6304365 L25.9673081,7.64423702 C25.9537124,7.63066771 25.9393616,7.61810348 25.9245071,7.60629317 C25.9202271,7.6030265 25.915947,7.59975976 25.9114151,7.59649308 C25.9000854,7.58820072 25.8882522,7.5799083 25.8761673,7.57262108 C25.8711319,7.56960567 25.8663482,7.56659026 25.8613129,7.56382612 C25.8459549,7.55503123 25.8303452,7.54699014 25.8142319,7.53995418 C25.8127212,7.53945158 25.8114624,7.53869778 25.8099518,7.53794391 C25.7923279,7.53065669 25.7742004,7.52462587 25.7558212,7.51909759 C25.7505341,7.51758985 25.7452469,7.51658478 25.739708,7.51507704 C25.7258606,7.51155903 25.7117615,7.50879496 25.6974106,7.50653342 C25.6916199,7.50552822 25.686081,7.50452315 25.6802902,7.50402054 C25.6609039,7.50150767 25.6415176,7.5 25.6218796,7.5 L16.5042801,7.5 C16.5030212,7.5 16.5017624,7.5 16.5002518,7.5 L12.8951568,7.5 C12.6272735,7.5 12.4102478,7.71660683 12.4102478,7.98397307 C12.4102478,8.25133931 12.6272735,8.46794621 12.8951568,8.46794621 L15.5822983,8.46794621 L11.7458267,14.084145 L8.25050351,8.46794621 L10.6967011,8.46794621 C10.9645844,8.46794621 11.1816101,8.25133931 11.1816101,7.98397307 C11.1816101,7.71660683 10.9645844,7.5 10.6967011,7.5 L7.37837216,7.5 C7.37384033,7.5 7.36956026,7.5005026 7.36502837,7.50075387 C7.3562164,7.50100514 7.34765625,7.5012564 7.3390961,7.50201027 C7.33204648,7.50251287 7.32499698,7.50326668 7.31794736,7.50427181 C7.30913545,7.50527695 7.30032349,7.50653342 7.29151152,7.50829236 C7.28471378,7.50929749 7.27791597,7.51080523 7.27111816,7.5123129 C7.26255802,7.51432318 7.25374605,7.51658478 7.24493408,7.51909759 C7.23813628,7.52085659 7.23133847,7.52311813 7.22479248,7.52537967 C7.21648409,7.52814381 7.20842745,7.53090796 7.2003708,7.53417463 C7.19306943,7.53719004 7.18601993,7.54020545 7.1789703,7.54322086 C7.17166899,7.54673887 7.16436768,7.55000554 7.15706636,7.55377476 C7.14951323,7.55754403 7.14246367,7.56156458 7.13516235,7.56583639 C7.13088228,7.56834926 7.12660214,7.57035954 7.12232207,7.57287241 C7.1198044,7.57463135 7.11753848,7.57639035 7.114769,7.57814936 C7.10797119,7.58242117 7.1014252,7.58719559 7.09487915,7.59196993 C7.08782959,7.59699568 7.08103178,7.60177003 7.07448579,7.60729831 C7.06919864,7.61157012 7.06391142,7.6160932 7.05862427,7.62061635 C7.05132295,7.62714977 7.04427339,7.63343185 7.03747559,7.64021647 C7.03596493,7.64172421 7.03420259,7.64298062 7.03269194,7.64448835 L0.138473543,14.6304365 C0.134445223,14.6344571 0.131423918,14.6392315 0.127395598,14.6435033 C0.118835449,14.6528008 0.110527055,14.6626009 0.102722168,14.6726523 C0.0956726074,14.6816985 0.0891265547,14.6907447 0.0828323203,14.7000422 C0.0760345781,14.7098423 0.0697402793,14.7201449 0.0636977988,14.7306989 C0.0576553184,14.7410015 0.0521164102,14.7515555 0.0470810098,14.7623607 C0.0445632773,14.7676377 0.0412902832,14.772412 0.0390243691,14.777689 C0.0365066367,14.7832172 0.0354995566,14.7889968 0.0332336426,14.794525 C0.02870175,14.8055815 0.024925248,14.8168893 0.0214004355,14.8284484 C0.0178756875,14.8397561 0.0148544473,14.8508126 0.0120849609,14.8623717 C0.00956729297,14.8736795 0.00755313281,14.884736 0.00579071367,14.8962951 C0.00402832031,14.9081054 0.0025177002,14.9199158 0.00151062012,14.9317261 C0.000503540039,14.9430339 0.00025177002,14.9543417 0,14.9659008 C0,14.9777111 0.00025177002,14.9897727 0.00100708008,15.0015831 C0.00176239336,15.0128909 0.00276947344,15.0239473 0.00453186035,15.0352552 C0.00604248047,15.0473168 0.00805664063,15.0591272 0.0105743086,15.0711888 C0.013092041,15.081994 0.0156097734,15.0927992 0.0188827676,15.1036044 C0.0221557617,15.1159173 0.0264358359,15.1277277 0.0307159102,15.1395381 C0.0329818887,15.1455689 0.0342407227,15.1513484 0.0367583906,15.1571279 C0.0385207969,15.1616511 0.0412902832,15.1656716 0.0433044434,15.1701947 C0.0485915977,15.1815025 0.0543823242,15.1928102 0.0604248047,15.2038668 C0.0659637773,15.2139182 0.0717544395,15.2237182 0.0777969199,15.233267 C0.0843429727,15.243067 0.0911407148,15.2526159 0.0984420938,15.2619134 C0.105743408,15.2717135 0.113296477,15.2812622 0.121353117,15.2903085 C0.124626176,15.2940777 0.127143844,15.297847 0.130165084,15.3013649 L9.123642,24.8730262 C9.30667876,25.0680226 9.61358643,25.0778227 9.80895996,24.8948879 C10.0043335,24.7119531 10.0144043,24.4056378 9.83111572,24.2106414 L1.60377499,15.4541457 L11.3588562,15.4541457 L15.5004731,30.2444743 L11.3646469,25.8427314 C11.1813584,25.6474837 10.8744507,25.6376836 10.6790771,25.8206184 C10.4837036,26.0035532 10.4738846,26.3098685 10.6571731,26.5048649 L16.1462631,32.346968 C16.1470185,32.3474706 16.147522,32.3482244 16.1482773,32.348727 C16.1497879,32.3502347 16.1512985,32.3514912 16.1525574,32.3529988 C16.1676636,32.3685784 16.1837769,32.3826503 16.2006455,32.3959684 C16.204422,32.3987325 16.2079468,32.401748 16.2117233,32.4045121 C16.2301025,32.4180814 16.2492371,32.4303943 16.2688751,32.4411996 C16.2723999,32.4429585 16.2759247,32.4444662 16.2794495,32.4462252 C16.2975769,32.4555227 16.3164597,32.4635638 16.3355942,32.4705998 C16.3396225,32.4721075 16.343399,32.4736152 16.3474273,32.4748716 C16.3690796,32.4821589 16.3909836,32.4876871 16.4133911,32.4917076 C16.4184265,32.4924615 16.4234619,32.4932153 16.4287491,32.4939692 C16.4521637,32.4974872 16.4760818,32.5 16.5,32.5 C16.5241699,32.5 16.5478363,32.4974872 16.5715027,32.4939692 C16.5765381,32.4932153 16.5815735,32.4924615 16.5868606,32.4914564 C16.6092682,32.4874358 16.6311722,32.4821589 16.6525727,32.4748716 C16.656601,32.4736152 16.6606293,32.4718562 16.6644058,32.4705998 C16.6837921,32.4635638 16.7024231,32.4555227 16.7205505,32.4462252 C16.7240753,32.4444662 16.7276001,32.4429585 16.7311249,32.4411996 C16.7510147,32.4303943 16.7698975,32.4180814 16.7882767,32.4045121 C16.7920532,32.401748 16.795578,32.3987325 16.7993545,32.3959684 C16.8162231,32.3826503 16.8323364,32.3685784 16.8474426,32.3532501 C16.8487015,32.3517424 16.8504639,32.3502347 16.8519745,32.3489783 C16.852478,32.3482244 16.8532334,32.3477219 16.8537369,32.346968 L32.8698349,15.3013649 C32.8728562,15.297847 32.8753738,15.2940777 32.8786469,15.2905598 C32.8867035,15.2812622 32.8942566,15.2714622 32.9018097,15.2616621 C32.9088593,15.2523646 32.915657,15.243067 32.9219513,15.233267 Z M12.6451492,14.4861995 L16.5,8.84311329 L20.3548508,14.4861995 L12.6451492,14.4861995 Z M31.3577041,14.4861995 L22.1456909,14.4861995 L25.7084885,8.76169726 L31.3577041,14.4861995 Z M24.7494965,8.46794621 L21.2541733,14.084145 L17.4177017,8.46794621 L24.7494965,8.46794621 Z M7.29151152,8.76169726 L10.8543091,14.4861995 L1.64229585,14.4861995 L7.29151152,8.76169726 Z M20.633812,15.4548995 L16.5,30.2175869 L12.366188,15.4548995 L20.633812,15.4548995 Z M17.4995269,30.244223 L21.6411438,15.4541457 L31.3964768,15.4541457 L17.4995269,30.244223 Z" id="Shape"></path>
                            <path d="M16.5,3.5 C16.7762201,3.5 17,3.26941593 17,2.98479712 L17,1.01520288 C17,0.730584072 16.7762201,0.5 16.5,0.5 C16.2237799,0.5 16,0.730584072 16,1.01520288 L16,2.98479712 C16,3.26914845 16.2237799,3.5 16.5,3.5 Z" id="Path"></path>
                            <path d="M11.2740119,4.375483 C11.3570325,4.45849437 11.4658865,4.5 11.5747405,4.5 C11.6835946,4.5 11.7924487,4.45849437 11.8754692,4.375483 C12.0415103,4.20923944 12.0415103,3.94011479 11.8754692,3.77387129 L10.7259881,2.62451706 C10.559947,2.45849431 10.2905719,2.45849431 10.1245308,2.62451706 C9.95848973,2.79076056 9.95848973,3.05988521 10.1245308,3.22590795 L11.2740119,4.375483 Z" id="Path"></path>
                            <path d="M21.4252243,4.5 C21.5340693,4.5 21.6429143,4.45849437 21.725928,4.375483 L22.8753139,3.22612871 C23.041562,3.05988521 23.041562,2.79076056 22.8753139,2.62451706 C22.7092866,2.45849431 22.4401545,2.45849431 22.2739065,2.62451706 L21.1245205,3.77409205 C20.9584932,3.94011479 20.9584932,4.20946026 21.1245205,4.375483 C21.2075342,4.45849437 21.3163792,4.5 21.4252243,4.5 Z" id="Path"></path>
                        </g>
                    </g>
                </g>
            </g>
        </g>
    </g>
</svg>