<?xml version="1.0" encoding="UTF-8"?>
<svg width="50px" height="50px" viewBox="0 0 50 50" version="1.1" xmlns="http://www.w3.org/2000/svg" xmlns:xlink="http://www.w3.org/1999/xlink">
    <!-- Generator: Sketch 52.6 (67491) - http://www.bohemiancoding.com/sketch -->
    <title>Group 12</title>
    <desc>Created with Sketch.</desc>
    <g id="Web" stroke="none" stroke-width="1" fill="none" fill-rule="evenodd">
        <g id="12-Team" transform="translate(-735.000000, -1360.000000)">
            <g id="Group-2" transform="translate(150.000000, 1228.000000)">
                <g id="Group-7" transform="translate(585.000000, 132.000000)">
                    <g id="Group-12">
                        <circle id="Oval" fill="#FFBA4A" cx="25" cy="25" r="25"></circle>
                        <g id="rocket" transform="translate(11.000000, 11.000000)" fill="#000000" fill-rule="nonzero">
                            <path d="M15.6772461,14.734375 L17.6254883,13.8754883 C17.9978028,13.7111816 17.9973144,13.1813965 17.6254883,13.0175781 L15.6772461,12.1584472 L15.9074707,10.0417481 C15.951416,9.637207 15.4924316,9.37280275 15.1645508,9.61303712 L13.4465332,10.8706055 L11.7285156,9.61303712 C11.4008789,9.37304687 10.9416504,9.637207 10.9855957,10.0417481 L11.2158203,12.1584472 L9.26757812,13.0175781 C8.89526369,13.1816406 8.89599612,13.7114258 9.26757812,13.8754883 L11.2158203,14.734375 L10.9855957,16.8510742 C10.9416504,17.2556152 11.4006348,17.5200195 11.7285156,17.2800293 L13.4465332,16.0222168 L15.1645508,17.2800293 C15.4899902,17.5180664 15.9519043,17.2592774 15.9074707,16.8510742 L15.6772461,14.734375 Z M14.9851074,14.0148926 C14.7980957,14.0974121 14.6860351,14.2915039 14.7082519,14.4946289 L14.8605957,15.8955078 L13.7233887,15.0632324 C13.5585938,14.9423828 13.3344726,14.9423828 13.1696777,15.0632324 L12.0327149,15.8955078 L12.1850586,14.4946289 C12.2070312,14.2915039 12.0949707,14.0974121 11.907959,14.0148926 L10.6186524,13.4465332 L11.907959,12.8779297 C12.0949707,12.7954101 12.2070312,12.6013184 12.1850586,12.3981934 L12.0327149,10.9973144 L13.1696777,11.829834 C13.3344726,11.9504394 13.5585938,11.9504394 13.7233887,11.829834 L14.8605957,10.9973144 L14.7082519,12.3981934 C14.6860351,12.6013184 14.7980957,12.7954101 14.9851074,12.8779297 L16.2744141,13.4465332 L14.9851074,14.0148926 Z" id="Shape"></path>
                            <path d="M12.5891113,7.31469725 C12.6828613,7.59497069 12.9023438,8.25122069 13.4465332,8.25122069 C13.9907226,8.25122069 14.2102051,7.59497069 14.3039551,7.31469725 C14.7011719,6.12792969 14.9763184,3.66894531 14.9763184,2.47509763 C14.9763184,0.321533188 14.0178223,0 13.4465332,0 C12.8752441,0 11.9167481,0.321533187 11.9167481,2.47509763 C11.9167481,3.6674805 12.1914062,6.12646487 12.5891113,7.31469725 Z M13.4465332,0.9375 C14.6198731,0.9375 13.7443848,5.93725587 13.4465332,6.93090819 C13.1525879,5.94995119 12.2692871,0.9375 13.4465332,0.9375 Z" id="Shape"></path>
                            <path d="M17.1201172,9.77294925 C17.2441406,9.89721681 17.3950195,9.96142575 17.5866699,9.96142575 C18.0136719,9.96142575 18.6425781,9.64135744 19.6276856,8.95019531 C19.8395996,8.80151369 19.8908691,8.50927737 19.7421875,8.29736325 C19.5935059,8.08544925 19.3012695,8.03417969 19.0893555,8.18286131 C18.6191406,8.51269531 18.2863769,8.7126465 18.0563965,8.8342285 C18.595459,7.83715819 21.4831543,3.7924805 22.2917481,4.60131837 C22.8205566,5.13012694 21.3337402,6.4018555 20.782959,6.86914062 C20.5854492,7.03662112 20.5612793,7.33227538 20.7287597,7.52978513 C20.8962402,7.72729494 21.1918945,7.75146487 21.3894043,7.58398437 C22.2692871,6.8376465 24.1879882,5.17163087 22.9545899,3.93847656 C22.6149902,3.59887694 22.1608887,3.47558594 21.6757812,3.59155275 C21.2004394,3.70507812 20.6923828,4.03710938 20.1228027,4.60693362 C19.5319824,5.19775388 18.6647949,6.24926756 18.0141601,7.1640625 C17.1499024,8.3793945 16.6396484,9.2924805 17.1201172,9.77294925 Z" id="Path"></path>
                            <path d="M24.4177246,11.9167481 C23.2248535,11.9167481 20.7661133,12.1914062 19.578125,12.5888672 C19.2980957,12.6826172 18.6418457,12.9023438 18.6418457,13.4465332 C18.6418457,13.9904785 19.2980957,14.2102051 19.578125,14.3039551 C20.7651367,14.7011719 23.2241211,14.9760742 24.4177246,14.9760742 C26.5715332,14.9760742 26.8930664,14.0178223 26.8930664,13.4465332 C26.8930664,12.8752441 26.5715332,11.9167481 24.4177246,11.9167481 Z M19.9621582,13.4465332 C20.949707,13.1503906 25.9555664,12.2709961 25.9555664,13.4465332 C25.9555664,14.6196289 20.9555664,13.7441406 19.9621582,13.4465332 Z" id="Shape"></path>
                            <path d="M18.3886719,17.1757812 C18.1240234,17.0439453 17.5048828,16.7351074 17.1201172,17.1198731 C16.7353516,17.5046387 17.0439453,18.1240234 17.1760254,18.3884277 C17.7351074,19.5100097 19.2800293,21.4433594 20.1228027,22.2858887 C20.9758301,23.138916 22.1057129,23.8034668 22.9545899,22.9543457 C23.3586426,22.5505371 23.8088379,21.6452637 22.2861328,20.1225586 C21.4416504,19.2780762 19.5090332,17.734375 18.3886719,17.1757812 Z M22.2917481,22.2915039 C21.4621582,23.1213379 18.5456543,18.9667969 18.0537109,18.0537109 C18.9550781,18.5393066 23.1240234,21.4592285 22.2917481,22.2915039 Z" id="Shape"></path>
                            <path d="M9.71728513,18.3884277 C9.84912112,18.1240234 10.1577149,17.5046387 9.77294925,17.1198731 C9.38818362,16.7351074 8.769043,17.0439453 8.5043945,17.1757812 C7.38476562,17.7341309 5.45166013,19.277832 4.60717775,20.1225586 C3.0842285,21.6452637 3.534668,22.5505371 3.93847656,22.9545899 C4.78759763,23.8037109 5.91772462,23.1386719 6.77050781,22.2858887 C7.61401369,21.4423828 9.15844725,19.5095215 9.71728513,18.3884277 Z M4.60131837,22.2915039 C3.77197263,21.4619141 7.92675781,18.5454101 8.8393555,18.0537109 C8.35034181,18.9614258 5.43237306,23.1223144 4.60131837,22.2915039 Z" id="Shape"></path>
                            <path d="M5.77441406,14.6589356 C7.26538087,14.4072266 8.25146487,14.1191406 8.25146487,13.4465332 C8.25146487,12.8916016 7.64770506,12.574707 6.02392575,12.277832 C5.76953125,12.2312012 5.5251465,12.3999024 5.47851562,12.654541 C5.43188475,12.9091797 5.60058594,13.1533203 5.85522462,13.1999512 C6.35449219,13.2912598 6.69482425,13.3769531 6.925293,13.4482422 C5.94018556,13.7419434 0.9375,14.621582 0.9375,13.4465332 C0.9375,12.6821289 2.97265625,12.8540039 3.73022462,12.920166 C3.987793,12.9428711 4.215332,12.7519531 4.23803712,12.4941406 C4.26049806,12.236084 4.06982425,12.0087891 3.81176756,11.9863281 C2.550293,11.8759766 0,11.6906738 0,13.4465332 C0,14.0178223 0.321533187,14.9763184 2.47509763,14.9763184 C3.310791,14.9760743 4.6674805,14.8457031 5.77441406,14.6589356 Z" id="Path"></path>
                            <path d="M7.16430662,8.87890625 C8.53247069,9.85180662 9.3325195,10.2136231 9.77294925,9.77294925 C10.1577149,9.38818362 9.84912112,8.76879881 9.71728512,8.5043945 C9.157959,7.3828125 7.61303712,5.44946288 6.77050781,4.60693362 C6.20068362,4.03710938 5.69262694,3.70507812 5.21752931,3.59155275 C4.73217775,3.47558594 4.27807619,3.59887694 3.93847656,3.93847656 C3.53442381,4.34252931 3.0842285,5.24755862 4.60693362,6.77050781 C5.19775387,7.361084 6.24951175,8.22802737 7.16430662,8.87890625 Z M4.60131837,4.60131837 C5.43090819,3.77148438 8.34741212,7.9262695 8.8393555,8.8393555 C7.93066406,8.34960938 3.77075194,5.43212888 4.60131837,4.60131837 Z" id="Shape"></path>
                            <path d="M13.4465332,18.8022461 C11.9604492,18.8022461 11.5883789,20.4118652 11.5883789,21.8984375 C11.5883789,23.3959961 11.9384766,28.1113281 12.4482422,30.4064941 C12.6667481,31.3901368 12.9099121,32 13.4465332,32 C14.090332,32 14.4191894,31.1599121 14.7971191,28.2990723 C14.8310547,28.0424805 14.6503906,27.8068848 14.3937988,27.7729493 C14.1369629,27.7392578 13.9016113,27.9196778 13.8676758,28.1762695 C13.7062988,29.3972168 13.5588379,30.1225586 13.4460449,30.5505371 C12.9213867,28.5654297 12.5258789,23.4794922 12.5258789,21.8984375 C12.5258789,20.9135743 12.685791,19.7397461 13.4465332,19.7397461 C14.2072754,19.7397461 14.3669434,20.9135743 14.3669434,21.8984375 C14.3669434,22.7238769 14.2609863,24.418457 14.1088867,26.0192871 C14.0844726,26.2770996 14.2736816,26.5058594 14.53125,26.5302734 C14.7888184,26.5541993 15.0178223,26.3654785 15.0422363,26.1079101 C15.1967774,24.480957 15.3044434,22.75 15.3044434,21.8984375 C15.3046875,20.4128418 14.9331055,18.8022461 13.4465332,18.8022461 Z" id="Path"></path>
                            <path d="M8.80541994,3.56152344 C9.532959,3.56152344 10.1247559,2.96972656 10.1247559,2.24194337 C10.1247559,1.51440431 9.532959,0.92236325 8.80541994,0.92236325 C8.07763675,0.92236325 7.48583988,1.51440431 7.48583988,2.24194337 C7.48583988,2.96972656 8.07763675,3.56152344 8.80541994,3.56152344 Z M8.80541994,1.85986325 C9.01611325,1.85986325 9.1875,2.03125 9.1875,2.24194337 C9.1875,2.45263675 9.01611325,2.62426756 8.80541994,2.62426756 C8.59448244,2.62426756 8.42309569,2.45263675 8.42309569,2.24194337 C8.42309569,2.03125 8.59448244,1.85986325 8.80541994,1.85986325 Z" id="Shape"></path>
                            <path d="M18.0874024,3.56152344 C18.8149414,3.56152344 19.4069824,2.96972656 19.4069824,2.24194337 C19.4069824,1.51440431 18.8149414,0.92236325 18.0874024,0.92236325 C17.3598632,0.92236325 16.7678222,1.51440431 16.7678222,2.24194337 C16.7678222,2.96972656 17.3598632,3.56152344 18.0874024,3.56152344 Z M18.0874024,1.85986325 C18.2980957,1.85986325 18.4697266,2.03125 18.4697266,2.24194337 C18.4697266,2.45263675 18.2980957,2.62426756 18.0874024,2.62426756 C17.876709,2.62426756 17.7050781,2.45263675 17.7050781,2.24194337 C17.7050781,2.03125 17.876709,1.85986325 18.0874024,1.85986325 Z" id="Shape"></path>
                            <path d="M24.6506347,10.125 C25.378418,10.125 25.9702149,9.532959 25.9702149,8.80541994 C25.9702149,8.07788087 25.378418,7.48583987 24.6506347,7.48583987 C23.9230957,7.48583987 23.3310547,8.07788087 23.3310547,8.80541994 C23.3310547,9.532959 23.9230957,10.125 24.6506348,10.125 Z M24.6506347,8.42309569 C24.8613281,8.42309569 25.032959,8.59472656 25.032959,8.80541994 C25.032959,9.01611325 24.8613281,9.18774413 24.6506347,9.18774413 C24.4399414,9.18774413 24.2685547,9.01611325 24.2685547,8.80541994 C24.2685547,8.59472656 24.4399414,8.42309569 24.6506347,8.42309569 Z" id="Shape"></path>
                            <path d="M24.6484375,19.4003906 C25.3759766,19.4003906 25.9680176,18.8085938 25.9680176,18.0810547 C25.9680176,17.3532715 25.3759766,16.7614746 24.6484375,16.7614746 C23.9208984,16.7614746 23.3288574,17.3532715 23.3288574,18.0810547 C23.3288574,18.8085938 23.9208984,19.4003906 24.6484375,19.4003906 Z M24.6484375,17.6987305 C24.8591309,17.6987305 25.0307618,17.8701172 25.0307618,18.0810547 C25.0307618,18.2917481 24.8591309,18.4631348 24.6484375,18.4631348 C24.4377441,18.4631348 24.2661133,18.2917481 24.2661133,18.0810547 C24.2661133,17.8701172 24.4377441,17.6987305 24.6484375,17.6987305 Z" id="Shape"></path>
                            <path d="M18.0878906,25.970459 C18.8154297,25.970459 19.4074707,25.3786621 19.4074707,24.6508789 C19.4074707,23.9233399 18.8154297,23.3312988 18.0878906,23.3312988 C17.3601074,23.3312988 16.7683106,23.9233399 16.7683106,24.6508789 C16.7683106,25.3786621 17.3601074,25.970459 18.0878906,25.970459 Z M18.0878906,24.2687988 C18.298584,24.2687988 18.4699707,24.4401856 18.4699707,24.6508789 C18.4699707,24.8615722 18.298584,25.0332031 18.0878906,25.0332031 C17.8769531,25.0332031 17.7055664,24.8615722 17.7055664,24.6508789 C17.7055664,24.4401856 17.8769531,24.2687988 18.0878906,24.2687988 Z" id="Shape"></path>
                            <path d="M8.80566406,25.9702149 C9.53320312,25.9702149 10.1252441,25.3781738 10.1252441,24.6506347 C10.1252441,23.9230957 9.53320312,23.3310547 8.80566406,23.3310547 C8.07788087,23.3310547 7.486084,23.9230957 7.486084,24.6506348 C7.486084,25.3781738 8.07788087,25.9702149 8.80566406,25.9702149 Z M8.80566406,24.2683106 C9.01635744,24.2683106 9.18774413,24.4399414 9.18774413,24.6506347 C9.18774413,24.8613281 9.01635744,25.032959 8.80566406,25.032959 C8.59472656,25.032959 8.42333987,24.8613281 8.42333987,24.6506347 C8.42333987,24.4399414 8.59472656,24.2683106 8.80566406,24.2683106 Z" id="Shape"></path>
                            <path d="M2.24291994,19.4069824 C2.970459,19.4069824 3.56225587,18.8149414 3.56225587,18.0874024 C3.56225587,17.3598633 2.970459,16.7678222 2.24291994,16.7678222 C1.51513675,16.7678222 0.923339875,17.3598633 0.923339875,18.0874024 C0.923339875,18.8149414 1.51513675,19.4069824 2.24291994,19.4069824 Z M2.24291994,17.7050781 C2.45361325,17.7050781 2.625,17.876709 2.625,18.0874024 C2.625,18.2980957 2.45361325,18.4697266 2.24291994,18.4697266 C2.03198244,18.4697266 1.86059569,18.2980957 1.86059569,18.0874024 C1.86059569,17.876709 2.03198244,17.7050781 2.24291994,17.7050781 Z" id="Shape"></path>
                            <path d="M2.24243163,10.125 C2.96997069,10.125 3.56201175,9.532959 3.56201175,8.80541994 C3.56201175,8.07788087 2.96997069,7.48583987 2.24243163,7.48583987 C1.51489256,7.48583987 0.922851562,8.07788087 0.922851562,8.80541994 C0.922851562,9.532959 1.51489256,10.125 2.24243163,10.125 Z M2.24243163,8.42309569 C2.453125,8.42309569 2.62475587,8.59472656 2.62475587,8.80541994 C2.62475587,9.01611325 2.453125,9.18774413 2.24243163,9.18774413 C2.03173825,9.18774413 1.86010744,9.01611325 1.86010744,8.80541994 C1.86010744,8.59472656 2.03173825,8.42309569 2.24243163,8.42309569 Z" id="Shape"></path>
                        </g>
                    </g>
                </g>
            </g>
        </g>
    </g>
</svg>