<?xml version="1.0" encoding="UTF-8"?>
<svg width="50px" height="50px" viewBox="0 0 50 50" version="1.1" xmlns="http://www.w3.org/2000/svg" xmlns:xlink="http://www.w3.org/1999/xlink">
    <!-- Generator: Sketch 52.6 (67491) - http://www.bohemiancoding.com/sketch -->
    <title>Group 6</title>
    <desc>Created with Sketch.</desc>
    <g id="Web" stroke="none" stroke-width="1" fill="none" fill-rule="evenodd">
        <g id="12-Team" transform="translate(-150.000000, -808.000000)">
            <g id="Group-3" transform="translate(150.000000, 723.000000)">
                <g id="Group-7" transform="translate(0.000000, 85.000000)">
                    <g id="Group-6">
                        <circle id="Oval" fill="#FFBA4A" cx="25" cy="25" r="25"></circle>
                        <g id="001-xmas" transform="translate(9.000000, 9.000000)" fill="#000000" fill-rule="nonzero">
                            <path d="M21.817045,20.0055335 C21.7172025,19.7293193 21.4116765,19.5861291 21.1346769,19.6856646 C20.8576107,19.7852 20.7139788,20.0897865 20.8138213,20.3659343 C20.8162873,20.3727118 20.8188867,20.3794228 20.8216194,20.3861338 C21.3079016,21.6512574 21.3430931,22.6187049 20.9175961,23.0439566 C20.4014545,23.557448 19.1158992,23.3969155 17.4778959,22.6155156 C15.2849603,21.4803594 13.2916431,19.9974272 11.5758586,18.2247922 C7.39927019,14.0605154 5.67595424,9.97437858 6.74182942,8.91178101 C7.08194705,8.64400535 7.52403998,8.54114761 7.94793731,8.63111491 C8.24159952,8.65264328 8.49720428,8.43270844 8.51879905,8.13994925 C8.53966066,7.85695757 8.3339105,7.60752089 8.05137892,7.57330142 C7.31002514,7.44253654 6.54940936,7.65801953 5.98787869,8.15802245 C4.03421852,10.1051435 7.02069522,15.1842429 10.8219079,18.9742983 C12.6228717,20.8322493 14.7155649,22.3851488 17.0177407,23.5718002 C17.4346397,23.7708047 17.864269,23.9421678 18.3038292,24.08476 L14.5154134,25.516795 C9.45663858,23.5994416 5.81492058,19.128452 4.97105829,13.7989856 C4.92540268,13.5089507 4.65253544,13.3106771 4.3616059,13.3561924 C4.07067636,13.4017076 3.8717912,13.6737357 3.91744681,13.9637707 C4.00115986,14.4953352 4.11313275,15.0268998 4.25016622,15.5467699 C5.47800218,20.1846043 8.71195227,24.0374508 13.0746956,26.060054 L6.83940579,28.4122272 C6.81081272,28.3646521 6.77482143,28.3219941 6.73276495,28.2857148 C5.14808209,27.0173353 4.15378956,25.1571915 3.98143131,23.1385751 L3.73402456,20.1517138 C3.71456261,19.8623433 3.46342343,19.6434716 3.17309375,19.6628737 C3.16756176,19.6632724 3.16202976,19.6636711 3.15656442,19.6642691 C2.86303551,19.687525 2.64395524,19.9436727 2.66728292,20.236299 C2.66734957,20.237495 2.66748287,20.2387575 2.66761617,20.2399535 L2.91928855,23.2257517 C3.10670983,25.3834387 4.11633197,27.3874371 5.74047195,28.8257844 L1.29248256,30.5044653 L2.09228885,27.2321538 C2.16207195,26.9467701 1.98664777,26.6590608 1.70038377,26.5894923 C1.41411976,26.5199238 1.12552299,26.6948085 1.0557399,26.9801922 L0.0154585124,31.2327088 C-0.0546578391,31.5178267 0.120366438,31.8056689 0.406430488,31.8755032 C0.511338413,31.9011512 0.62151173,31.8943738 0.722487274,31.856234 L20.4510425,24.4143301 C20.4824349,24.3990476 20.5120943,24.3805093 20.5395544,24.3590473 C20.9665176,24.2936649 21.3623551,24.0968531 21.6715469,23.7961205 C22.1998856,23.26934 22.6547087,22.1833536 21.817045,20.0055335 Z" id="Path"></path>
                            <path d="M26.8485927,18.6081295 C23.9742193,17.5105209 20.8674873,17.2027973 17.8397812,17.7159412 L15.9399711,18.0413594 C15.6515833,18.0979008 15.4627588,18.3821672 15.5181898,18.6763318 C15.5717599,18.9605304 15.8346255,19.1517814 16.1154363,19.1109008 L18.0147148,18.7881943 C20.8581824,18.3059651 23.7760233,18.5951806 26.4753302,19.6266887 C26.5352144,19.6483154 26.5984218,19.6591627 26.6619615,19.6586881 C26.9555999,19.6591627 27.1940731,19.4167939 27.1945384,19.1172057 C27.1949372,18.8904299 27.0569577,18.6873825 26.8485927,18.6081295 Z" id="Path"></path>
                            <path d="M28.6717503,10.4580751 C28.5454453,10.1948169 28.2280874,10.0830476 27.962847,10.2084086 L16.7948269,15.4867698 C16.5296529,15.6120649 16.4169756,15.9269851 16.5432141,16.1902433 C16.5432141,16.1903093 16.5432806,16.1903753 16.5432806,16.1903753 C16.6695191,16.4535676 16.9868105,16.5654029 17.252051,16.4401078 C17.2521175,16.4401078 17.2521175,16.4400418 17.252184,16.4400418 L28.420204,11.1616807 C28.6854444,11.0363196 28.7980553,10.7213334 28.6717503,10.4580751 Z" id="Path"></path>
                            <path d="M12.9359565,3.59302544 C12.8769281,3.30534908 12.5936588,3.1195221 12.3032121,3.17798751 C12.0127655,3.23645291 11.8251491,3.51702041 11.8841775,3.80469677 C11.885452,3.81107482 11.8869277,3.81738642 11.8884705,3.82369803 C12.5676997,6.82928485 12.2877843,9.96967428 11.0872939,12.8108936 L10.3070456,14.6653099 C10.1942879,14.9355131 10.3230101,15.2451804 10.5952116,15.3583907 C10.6604111,15.3855638 10.7305074,15.3994493 10.8012744,15.3993165 C11.0178684,15.3993165 11.2131988,15.2704268 11.2965764,15.0724417 L12.0773614,13.2201514 C13.3635771,10.176695 13.6636159,6.81267536 12.9359565,3.59302544 Z" id="Path"></path>
                            <path d="M29.3242321,19.221843 C28.4496132,19.221843 27.7406143,19.9308419 27.7406143,20.8054608 C27.7406143,21.6800796 28.4496132,22.3890785 29.3242321,22.3890785 C30.198851,22.3890785 30.9078498,21.6800796 30.9078498,20.8054608 C30.9078498,19.9308419 30.198851,19.221843 29.3242321,19.221843 Z M29.3242321,21.3333333 C29.0327144,21.3333333 28.7963595,21.0969784 28.7963595,20.8054608 C28.7963595,20.5139431 29.0327144,20.2775882 29.3242321,20.2775882 C29.6157497,20.2775882 29.8521047,20.5139431 29.8521047,20.8054608 C29.8521047,21.0969784 29.6157497,21.3333333 29.3242321,21.3333333 Z" id="Shape"></path>
                            <path d="M16.5460751,4.25938567 C15.6714562,4.25938567 14.9624573,4.96838453 14.9624573,5.84300341 C14.9624573,6.7176223 15.6714562,7.42662116 16.5460751,7.42662116 C17.420694,7.42662116 18.1296928,6.7176223 18.1296928,5.84300341 C18.1296928,4.96838453 17.420694,4.25938567 16.5460751,4.25938567 Z M16.5460751,6.370876 C16.2545575,6.370876 16.0182025,6.13452105 16.0182025,5.84300341 C16.0182025,5.55148578 16.2545575,5.31513083 16.5460751,5.31513083 C16.8375927,5.31513083 17.0739477,5.55148578 17.0739477,5.84300341 C17.0739477,6.13452105 16.8375927,6.370876 16.5460751,6.370876 Z" id="Shape"></path>
                            <circle id="Oval" cx="11.7406143" cy="1.03754266" r="1.03754266"></circle>
                            <path d="M26.6484642,2.62116041 C26.3468942,2.62116041 26.1023891,2.86566553 26.1023891,3.16723549 L26.1023891,3.71331058 C26.1023891,4.01488055 26.3468942,4.25938567 26.6484642,4.25938567 C26.9500341,4.25938567 27.1945392,4.01488055 27.1945392,3.71331058 L27.1945392,3.16723549 C27.1945392,2.86566553 26.9500341,2.62116041 26.6484642,2.62116041 Z" id="Path"></path>
                            <path d="M26.6484642,0 C26.3468942,0 26.1023891,0.244505119 26.1023891,0.546075085 L26.1023891,1.09215017 C26.1023891,1.39372014 26.3468942,1.63822526 26.6484642,1.63822526 C26.9500341,1.63822526 27.1945392,1.39372014 27.1945392,1.09215017 L27.1945392,0.546075085 C27.1945392,0.244505119 26.9500341,0 26.6484642,0 Z" id="Path"></path>
                            <path d="M28.1774744,1.52901024 L27.6313993,1.52901024 C27.3298294,1.52901024 27.0853242,1.77351536 27.0853242,2.07508532 C27.0853242,2.37665529 27.3298294,2.62116041 27.6313993,2.62116041 L28.1774744,2.62116041 C28.4790444,2.62116041 28.7235495,2.37665529 28.7235495,2.07508532 C28.7235495,1.77351536 28.4790444,1.52901024 28.1774744,1.52901024 Z" id="Path"></path>
                            <path d="M25.556314,1.52901024 L25.0102389,1.52901024 C24.7086689,1.52901024 24.4641638,1.77351536 24.4641638,2.07508532 C24.4641638,2.37665529 24.7086689,2.62116041 25.0102389,2.62116041 L25.556314,2.62116041 C25.857884,2.62116041 26.1023891,2.37665529 26.1023891,2.07508532 C26.1023891,1.77351536 25.857884,1.52901024 25.556314,1.52901024 Z" id="Path"></path>
                            <path d="M22.8431274,5.89761092 L20.1875894,5.89761092 C19.8955119,5.89761092 19.6587031,6.13441975 19.6587031,6.4264972 L19.6587031,9.08203522 C19.6587031,9.37411267 19.8955119,9.6109215 20.1875894,9.6109215 L22.8431274,9.6109215 C23.1352048,9.6109215 23.3720137,9.37411267 23.3720137,9.08203522 L23.3720137,6.4264972 C23.3720137,6.13441975 23.1352048,5.89761092 22.8431274,5.89761092 Z M22.3142411,8.55314894 L20.7164756,8.55314894 L20.7164756,6.95538348 L22.3142411,6.95538348 L22.3142411,8.55314894 Z" id="Shape"></path>
                            <path d="M18.9697914,10.217596 C18.7757555,10.0072371 18.4528248,9.99005943 18.2382424,10.1786779 L12.9529615,15.0098885 C12.7361328,15.2082366 12.7186253,15.547562 12.9138504,15.7678518 C13.1091415,15.9880745 13.4432374,16.005856 13.6601321,15.8075751 L18.945413,10.9763645 C19.1584759,10.7736549 19.1693768,10.433994 18.9697914,10.217596 Z" id="Path"></path>
                            <path d="M28.7235495,12.2320819 C28.4219795,12.2320819 28.1774744,12.476587 28.1774744,12.778157 L28.1774744,13.3242321 C28.1774744,13.625802 28.4219795,13.8703072 28.7235495,13.8703072 C29.0251195,13.8703072 29.2696246,13.625802 29.2696246,13.3242321 L29.2696246,12.778157 C29.2696246,12.476587 29.0251195,12.2320819 28.7235495,12.2320819 Z" id="Path"></path>
                            <path d="M30.9776661,12.0995924 L30.6034603,11.7253983 C30.3932011,11.5222909 30.0581626,11.5281128 29.8550488,11.7383655 C29.6569632,11.9434577 29.6569632,12.2686281 29.8550488,12.4737864 L30.2292546,12.8479805 C30.4395137,13.051088 30.7745523,13.045266 30.9776661,12.8350134 C31.1758178,12.629855 31.1758178,12.3046846 30.9776661,12.0995924 Z" id="Path"></path>
                            <path d="M31.4539249,10.0477816 L30.9078498,10.0477816 C30.6062799,10.0477816 30.3617747,10.2922867 30.3617747,10.5938567 C30.3617747,10.8954266 30.6062799,11.1399317 30.9078498,11.1399317 L31.4539249,11.1399317 C31.7554949,11.1399317 32,10.8954266 32,10.5938567 C32,10.2922867 31.7554949,10.0477816 31.4539249,10.0477816 Z" id="Path"></path>
                            <path d="M30.965427,8.33901681 C30.7612497,8.14182944 30.4375299,8.14182944 30.2332868,8.33901681 L29.860762,8.71152577 C29.655004,8.91734092 29.6550698,9.25092611 29.8608937,9.4566754 C29.9596892,9.55540081 30.0936558,9.6109215 30.2332868,9.6109215 C30.3730494,9.6109215 30.5070161,9.55533495 30.6058115,9.45654367 L30.9783363,9.08403472 C31.1805377,8.87472895 31.1747417,8.54114375 30.965427,8.33901681 Z" id="Path"></path>
                            <path d="M28.7235495,7.42662116 C28.4219795,7.42662116 28.1774744,7.67112628 28.1774744,7.97269625 L28.1774744,8.51877133 C28.1774744,8.8203413 28.4219795,9.06484642 28.7235495,9.06484642 C29.0251195,9.06484642 29.2696246,8.8203413 29.2696246,8.51877133 L29.2696246,7.97269625 C29.2696246,7.67112628 29.0251195,7.42662116 28.7235495,7.42662116 Z" id="Path"></path>
                            <path d="M27.5920005,8.71391084 L27.2177948,8.3397101 C27.0075356,8.13666517 26.6724971,8.14242109 26.4693833,8.35267745 C26.2712977,8.55777333 26.2712977,8.88294954 26.4693833,9.08811158 L26.843589,9.46231233 C27.0538482,9.66542341 27.3888867,9.65960133 27.5920005,9.44934497 C27.7901523,9.24418293 27.7901523,8.91900672 27.5920005,8.71391084 Z" id="Path"></path>
                            <path d="M6.30836341,2.28145005 C6.24621533,2.08857002 6.08108089,1.94807551 5.88243134,1.91888357 L4.33334752,1.69121315 L3.64246142,0.273471584 C3.48847668,0.00934457097 3.1516763,-0.0786977669 2.89021893,0.0768592479 C2.80986185,0.124646043 2.74289762,0.192294016 2.69559383,0.273471584 L2.00154094,1.69121315 L0.452457127,1.91888357 C0.163950162,1.96093862 -0.0361508268,2.23133057 0.00547915147,2.52278336 C0.0220387783,2.63881797 0.0760060084,2.746055 0.159002066,2.8279657 L1.27951482,3.93166071 L1.01561639,5.49016338 C0.964947889,5.78014992 1.15653815,6.05674015 1.44359368,6.10792601 C1.55918119,6.12852032 1.67819939,6.10965886 1.78197745,6.05427417 L3.16744423,5.31634475 L4.55291102,6.05214142 C4.81093772,6.18917023 5.1300569,6.08899791 5.26570069,5.8283366 C5.3197339,5.72456528 5.33833874,5.60573145 5.31874428,5.49016338 L5.05484584,3.93166071 L6.1758864,2.8279657 C6.31938117,2.68607157 6.37070942,2.47426344 6.30836341,2.28145005 Z M4.1174786,3.36381763 C3.99318244,3.48611716 3.9363783,3.66233514 3.9654731,3.83515405 L4.09636673,4.60560781 L3.41286978,4.24144178 C3.25921491,4.15993097 3.07567355,4.15993097 2.92201869,4.24144178 L2.23588275,4.60507463 L2.36677638,3.83462086 C2.39639898,3.66246843 2.34058446,3.48651705 2.21740986,3.36381763 L1.66269535,2.81836835 L2.42852861,2.7058661 C2.60045844,2.68067307 2.74909924,2.57156988 2.82595966,2.41421336 L3.16744423,1.71414015 L3.50945661,2.41421336 C3.58625105,2.57143659 3.73462795,2.68047312 3.90635985,2.7058661 L4.67166532,2.81836835 L4.1174786,3.36381763 Z" id="Shape"></path>
                            <path d="M30.1108465,26.7279907 L30.1087107,26.7279907 L29.8887305,26.3988342 C28.6552794,24.5588464 26.7157025,23.3077319 24.5275131,22.9405599 C24.2355855,22.8990158 23.9651486,23.1014098 23.9235019,23.3926175 C23.8832567,23.6739718 24.0715347,23.9372837 24.3513154,23.9908782 C25.9296202,24.2581182 27.3679679,25.0579739 28.4257551,26.2566258 C27.5364236,26.4162108 26.7586173,26.9490263 26.2900247,27.7197213 C25.7149793,28.7470706 26.0837265,30.0448556 27.1136157,30.6184828 C28.143505,31.19211 29.4444986,30.8242722 30.019544,29.7969229 C30.2391905,29.3739594 30.3577903,28.9059898 30.3660662,28.4296982 C30.9341705,29.2527893 30.9796216,30.3276745 30.4829975,31.195572 C30.332562,31.4485645 30.4161892,31.7753243 30.6698072,31.9253887 C30.9234251,32.0754532 31.2509928,31.9920323 31.4014283,31.7390398 C31.4062337,31.7309174 31.4108389,31.7227284 31.4152438,31.7143397 C32.3928744,29.9724198 31.8170281,27.7713185 30.1108465,26.7279907 Z M29.0883655,29.2770899 C28.803379,29.7921959 28.1537832,29.9792772 27.6374704,29.6949936 C27.1211575,29.4107099 26.933547,28.7627162 27.2185335,28.2476767 C27.2201353,28.2448139 27.2217371,28.2418845 27.2233389,28.2390217 C27.5384259,27.7243817 28.069889,27.3793798 28.6692284,27.3005527 C28.7620659,27.2980228 28.8539691,27.3193274 28.9361947,27.3623361 C29.3868338,27.6131982 29.4108608,28.7007996 29.0883655,29.2770899 Z" id="Shape"></path>
                        </g>
                    </g>
                </g>
            </g>
        </g>
    </g>
</svg>