<?xml version="1.0" encoding="UTF-8"?>
<svg width="50px" height="50px" viewBox="0 0 50 50" version="1.1" xmlns="http://www.w3.org/2000/svg" xmlns:xlink="http://www.w3.org/1999/xlink">
    <!-- Generator: Sketch 52.6 (67491) - http://www.bohemiancoding.com/sketch -->
    <title>Group 10</title>
    <desc>Created with Sketch.</desc>
    <g id="Web" stroke="none" stroke-width="1" fill="none" fill-rule="evenodd">
        <g id="12-Team" transform="translate(-150.000000, -1018.000000)">
            <g id="Group-3" transform="translate(150.000000, 723.000000)">
                <g id="Group-7" transform="translate(0.000000, 295.000000)">
                    <g id="Group-10">
                        <circle id="Oval" fill="#FFBA4A" cx="25" cy="25" r="25"></circle>
                        <g id="002-balloon" transform="translate(9.000000, 10.000000)" fill="#000000" fill-rule="nonzero">
                            <path d="M16.5284667,2.5216 C16.2339333,2.5216 15.9951333,2.7604 15.9951333,3.05493333 C15.9951333,3.34946667 16.2339333,3.58826667 16.5284667,3.58826667 C17.9988667,3.58826667 19.1951333,5.04533333 19.1951333,6.83626667 C19.1951333,7.1308 19.4339333,7.3696 19.7284667,7.3696 C20.023,7.3696 20.2618,7.1308 20.2618,6.83626667 C20.2618,4.45706667 18.5871333,2.5216 16.5284667,2.5216 Z" id="Path"></path>
                            <path d="M5.3826,6.44826667 C5.31026667,6.16253333 5.02006667,5.98953333 4.73433333,6.06186667 C2.7386,6.568 1.59086667,8.856 2.17433333,11.1626667 C2.24026667,11.4497333 2.5264,11.629 2.81353333,11.5630667 C3.1006,11.4971333 3.27986667,11.211 3.21393333,10.9238667 C3.21213333,10.9159333 3.21013333,10.9080667 3.20793333,10.9002 C2.76846667,9.1642 3.57113333,7.457 4.9962,7.09646667 C5.28193333,7.0242 5.45493333,6.734 5.3826,6.44826667 Z" id="Path"></path>
                            <path d="M27.2564667,6.06186667 C26.9707333,5.98953333 26.6805333,6.16253333 26.6082,6.44826667 C26.5358667,6.734 26.7088667,7.0242 26.9946,7.09653333 C28.4196667,7.45706667 29.2212667,9.16426667 28.7812667,10.9002667 C28.7090667,11.1858667 28.8820667,11.4758667 29.1676,11.5480667 C29.1678667,11.5481333 29.1682,11.5482 29.1684667,11.5482667 C29.4538667,11.6206667 29.7439333,11.4480667 29.8164667,11.1626667 C30.4031333,8.856 29.2538,6.568 27.2564667,6.06186667 Z" id="Path"></path>
                            <path d="M31.6751333,8.25706667 C31.3108667,6.5202 30.1894,5.03706667 28.6175333,4.21333333 C27.4893333,3.64873333 26.2069333,3.4702 24.9674,3.70506667 C24.6774,3.7572 24.4846,4.03453333 24.5367333,4.32453333 C24.5888667,4.61453333 24.8662,4.80733333 25.1562,4.7552 C26.1669333,4.56033333 27.2137333,4.70426667 28.1343333,5.1648 C29.4241333,5.84813333 30.3412,7.072 30.6346,8.50186667 C30.9903333,10.123 30.7613333,11.8177333 29.9882,13.2864 C29.2568667,14.777 28.0219333,15.9609333 26.5018,16.6288 C25.1737333,17.2346 23.6443333,17.215 22.3322,16.5754667 C21.6772667,16.2425333 21.1131333,15.7552667 20.6884667,15.1557333 C20.5167333,14.9164 20.1835333,14.8616 19.9442,15.0333333 C19.7048667,15.2050667 19.6500667,15.5382667 19.8218,15.7776 C20.255,16.3819333 20.8039333,16.8942667 21.4367333,17.2848 C21.4298,17.2949333 21.4186,17.3002667 21.4122,17.3104 L16.5284667,24.8608 L16.5284667,14.9018667 C19.8079333,14.5818667 22.3951333,11.3738667 22.3951333,7.46666667 C22.3951333,3.34933333 19.5242,0 15.9951333,0 C12.4660667,0 9.59513333,3.34933333 9.59513333,7.46666667 C9.59513333,11.3738667 12.1823333,14.584 15.4618,14.9018667 L15.4618,24.8608 L10.5759333,17.3104 C10.5548,17.2840667 10.5312667,17.2597333 10.5055333,17.2378667 C11.1052,16.8528667 11.6260667,16.3573333 12.0404667,15.7776 C12.2122,15.5382667 12.1574,15.2050667 11.9180667,15.0333333 C11.6787333,14.8616 11.3455333,14.9164 11.1738,15.1557333 C10.7492,15.755 10.1852667,16.2420667 9.5306,16.5749333 C8.21846667,17.2147333 6.68906667,17.2342667 5.361,16.6282667 C3.8418,15.9599333 2.60753333,14.7763333 1.8762,13.2864 C1.10306667,11.8177333 0.874133333,10.123 1.2298,8.50186667 C1.523,7.07253333 2.4394,5.84886667 3.72846667,5.16533333 C4.68513333,4.687 5.77666667,4.5502 6.8218,4.7776 C7.11246667,4.82513333 7.38666667,4.628 7.4342,4.33726667 C7.47906667,4.06266667 7.30533333,3.79973333 7.03513333,3.73333333 C5.755,3.4588 4.4196,3.62813333 3.24846667,4.21333333 C1.67753333,5.03733333 0.557066667,6.52026667 0.193533333,8.25653333 C-0.221066667,10.1231333 0.0381333333,12.0762667 0.925266667,13.7701333 C1.7708,15.4846 3.1954,16.8448 4.94713333,17.6101333 C5.73926667,17.9506 6.5916,18.1288667 7.4538,18.1344 C8.1938,18.1333333 8.9264,17.9863333 9.60953333,17.7018667 C9.62213333,17.768 9.64706667,17.8311333 9.68313333,17.888 L14.7268667,25.6832 L12.9066,24.7728 C11.777,24.2071333 10.4026667,24.6642667 9.837,25.7938667 C9.27133333,26.9234667 9.72846667,28.2978 10.8580667,28.8634667 C11.5027333,29.1863333 12.2619333,29.1863333 12.9066,28.8634667 L14.2399333,28.1957333 C13.6446667,29.183 13.3296,30.3138 13.3284667,31.4666667 C13.3284667,31.7612 13.5672667,32 13.8618,32 C14.1563333,32 14.3951333,31.7612 14.3951333,31.4666667 C14.3957333,30.2163333 14.8400667,29.0067333 15.649,28.0533333 L15.9951333,27.6437333 L16.3412667,28.0522667 C17.1504,29.006 17.5947333,30.2159333 17.5951333,31.4666667 C17.5951333,31.7612 17.8339333,32 18.1284667,32 C18.423,32 18.6618,31.7612 18.6618,31.4666667 C18.6604,30.3143333 18.3453333,29.1841333 17.7503333,28.1973333 L19.0836667,28.8650667 C20.2132667,29.4300667 21.5870667,28.9724 22.1520667,27.8428 C22.7170667,26.7132 22.2594,25.3394 21.1298,24.7744 C20.4858,24.4522667 19.7276667,24.4522667 19.0836667,24.7744 L17.2634,25.6848 L22.3071333,17.8896 C22.332,17.846 22.3499333,17.7989333 22.3604667,17.7498667 C23.0132,18.0048 23.7077333,18.1357333 24.4084667,18.136 C25.2706667,18.1304667 26.123,17.9522 26.9151333,17.6117333 C28.6669333,16.8462667 30.0916667,15.4861333 30.9375333,13.7717333 C31.8262667,12.0780667 32.0875333,10.1247333 31.6751333,8.25706667 Z M12.4271333,27.9109333 C11.8244667,28.2126 11.0914,27.9686 10.7897333,27.3659333 C10.4880667,26.7632667 10.7320667,26.0302 11.3347333,25.7285333 C11.6785333,25.5564667 12.0833333,25.5564667 12.4271333,25.7285333 L14.6084667,26.8197333 L12.4271333,27.9109333 Z M15.9951333,13.8666667 C13.0543333,13.8666667 10.6618,10.9957333 10.6618,7.46666667 C10.6618,3.9376 13.0543333,1.06666667 15.9951333,1.06666667 C18.9359333,1.06666667 21.3284667,3.9376 21.3284667,7.46666667 C21.3284667,10.9957333 18.9359333,13.8666667 15.9951333,13.8666667 Z M19.5620667,25.7285333 C20.1647333,25.4268667 20.8978,25.6708667 21.1994667,26.2735333 C21.5011333,26.8762 21.2571333,27.6092667 20.6544667,27.9109333 C20.3106667,28.083 19.9058667,28.083 19.5620667,27.9109333 L17.3818,26.8197333 L19.5620667,25.7285333 Z" id="Shape"></path>
                        </g>
                    </g>
                </g>
            </g>
        </g>
    </g>
</svg>