<?xml version="1.0" encoding="UTF-8"?>
<svg width="50px" height="50px" viewBox="0 0 50 50" version="1.1" xmlns="http://www.w3.org/2000/svg" xmlns:xlink="http://www.w3.org/1999/xlink">
    <!-- Generator: Sketch 52.6 (67491) - http://www.bohemiancoding.com/sketch -->
    <title>Group 8</title>
    <desc>Created with Sketch.</desc>
    <g id="Web" stroke="none" stroke-width="1" fill="none" fill-rule="evenodd">
        <g id="12-Team" transform="translate(-150.000000, -878.000000)">
            <g id="Group-3" transform="translate(150.000000, 723.000000)">
                <g id="Group-7" transform="translate(0.000000, 155.000000)">
                    <g id="Group-8">
                        <circle id="Oval" fill="#FFBA4A" cx="25" cy="25" r="25"></circle>
                        <g id="003-food" transform="translate(9.000000, 9.000000)" fill="#000000" fill-rule="nonzero">
                            <path d="M16.4705574,6.691154 C16.3513443,6.4265462 16.0406557,6.30886242 15.7765902,6.42832033 C15.7732459,6.42983162 15.7699016,6.43140862 15.766623,6.43298563 C10.988459,8.64643943 5.78859016,9.79646817 0.524590164,9.80409035 C0.234885246,9.80409035 0,10.0394579 0,10.3297577 C0,10.6200575 0.234885246,10.8554251 0.524590164,10.8554251 C1.01770492,10.8554251 1.51134426,10.8343984 2.00445902,10.814423 L4.82622951,14.5845092 C4.92531148,14.716846 5.08078689,14.7947762 5.24590164,14.7947762 C5.26570492,14.7947762 5.2855082,14.7937248 5.30518033,14.7916222 C5.48983607,14.7703984 5.6495082,14.6527803 5.72485246,14.4825298 L7.648,10.1468255 C8.2775082,10.0238193 8.9024918,9.884846 9.52288525,9.72997125 L13.3245902,12.5869733 C13.5566557,12.7608378 13.885377,12.7132649 14.0588852,12.4807885 C14.1133115,12.4078522 14.1478689,12.3219713 14.1592131,12.2316222 L14.6838033,8.04468172 C15.1963279,7.83441478 15.7067541,7.61994251 16.2082623,7.3865462 C16.4723279,7.2670883 16.5897705,6.95576181 16.4705574,6.691154 Z M5.12996721,13.2372238 L3.26032787,10.7397782 C4.3095082,10.6614538 5.35868852,10.5463326 6.39737705,10.3791704 L5.12996721,13.2372238 Z M13.2312131,11.2023655 L10.8180984,9.38933881 C11.7481967,9.12177413 12.6651803,8.81110472 13.570623,8.47467762 L13.2312131,11.2023655 Z" id="Shape"></path>
                            <g id="Group" transform="translate(0.000000, 16.361396)">
                                <polygon id="Path" points="15.0759607 3.33488953 15.0760607 3.33498953 15.0767607 3.33568953"></polygon>
                                <path d="M15.0589508,3.31794661 L11.9118689,0.164402464 C11.7070164,-0.0408049281 11.3749508,-0.0408049281 11.1700984,0.164402464 L6.57521311,4.76819713 C5.64452459,5.70099384 5.50465574,7.1641232 6.24157377,8.25705133 L3.45495082,11.0493963 L0.524590164,11.0493963 C0.234885246,11.049462 6.55737705e-05,11.2848296 0.000131147541,11.5751951 C0.000131147541,11.7145626 0.0554098361,11.8481478 0.153704918,11.9467105 L3.3012459,15.1007146 C3.50616393,15.3059877 3.83829508,15.305922 4.04314754,15.1005832 C4.14144262,15.0020205 4.19672131,14.8683696 4.19672131,14.7290678 L4.19672131,11.7926899 L6.98334426,8.99929363 C8.07416393,9.7381191 9.53468852,9.59743737 10.4650492,8.66391786 L12.4359344,6.68951129 L15.0588852,4.06117454 C15.2636721,3.85590144 15.2636721,3.52321971 15.0589508,3.31794661 Z M3.14754098,13.4601068 L1.79095082,12.100731 L3.14754098,12.100731 L3.14754098,13.4601068 Z M9.7227541,7.92220123 C9.06196721,8.5861848 7.98911475,8.58776181 7.3264918,7.92561807 C7.03718033,7.63656674 6.86183607,7.25243532 6.83278689,6.84405749 L10.7986885,6.84405749 L9.7227541,7.92220123 Z M11.8483934,5.79272279 L7.09298361,5.79272279 C7.15803279,5.6913347 7.2332459,5.59697741 7.3175082,5.51096509 L11.5409836,1.27934292 L13.9467541,3.69005339 L11.8483934,5.79272279 Z" id="Shape"></path>
                            </g>
                            <path d="M31.9601311,27.7351294 C31.8788852,27.5387269 31.687541,27.4107269 31.4754098,27.4107926 L28.5450492,27.4107926 L25.757377,24.6184476 C26.4944918,23.5252567 26.3542951,22.0618645 25.4232131,21.1290678 L20.8288525,16.5257988 C20.624,16.3205914 20.2919344,16.3205914 20.087082,16.5257988 L16.939541,19.6798029 C16.7347541,19.885076 16.7347541,20.2178234 16.939541,20.4230965 L19.0379016,22.5257659 L21.5328525,25.0258398 C22.4634098,25.9594251 23.9241311,26.1001068 25.015082,25.3612156 L27.8032787,28.1540862 L27.8032787,31.0904641 C27.8033443,31.3807639 28.0382295,31.6160657 28.328,31.616 C28.467082,31.616 28.6003934,31.5606078 28.6987541,31.4621109 L31.8462951,28.3081068 C31.9963934,28.1577659 32.041377,27.9315975 31.9601311,27.7351294 Z M18.0532459,20.0514497 L20.4590164,17.6407392 L24.4385574,21.6284517 L19.6270164,21.6284517 L18.0532459,20.0514497 Z M23.8782295,24.7346858 C23.3019672,24.8748419 22.6944918,24.7036715 22.2756721,24.2830062 L22.2767213,24.2830062 L20.6767213,22.6797207 L25.1278689,22.6797207 C25.3491148,23.5930021 24.7895738,24.5130513 23.8782295,24.7346858 Z M28.852459,29.8215031 L28.852459,28.4621273 L30.2090492,28.4621273 L28.852459,29.8215031 Z" id="Shape"></path>
                            <path d="M30.9508197,4.80709651 L24.3121311,4.80709651 C18.5922623,4.80900205 12.988459,3.18961807 8.14793443,0.136016427 C7.90255738,-0.0184640657 7.57868852,0.0557207392 7.42452459,0.301601643 C7.27036066,0.547482546 7.34439344,0.872016427 7.58977049,1.02649692 C8.36406557,1.51431622 9.15881967,1.96271047 9.96721311,2.37903901 L9.96721311,6.90976591 C9.96721311,7.20006571 10.2020984,7.43543326 10.4918033,7.43543326 C10.6053115,7.43543326 10.7157377,7.39857084 10.8065574,7.33029979 L14.7535738,4.36395893 C15.6170492,4.64045996 16.4913443,4.87878439 17.3765246,5.07886653 L18.9177705,9.19694456 C18.9828197,9.37107187 19.1348197,9.4977577 19.3175082,9.53021766 C19.348,9.53547433 19.3788852,9.53810267 19.4098361,9.53810267 C19.5628852,9.53810267 19.7083279,9.47108008 19.808,9.35464476 L22.8322623,5.81953183 C23.3243279,5.84266119 23.8174426,5.85843121 24.3121311,5.85843121 L24.3645902,5.85843121 L26.8338361,9.81670637 C26.9864262,10.0635072 27.3098361,10.1395318 27.5560656,9.98662834 C27.624918,9.94385216 27.6829508,9.88570021 27.7256393,9.81670637 L30.1922623,5.85843121 L30.9508197,5.85843121 C31.2405246,5.85843121 31.4754098,5.62306366 31.4754098,5.33276386 C31.4754098,5.04246407 31.2405246,4.80709651 30.9508197,4.80709651 Z M11.0163934,5.85843121 L11.0163934,2.89471869 C11.8473443,3.28371253 12.6914098,3.64011499 13.5506885,3.9539384 L11.0163934,5.85843121 Z M19.5892459,7.99474333 L18.592,5.33276386 C19.5614426,5.51254209 20.5398033,5.64586448 21.527082,5.73279671 L19.5892459,7.99474333 Z M27.2786885,8.54616838 L25.6,5.85843121 L28.957377,5.85843121 L27.2786885,8.54616838 Z" id="Shape"></path>
                            <path d="M15.7377049,13.3229076 C15.448,13.3229076 15.2131148,13.5582752 15.2131148,13.8485749 L15.2131148,15.425577 C15.2131148,15.7158768 15.448,15.9512444 15.7377049,15.9512444 C16.0274098,15.9512444 16.2622951,15.7158768 16.2622951,15.425577 L16.2622951,13.8485749 C16.2622951,13.5582752 16.0274098,13.3229076 15.7377049,13.3229076 Z" id="Path"></path>
                            <path d="M14.6182295,15.5843285 L13.8313443,14.2175934 C13.6864918,13.966193 13.3656393,13.8800493 13.1147541,14.0251992 C12.8638689,14.1703491 12.7779016,14.4918604 12.9227541,14.7432608 L13.7096393,16.1099959 C13.8561311,16.3604764 14.1775738,16.4444517 14.4274754,16.2976591 C14.675082,16.1521807 14.7600656,15.8343491 14.6182295,15.5843285 Z" id="Path"></path>
                            <path d="M14.4262295,22.7502259 C14.1753443,22.605076 13.8544918,22.6912197 13.7096393,22.9426201 L12.9227541,24.3093552 C12.7762623,24.5598357 12.8600656,24.8818727 13.1100328,25.0286653 C13.36,25.1754579 13.681377,25.0914825 13.8278689,24.8410021 C13.8290492,24.8390308 13.8301639,24.8369938 13.8313443,24.8349569 L14.6182295,23.4682218 C14.763082,23.2168871 14.6771148,22.8953758 14.4262295,22.7502259 Z" id="Path"></path>
                            <path d="M15.7377049,23.1003203 C15.448,23.1003203 15.2131148,23.3356879 15.2131148,23.6259877 L15.2131148,25.2029897 C15.2131148,25.4932895 15.448,25.7286571 15.7377049,25.7286571 C16.0274098,25.7286571 16.2622951,25.4932895 16.2622951,25.2029897 L16.2622951,23.6259877 C16.2622951,23.3356879 16.0274098,23.1003203 15.7377049,23.1003203 Z" id="Path"></path>
                            <path d="M18.5521311,24.3093552 L17.7652459,22.9426201 C17.6220984,22.6902341 17.3018361,22.601922 17.0499672,22.7453634 C16.7980984,22.8888049 16.7099672,23.2097248 16.8531148,23.4621109 C16.8542951,23.4641478 16.8554754,23.4661848 16.8566557,23.4682218 L17.643541,24.8349569 C17.7373115,24.9977823 17.9107541,25.0979877 18.0983607,25.0977906 C18.3880656,25.097462 18.6226885,24.8618973 18.6224262,24.5715975 C18.6222951,24.47954 18.5980984,24.3891253 18.5521311,24.3093552 Z" id="Path"></path>
                            <path d="M18.3655082,14.0228337 C18.1156066,13.8759754 17.7941639,13.9599507 17.6476066,14.2103655 C17.6464262,14.2124025 17.6452459,14.2144394 17.6440656,14.2164764 L16.8571803,15.5832115 C16.710623,15.8336263 16.7944262,16.155729 17.0443279,16.3025873 C17.2942295,16.4494456 17.6156721,16.3654702 17.7622295,16.1150554 C17.7634098,16.1130185 17.7645902,16.1109815 17.7657705,16.1089446 L18.5526557,14.7422094 C18.6992131,14.4917947 18.6154098,14.169692 18.3655082,14.0228337 Z" id="Path"></path>
                            <path d="M22.557377,27.4107926 C21.6881967,27.4107926 20.9836066,28.1168296 20.9836066,28.9877947 C20.9836066,29.8587598 21.6881967,30.5647967 22.557377,30.5647967 C23.4265574,30.5647967 24.1311475,29.8587598 24.1311475,28.9877947 C24.1311475,28.1168296 23.4265574,27.4107926 22.557377,27.4107926 Z M22.557377,29.513462 C22.2676721,29.513462 22.0327869,29.2780945 22.0327869,28.9877947 C22.0327869,28.6974949 22.2676721,28.4621273 22.557377,28.4621273 C22.847082,28.4621273 23.0819672,28.6974949 23.0819672,28.9877947 C23.0819672,29.2780945 22.847082,29.513462 22.557377,29.513462 Z" id="Shape"></path>
                            <path d="M5.24590164,15.8461109 C4.37672131,15.8461109 3.67213115,16.5521478 3.67213115,17.4231129 C3.67213115,18.294078 4.37672131,19.000115 5.24590164,19.000115 C6.11508197,19.000115 6.81967213,18.294078 6.81967213,17.4231129 C6.81967213,16.5521478 6.11508197,15.8461109 5.24590164,15.8461109 Z M5.24590164,17.9487803 C4.95619672,17.9487803 4.72131148,17.7134127 4.72131148,17.4231129 C4.72131148,17.1328131 4.95619672,16.8974456 5.24590164,16.8974456 C5.53560656,16.8974456 5.7704918,17.1328131 5.7704918,17.4231129 C5.7704918,17.7134127 5.53560656,17.9487803 5.24590164,17.9487803 Z" id="Shape"></path>
                            <path d="M24.1205246,12.001117 C24.0767869,11.7257988 23.9257049,11.4791294 23.700459,11.315384 L23.6983607,11.315384 C23.2293115,10.9744887 22.5732459,11.0791622 22.2330492,11.5491745 C21.8928525,12.0191869 21.9973115,12.6765996 22.4663607,13.0174949 C22.645377,13.1475975 22.8608525,13.2177084 23.0819672,13.2177741 C23.1380328,13.2178398 23.1939672,13.2134374 23.2493115,13.2046324 C23.8215738,13.1133634 24.2116066,12.5744887 24.1205246,12.001117 Z" id="Path"></path>
                            <ellipse id="Oval" cx="11.5409836" cy="27.93646" rx="1.04918033" ry="1.0513347"></ellipse>
                            <path d="M27.8032787,16.8974456 C27.5135738,16.8974456 27.2786885,17.1328131 27.2786885,17.4231129 L27.2786885,17.9487803 C27.2786885,18.2390801 27.5135738,18.4744476 27.8032787,18.4744476 C28.0929836,18.4744476 28.3278689,18.2390801 28.3278689,17.9487803 L28.3278689,17.4231129 C28.3278689,17.1328131 28.0929836,16.8974456 27.8032787,16.8974456 Z" id="Path"></path>
                            <path d="M27.8032787,14.2691088 C27.5135738,14.2691088 27.2786885,14.5044764 27.2786885,14.7947762 L27.2786885,15.3204435 C27.2786885,15.6107433 27.5135738,15.8461109 27.8032787,15.8461109 C28.0929836,15.8461109 28.3278689,15.6107433 28.3278689,15.3204435 L28.3278689,14.7947762 C28.3278689,14.5044764 28.0929836,14.2691088 27.8032787,14.2691088 Z" id="Path"></path>
                            <path d="M29.3770492,15.8461109 L28.852459,15.8461109 C28.5627541,15.8461109 28.3278689,16.0814784 28.3278689,16.3717782 C28.3278689,16.662078 28.5627541,16.8974456 28.852459,16.8974456 L29.3770492,16.8974456 C29.6667541,16.8974456 29.9016393,16.662078 29.9016393,16.3717782 C29.9016393,16.0814784 29.6667541,15.8461109 29.3770492,15.8461109 Z" id="Path"></path>
                            <path d="M26.7540984,15.8461109 L26.2295082,15.8461109 C25.9398033,15.8461109 25.704918,16.0814784 25.704918,16.3717782 C25.704918,16.662078 25.9398033,16.8974456 26.2295082,16.8974456 L26.7540984,16.8974456 C27.0438033,16.8974456 27.2786885,16.662078 27.2786885,16.3717782 C27.2786885,16.0814784 27.0438033,15.8461109 26.7540984,15.8461109 Z" id="Path"></path>
                            <path d="M17.3114754,30.0391294 C17.0217705,30.0391294 16.7868852,30.2744969 16.7868852,30.5647967 L16.7868852,31.0904641 C16.7868852,31.3807639 17.0217705,31.6161314 17.3114754,31.6161314 C17.6011803,31.6161314 17.8360656,31.3807639 17.8360656,31.0904641 L17.8360656,30.5647967 C17.8360656,30.2744969 17.6011803,30.0391294 17.3114754,30.0391294 Z" id="Path"></path>
                            <path d="M17.3114754,27.4107926 C17.0217705,27.4107926 16.7868852,27.6461602 16.7868852,27.93646 L16.7868852,28.4621273 C16.7868852,28.7524271 17.0217705,28.9877947 17.3114754,28.9877947 C17.6011803,28.9877947 17.8360656,28.7524271 17.8360656,28.4621273 L17.8360656,27.93646 C17.8360656,27.6461602 17.6011803,27.4107926 17.3114754,27.4107926 Z" id="Path"></path>
                            <path d="M18.8852459,28.9877947 L18.3606557,28.9877947 C18.0709508,28.9877947 17.8360656,29.2231622 17.8360656,29.513462 C17.8360656,29.8037618 18.0709508,30.0391294 18.3606557,30.0391294 L18.8852459,30.0391294 C19.1749508,30.0391294 19.4098361,29.8037618 19.4098361,29.513462 C19.4098361,29.2231622 19.1749508,28.9877947 18.8852459,28.9877947 Z" id="Path"></path>
                            <path d="M16.2622951,28.9877947 L15.7377049,28.9877947 C15.448,28.9877947 15.2131148,29.2231622 15.2131148,29.513462 C15.2131148,29.8037618 15.448,30.0391294 15.7377049,30.0391294 L16.2622951,30.0391294 C16.552,30.0391294 16.7868852,29.8037618 16.7868852,29.513462 C16.7868852,29.2231622 16.552,28.9877947 16.2622951,28.9877947 Z" id="Path"></path>
                        </g>
                    </g>
                </g>
            </g>
        </g>
    </g>
</svg>