<?xml version="1.0" encoding="UTF-8"?>
<svg width="50px" height="50px" viewBox="0 0 50 50" version="1.1" xmlns="http://www.w3.org/2000/svg" xmlns:xlink="http://www.w3.org/1999/xlink">
    <!-- Generator: Sketch 52.6 (67491) - http://www.bohemiancoding.com/sketch -->
    <title>Group 9</title>
    <desc>Created with Sketch.</desc>
    <g id="Web" stroke="none" stroke-width="1" fill="none" fill-rule="evenodd">
        <g id="12-Team" transform="translate(-150.000000, -948.000000)">
            <g id="Group-3" transform="translate(150.000000, 723.000000)">
                <g id="Group-7" transform="translate(0.000000, 225.000000)">
                    <g id="Group-9">
                        <circle id="Oval" fill="#FFBA4A" cx="25" cy="25" r="25"></circle>
                        <g id="005-music" transform="translate(9.000000, 9.000000)" fill="#000000" fill-rule="nonzero">
                            <path d="M15.4662667,0.00366666667 C15.4332667,0.00366666667 15.4004,0.0068 15.368,0.0128666667 L6.83466667,1.61286667 C6.58273333,1.66026667 6.4002,1.88026667 6.4,2.1366 L6.4,6.30726667 C5.9164,6.01853333 5.3632,5.86733333 4.8,5.86993333 C3.3296,5.86993333 2.13333333,6.82673333 2.13333333,8.00326667 C2.13333333,9.1798 3.3296,10.1366 4.8,10.1366 C6.2704,10.1366 7.46666667,9.1798 7.46666667,8.00326667 L7.46666667,2.57926667 L14.9333333,1.17926667 L14.9333333,6.30726667 C14.4497333,6.01853333 13.8965333,5.86733333 13.3333333,5.86993333 C11.8629333,5.86993333 10.6666667,6.82673333 10.6666667,8.00326667 C10.6666667,9.1798 11.8629333,10.1366 13.3333333,10.1366 C14.8037333,10.1366 16,9.1798 16,8.00326667 L16,0.5366 C15.9998,0.242066667 15.7608667,0.0034 15.4662667,0.00366666667 Z M4.8,9.06993333 C3.9328,9.06993333 3.2,8.5814 3.2,8.00326667 C3.2,7.42513333 3.9328,6.9366 4.8,6.9366 C5.6672,6.9366 6.4,7.42513333 6.4,8.00326667 C6.4,8.5814 5.6672,9.06993333 4.8,9.06993333 Z M13.3333333,9.06993333 C12.4661333,9.06993333 11.7333333,8.5814 11.7333333,8.00326667 C11.7333333,7.42513333 12.4661333,6.9366 13.3333333,6.9366 C14.2005333,6.9366 14.9333333,7.42513333 14.9333333,8.00326667 C14.9333333,8.5814 14.2005333,9.06993333 13.3333333,9.06993333 Z" id="Shape"></path>
                            <path d="M27.6698667,9.06993333 C26.5456,9.06806667 25.465,9.50513333 24.6581333,10.2880667 L23.1578667,11.7403333 L21.8208,10.4032667 L22.2437333,9.98033333 C22.4484,9.76846667 22.4425333,9.43086667 22.2306667,9.2262 C22.024,9.0266 21.6963333,9.0266 21.4896,9.2262 L19.8896,10.8262 C19.6777333,11.0308667 19.6718667,11.3684667 19.8765333,11.5803333 C20.0812,11.7922 20.4188,11.7980667 20.6306667,11.5934 C20.6351333,11.5891333 20.6394667,11.5847333 20.6437333,11.5803333 L21.0666667,11.1574 L22.3914667,12.4832667 L19.9056,14.8891333 L18.6208,13.6032667 L19.0437333,13.1803333 C19.2484,12.9684667 19.2425333,12.6308667 19.0306667,12.4262 C18.824,12.2266 18.4963333,12.2266 18.2896,12.4262 L16.6896,14.0262 C16.4777333,14.2308667 16.4718667,14.5684667 16.6765333,14.7803333 C16.8812,14.9922 17.2188,14.9980667 17.4306667,14.7934 C17.4351333,14.7891333 17.4394667,14.7847333 17.4437333,14.7803333 L17.8666667,14.3574 L19.1386667,15.6299333 L16.6528,18.0352667 L15.4208,16.8032667 L15.8437333,16.3803333 C16.0483333,16.1684667 16.0424667,15.8308 15.8306,15.6262 C15.6239333,15.4266 15.2962667,15.4266 15.0896,15.6262 L13.4896,17.2262 C13.2777333,17.4308 13.2718667,17.7684667 13.4765333,17.9803333 C13.6811333,18.1922 14.0188,18.1980667 14.2306667,17.9934 C14.2351333,17.9891333 14.2394667,17.9847333 14.2437333,17.9803333 L14.6666667,17.5574 L15.8864,18.7766 L9.2416,25.2075333 C8.70513333,25.7273333 7.84886667,25.7138 7.32906667,25.1774 C6.8208,24.6528667 6.8208,23.8196 7.32906667,23.295 L9.65333333,20.9718 L10.2629333,21.6832667 C10.3596,21.7962 10.4989333,21.8636667 10.6474667,21.8694 L10.6666667,21.8694 C10.8081333,21.8694 10.9437333,21.8131333 11.0437333,21.7131333 L12.6437333,20.1131333 C12.8304667,19.927 12.8531333,19.6323333 12.6970667,19.4198 L6.8304,11.4198 C6.6562,11.1823333 6.3224,11.131 6.08493333,11.3052667 C6.06293333,11.3214 6.0422,11.3392 6.02293333,11.3584667 L3.8896,13.4918 C3.69286667,13.6888 3.6808,14.0040667 3.86186667,14.2155333 L4.7712,15.2768667 L1.98293333,18.0662 C0.709133333,19.3328667 -0.00486666667,21.0565333 1.18424015e-15,22.8528667 L1.18424015e-15,23.3494 C-0.00246666667,27.0866667 3.0252,30.1183333 6.76246667,30.1208667 C8.5572,30.1220667 10.2789333,29.4102 11.5488667,28.1419333 L27.1291333,13.0806 C27.5203333,12.7021333 28.1442667,12.7124 28.5228,13.1036 C28.7007333,13.2875333 28.8002,13.5334667 28.8000667,13.7894 L28.8000667,18.6699333 C28.8001333,18.9644667 29.039,19.2032 29.3335333,19.2031333 C29.377,19.2031333 29.4202667,19.1978 29.4624667,19.1872667 L31.5958,18.6539333 C31.8333333,18.5946667 32,18.3814 32.0000667,18.1366 L32.0000667,13.4000667 C31.9970667,11.0098 30.0601333,9.07286667 27.6698667,9.06993333 Z M6.33653333,12.5531333 L11.5632,19.6827333 L10.6938667,20.5520667 L4.99306667,13.8982 L6.33653333,12.5531333 Z M30.9333333,17.7200667 L29.8666667,17.9867333 L29.8666667,16.0032667 L30.9333333,16.0032667 L30.9333333,17.7200667 Z M30.9333333,14.9366 L29.8666667,14.9366 L29.8666667,13.7894 C29.8669333,12.6559333 28.9482667,11.7369333 27.8148667,11.7366667 C27.2823333,11.7365333 26.7705333,11.9434667 26.3877333,12.3136667 L10.8010667,27.3814 C8.574,29.6082 4.96346667,29.608 2.73666667,27.381 C1.66753333,26.3116667 1.0668,24.8615333 1.06666667,23.3494 L1.06666667,22.8528667 C1.06246667,21.3395333 1.664,19.8874667 2.73706667,18.8203333 L5.46773333,16.0896667 L8.95573333,20.1600667 L6.57493333,22.5408667 C5.63966667,23.4946 5.6546,25.0259333 6.60833333,25.9612 C7.5462,26.8809333 9.04666667,26.8839333 9.98826667,25.9680667 L25.4016,11.055 C26.6974667,9.80226667 28.7634667,9.8372 30.0162,11.1330667 C30.6042,11.7412667 30.9330667,12.5541333 30.9333333,13.4000667 L30.9333333,14.9366 Z" id="Shape"></path>
                            <path d="M29.1770667,28.4262 L23.8437333,23.0928667 C23.6354667,22.8846667 23.2978667,22.8846667 23.0896,23.0928667 C22.8814,23.3011333 22.8814,23.6387333 23.0896,23.847 L28.4229333,29.1803333 C28.6348,29.385 28.9724,29.3791333 29.1770667,29.1672667 C29.3767333,28.9606 29.3767333,28.6328667 29.1770667,28.4262 Z" id="Path"></path>
                            <path d="M22.2437333,21.4928667 L21.7104,20.9595333 C21.4985333,20.7548667 21.1609333,20.7607333 20.9562667,20.9726 C20.7566,21.1792667 20.7566,21.507 20.9562667,21.7136667 L21.4896,22.247 C21.5896,22.347 21.7252,22.4032667 21.8666667,22.4032667 C22.1612,22.4032 22.3999333,22.1644 22.3998667,21.8698 C22.3998667,21.7284 22.3437333,21.5928667 22.2437333,21.4928667 Z" id="Path"></path>
                            <path d="M16.9104,26.2928667 L16.3770667,25.7595333 C16.1652,25.5548667 15.8276,25.5607333 15.6229333,25.7726 C15.4233333,25.9792667 15.4233333,26.3069333 15.6229333,26.5136667 L16.1562667,27.047 C16.2562667,27.147 16.3918667,27.2032667 16.5333333,27.2032667 C16.8278667,27.2032 17.0666,26.9644 17.0665333,26.6698 C17.0665333,26.5284 17.0104,26.3928667 16.9104,26.2928667 Z" id="Path"></path>
                            <path d="M30.2437333,24.6928667 L24.9104,19.3595333 C24.6985333,19.1548667 24.3609333,19.1607333 24.1562667,19.3726 C23.9566,19.5792667 23.9566,19.907 24.1562667,20.1136667 L29.4896,25.447 C29.7014667,25.6516667 30.0390667,25.6458 30.2437333,25.4339333 C30.4434,25.2272667 30.4434,24.8995333 30.2437333,24.6928667 Z" id="Path"></path>
                            <path d="M25.9770667,30.5595333 L19.5770667,24.1595333 C19.3688,23.9513333 19.0312,23.9513333 18.8229333,24.1595333 C18.6147333,24.3678 18.6147333,24.7054 18.8229333,24.9136667 L25.2229333,31.3136667 C25.4348,31.5183333 25.7724,31.5124667 25.9770667,31.3006 C26.1767333,31.0939333 26.1767333,30.7662 25.9770667,30.5595333 Z" id="Path"></path>
                            <path d="M21.7104,31.0928667 L18.5104,27.8928667 C18.3021333,27.6846667 17.9645333,27.6846667 17.7562667,27.8928667 C17.5480667,28.1011333 17.5480667,28.4387333 17.7562667,28.647 L20.9562667,31.847 C21.1681333,32.0516667 21.5057333,32.0458 21.7104,31.8339333 C21.9100667,31.6272667 21.9100667,31.2995333 21.7104,31.0928667 Z" id="Path"></path>
                            <path d="M16.9104,31.0928667 L14.2437333,28.4262 C14.0354667,28.218 13.6978667,28.218 13.4896,28.4262 C13.2814,28.6344667 13.2814,28.9720667 13.4896,29.1803333 L16.1562667,31.847 C16.3681333,32.0516667 16.7057333,32.0458 16.9104,31.8339333 C17.1100667,31.6272667 17.1100667,31.2995333 16.9104,31.0928667 Z" id="Path"></path>
                            <path d="M29.3173333,0.407533333 C29.246,0.121866667 28.9566667,-0.0519333333 28.6709333,0.0192666667 L26.5376,0.5526 C26.3000667,0.611866667 26.1334,0.825133333 26.1333333,1.06993333 L26.1333333,3.91313333 C25.8513333,3.79673333 25.5493333,3.7368 25.2442667,3.7366 C24.1477333,3.7366 23.2890667,4.439 23.2890667,5.3366 C23.2890667,6.2342 24.1477333,6.9366 25.2442667,6.9366 C26.3408,6.9366 27.2,6.2342 27.2,5.3366 L27.2,1.48646667 L28.9290667,1.05393333 C29.2147333,0.9826 29.3885333,0.6932 29.3173333,0.407533333 Z M25.2442667,5.86993333 C24.736,5.86993333 24.3557333,5.58833333 24.3557333,5.3366 C24.3557333,5.08486667 24.736,4.80326667 25.2442667,4.80326667 C25.7525333,4.80326667 26.1333333,5.08486667 26.1333333,5.3366 C26.1333333,5.58833333 25.7530667,5.86993333 25.2442667,5.86993333 Z" id="Shape"></path>
                        </g>
                    </g>
                </g>
            </g>
        </g>
    </g>
</svg>