<?xml version="1.0" encoding="UTF-8"?>
<svg width="50px" height="50px" viewBox="0 0 50 50" version="1.1" xmlns="http://www.w3.org/2000/svg" xmlns:xlink="http://www.w3.org/1999/xlink">
    <!-- Generator: Sketch 52.6 (67491) - http://www.bohemiancoding.com/sketch -->
    <title>Group 11</title>
    <desc>Created with Sketch.</desc>
    <g id="Web" stroke="none" stroke-width="1" fill="none" fill-rule="evenodd">
        <g id="12-Team" transform="translate(-150.000000, -1088.000000)">
            <g id="Group-3" transform="translate(150.000000, 723.000000)">
                <g id="Group-7" transform="translate(0.000000, 365.000000)">
                    <g id="Group-11">
                        <circle id="Oval" fill="#FFBA4A" cx="25" cy="25" r="25"></circle>
                        <g id="004-interface" transform="translate(9.000000, 9.000000)" fill="#000000" fill-rule="nonzero">
                            <path d="M31.9568,10.4565333 L30.3568,6.7232 C30.3246667,6.64813333 30.2755333,6.58146667 30.2133333,6.52853333 L26.48,3.32853333 C26.2685333,3.14746667 25.9532667,3.15953333 25.7562667,3.35626667 L22.5562667,6.55626667 C22.5418667,6.57533333 22.5287333,6.59526667 22.5168,6.616 C22.4868,6.64993333 22.4613333,6.68753333 22.4410667,6.728 L20.7877333,10.7024 C20.7118667,7.18586667 20.1064667,3.70086667 18.992,0.3648 C18.8986667,0.0854 18.5965333,-0.0654 18.3172,0.0279333333 C18.191,0.0700666667 18.0850667,0.157933333 18.0202667,0.274133333 C16.2291333,3.503 15.2883333,7.13426667 15.2864,10.8266667 L15.2864,14.9333333 L13.7317333,14.9333333 L12.0469333,9.24853333 C11.7812,8.55513333 11.306,7.9618 10.6874667,7.55093333 L10.3802667,7.34613333 C8.73026667,6.24686667 6.5016,6.69333333 5.40233333,8.34326667 C5.00973333,8.93253333 4.8002,9.62473333 4.8,10.3328 L4.8,10.5642667 L3.7712,13.1349333 C3.6616,13.4083333 3.79446667,13.7188 4.06786667,13.8284 C4.13106667,13.8537333 4.1986,13.8667333 4.26666667,13.8666667 L6.4,13.8666667 L6.4,14.9333333 L2.66666667,14.9333333 C2.37213333,14.9333333 2.13333333,15.1721333 2.13333333,15.4666667 L2.13333333,17.6 C2.13333333,17.8945333 2.37213333,18.1333333 2.66666667,18.1333333 L7.46666667,18.1333333 L7.46666667,31.4666667 C7.46666667,31.7612 7.70546667,32 8,32 L24,32 C24.2945333,32 24.5333333,31.7612 24.5333333,31.4666667 L24.5333333,18.1333333 L29.3333333,18.1333333 C29.6278667,18.1333333 29.8666667,17.8945333 29.8666667,17.6 L29.8666667,15.4666667 C29.8666667,15.1721333 29.6278667,14.9333333 29.3333333,14.9333333 L24.2277333,14.9333333 L25.9269333,10.2613333 L26.8490667,11.0677333 C26.9462,11.1528667 27.0708667,11.1998667 27.2,11.2 L31.4666667,11.2 C31.7612,11.2 32,10.9611333 31.9999333,10.6666 C31.9999333,10.5944 31.9852667,10.5229333 31.9568,10.4565333 Z M16.3530667,10.8266667 C16.3547333,7.7492 17.0421333,4.71073333 18.3653333,1.93226667 C19.4772667,5.727 19.9176667,9.6868 19.6666667,13.6330667 L19.5856,14.9333333 L16.3530667,14.9333333 L16.3530667,10.8266667 Z M5.0544,12.8 L5.8288,10.8650667 C5.8538,10.8019333 5.86666667,10.7346 5.86666667,10.6666667 L5.86666667,10.3328 C5.86493333,9.66326667 6.13113333,9.02086667 6.60586667,8.5488 C7.45746667,7.7014 8.78753333,7.56966667 9.7888,8.2336 L10.096,8.4384 C10.5208,8.71753333 10.8502,9.11986667 11.04,9.59146667 L12.6192,14.9333333 L7.46666667,14.9333333 L7.46666667,13.3333333 C7.46666667,13.0388 7.22786667,12.8 6.93333333,12.8 L5.0544,12.8 Z M23.4666667,20.2666667 L11.7333333,20.2666667 C11.4388,20.2666667 11.2,20.5054667 11.2,20.8 C11.2,21.0945333 11.4388,21.3333333 11.7333333,21.3333333 L23.4666667,21.3333333 L23.4666667,30.9333333 L8.53333333,30.9333333 L8.53333333,21.3333333 L9.6,21.3333333 C9.89453333,21.3333333 10.1333333,21.0945333 10.1333333,20.8 C10.1333333,20.5054667 9.89453333,20.2666667 9.6,20.2666667 L8.53333333,20.2666667 L8.53333333,18.1333333 L23.4666667,18.1333333 L23.4666667,20.2666667 Z M28.8,16 L28.8,17.0666667 L3.2,17.0666667 L3.2,16 L28.8,16 Z M23.0933333,14.9333333 L20.6544,14.9333333 L20.7312,13.6997333 C20.7312,13.6586667 20.7312,13.6176 20.736,13.576 C20.7429333,13.5626667 20.7530667,13.5525333 20.7589333,13.5386667 L23.1402667,7.82293333 L25.0666667,9.50826667 L23.0933333,14.9333333 Z M27.4005333,10.1333333 L23.7136,6.9072 L26.1616,4.45973333 L29.4256,7.2576 L30.6576,10.1333333 L27.4005333,10.1333333 Z" id="Shape"></path>
                            <circle id="Oval" cx="24" cy="1.06666667" r="1.06666667"></circle>
                            <path d="M10.0669333,2.4104 C10.0180667,2.3212 9.94466667,2.2478 9.85546667,2.19893333 L8.61386667,1.51946667 L7.9344,0.277333333 C7.76973333,0.019 7.42686667,-0.0569333333 7.16853333,0.107733333 C7.10033333,0.1512 7.0424,0.209133333 6.99893333,0.277333333 L6.31946667,1.51946667 L5.07786667,2.19893333 C4.81953333,2.34046667 4.72486667,2.6646 4.8664,2.92293333 C4.91526667,3.01213333 4.98866667,3.08553333 5.07786667,3.1344 L6.31946667,3.81386667 L6.99893333,5.056 C7.14046667,5.31433333 7.4646,5.409 7.72293333,5.26746667 C7.81213333,5.2186 7.88553333,5.1452 7.9344,5.056 L8.61386667,3.81386667 L9.85546667,3.1344 C10.1138,2.99286667 10.2084667,2.66873333 10.0669333,2.4104 Z M7.96533333,2.95306667 C7.8752,3.00213333 7.80106667,3.07626667 7.752,3.1664 L7.46666667,3.68853333 L7.18026667,3.1648 C7.1312,3.07466667 7.05706667,3.00053333 6.96693333,2.95146667 L6.4448,2.66666667 L6.968,2.38026667 C7.05813333,2.3312 7.13226667,2.25706667 7.18133333,2.16693333 L7.46666667,1.6448 L7.75306667,2.16853333 C7.80213333,2.25866667 7.87626667,2.3328 7.9664,2.38186667 L8.48853333,2.66666667 L7.96533333,2.95306667 Z" id="Shape"></path>
                            <path d="M31.4666667,1.6 L30.4,1.6 L30.4,0.533333333 C30.4,0.2388 30.1612,0 29.8666667,0 C29.5721333,0 29.3333333,0.2388 29.3333333,0.533333333 L29.3333333,1.6 L28.2666667,1.6 C27.9721333,1.6 27.7333333,1.8388 27.7333333,2.13333333 C27.7333333,2.42786667 27.9721333,2.66666667 28.2666667,2.66666667 L29.3333333,2.66666667 L29.3333333,3.73333333 C29.3333333,4.02786667 29.5721333,4.26666667 29.8666667,4.26666667 C30.1612,4.26666667 30.4,4.02786667 30.4,3.73333333 L30.4,2.66666667 L31.4666667,2.66666667 C31.7612,2.66666667 32,2.42786667 32,2.13333333 C32,1.8388 31.7612,1.6 31.4666667,1.6 Z" id="Path"></path>
                            <path d="M3.73333333,5.86666667 L2.66666667,5.86666667 L2.66666667,4.8 C2.66666667,4.50546667 2.42786667,4.26666667 2.13333333,4.26666667 C1.8388,4.26666667 1.6,4.50546667 1.6,4.8 L1.6,5.86666667 L0.533333333,5.86666667 C0.2388,5.86666667 0,6.10546667 0,6.4 C0,6.69453333 0.2388,6.93333333 0.533333333,6.93333333 L1.6,6.93333333 L1.6,8 C1.6,8.29453333 1.8388,8.53333333 2.13333333,8.53333333 C2.42786667,8.53333333 2.66666667,8.29453333 2.66666667,8 L2.66666667,6.93333333 L3.73333333,6.93333333 C4.02786667,6.93333333 4.26666667,6.69453333 4.26666667,6.4 C4.26666667,6.10546667 4.02786667,5.86666667 3.73333333,5.86666667 Z" id="Path"></path>
                            <path d="M5.86666667,22.9333333 L4.8,22.9333333 L4.8,21.8666667 C4.8,21.5721333 4.5612,21.3333333 4.26666667,21.3333333 C3.97213333,21.3333333 3.73333333,21.5721333 3.73333333,21.8666667 L3.73333333,22.9333333 L2.66666667,22.9333333 C2.37213333,22.9333333 2.13333333,23.1721333 2.13333333,23.4666667 C2.13333333,23.7612 2.37213333,24 2.66666667,24 L3.73333333,24 L3.73333333,25.0666667 C3.73333333,25.3612 3.97213333,25.6 4.26666667,25.6 C4.5612,25.6 4.8,25.3612 4.8,25.0666667 L4.8,24 L5.86666667,24 C6.1612,24 6.4,23.7612 6.4,23.4666667 C6.4,23.1721333 6.1612,22.9333333 5.86666667,22.9333333 Z" id="Path"></path>
                            <circle id="Oval" cx="26.6666667" cy="27.7333333" r="1.06666667"></circle>
                            <circle id="Oval" cx="1.06666667" cy="20.2666667" r="1.06666667"></circle>
                            <path d="M31.9336,22.6749333 C31.8847333,22.5857333 31.8113333,22.5123333 31.7221333,22.4634667 L31.7221333,22.4656 L30.136,21.6 L29.2677333,20.0106667 C29.1030667,19.7523333 28.7602,19.6764 28.5018667,19.8410667 C28.4336667,19.8845333 28.3757333,19.9424667 28.3322667,20.0106667 L27.4666667,21.6 L25.8805333,22.4677333 C25.6222,22.6092667 25.5275333,22.9334 25.6690667,23.1917333 C25.7179333,23.2809333 25.7913333,23.3543333 25.8805333,23.4032 L27.4666667,24.2666667 L28.3349333,25.8538667 C28.4764667,26.1122 28.8006,26.2068667 29.0589333,26.0653333 C29.1481333,26.0164667 29.2215333,25.9430667 29.2704,25.8538667 L30.136,24.2666667 L31.7221333,23.3989333 C31.9804667,23.2574 32.0751333,22.9332667 31.9336,22.6749333 Z M29.4869333,23.408 C29.3966667,23.4569333 29.3225333,23.5310667 29.2736,23.6213333 L28.8,24.4885333 L28.3248,23.6202667 C28.2758667,23.53 28.2017333,23.4558667 28.1114667,23.4069333 L27.2448,22.9333333 L28.1130667,22.4586667 C28.2033333,22.4097333 28.2774667,22.3356 28.3264,22.2453333 L28.8,21.3781333 L29.2752,22.2464 C29.3241333,22.3366667 29.3982667,22.4108 29.4885333,22.4597333 L30.3568,22.9344 L29.4869333,23.408 Z" id="Shape"></path>
                            <path d="M9.97706667,10.2896 C9.17926667,9.49333333 7.8874,9.49333333 7.0896,10.2896 C6.885,10.5014667 6.89086667,10.8391333 7.10273333,11.0437333 C7.3094,11.2433333 7.63706667,11.2433333 7.84373333,11.0437333 C8.22486667,10.6636 8.8418,10.6636 9.22293333,11.0437333 C9.4348,11.2483333 9.77246667,11.2424667 9.97706667,11.0306 C10.1766667,10.8239333 10.1766667,10.4962667 9.97706667,10.2896 Z" id="Path"></path>
                        </g>
                    </g>
                </g>
            </g>
        </g>
    </g>
</svg>