<?xml version="1.0" encoding="UTF-8"?>
<svg width="24px" height="21px" viewBox="0 0 24 21" version="1.1" xmlns="http://www.w3.org/2000/svg" xmlns:xlink="http://www.w3.org/1999/xlink">
    <!-- Generator: Sketch 52.6 (67491) - http://www.bohemiancoding.com/sketch -->
    <title>002-sign</title>
    <desc>Created with Sketch.</desc>
    <g id="Web" stroke="none" stroke-width="1" fill="none" fill-rule="evenodd">
        <g id="4-User-profile-3---2" transform="translate(-893.000000, -672.000000)" fill="#000000" fill-rule="nonzero">
            <g id="Group-10" transform="translate(410.000000, 135.000000)">
                <g id="Group-5" transform="translate(92.000000, 522.000000)">
                    <g id="002-sign" transform="translate(391.000000, 15.000000)">
                        <path d="M18.4151719,12.0165937 L17.5585781,12.0165937 C17.4334688,12.0165937 17.3308125,12.0566719 17.2509375,12.1372031 C17.1704062,12.2172656 17.1303281,12.319875 17.1303281,12.4448437 L17.1303281,16.7273906 C17.1303281,17.3162812 16.9207969,17.8202812 16.5015,18.2396719 C16.0822031,18.6589687 15.5780156,18.8684531 14.989125,18.8684531 L3.85425,18.8684531 C3.26540625,18.8684531 2.76126563,18.6589687 2.341875,18.2396719 C1.92257812,17.8203281 1.71295312,17.3163281 1.71295312,16.7273906 L1.71295312,5.59265625 C1.71295312,5.0038125 1.92253125,4.49985938 2.341875,4.08051562 C2.76126562,3.661125 3.26540625,3.45154688 3.85425,3.45154688 L13.2758437,3.45154688 C13.4009531,3.45154688 13.5036094,3.41128125 13.5838125,3.33107813 C13.6640156,3.25078125 13.7040937,3.14826563 13.7040937,3.02325 L13.7040937,2.16660938 C13.7040937,2.04182812 13.6640156,1.939125 13.5838125,1.85896875 C13.5036094,1.77867188 13.4009531,1.73859375 13.2758437,1.73859375 L3.85425,1.73859375 C2.792625,1.73859375 1.88475,2.1155625 1.13071875,2.86945312 C0.37696875,3.62329687 0,4.53117187 0,5.59279687 L0,16.7275781 C0,17.7891563 0.37696875,18.6971719 1.13076562,19.4507812 C1.88479687,20.2047188 2.79267187,20.581875 3.85429687,20.581875 L14.989125,20.581875 C16.0507031,20.581875 16.9586719,20.2047188 17.7126094,19.4507812 C18.4665938,18.6971719 18.8435625,17.7892031 18.8435625,16.7275781 L18.8435625,12.4451719 C18.8435625,12.3200625 18.8034375,12.2174062 18.7229063,12.1372031 C18.6426094,12.0566719 18.5399531,12.0165937 18.4151719,12.0165937 Z" id="Path"></path>
                        <path d="M23.7280781,0.279890625 C23.5585313,0.11034375 23.3575313,0.025640625 23.1257344,0.025640625 L16.2736406,0.025640625 C16.0417031,0.025640625 15.8408437,0.11034375 15.6714375,0.279890625 C15.5018906,0.44934375 15.417,0.650109375 15.417,0.88209375 C15.417,1.11407813 15.5018906,1.31489063 15.6714375,1.4844375 L18.0267656,3.8398125 L9.301125,12.5656406 C9.21178125,12.6548437 9.16725,12.7575 9.16725,12.8732812 C9.16725,12.9894844 9.21192187,13.0920938 9.301125,13.1812969 L10.8268125,14.7067969 C10.9160156,14.796 11.0186719,14.8404844 11.1346406,14.8404844 C11.2506094,14.8404844 11.3533125,14.7960469 11.4424687,14.7067969 L20.1681562,5.98110938 L22.5236719,8.33648437 C22.6930781,8.50603125 22.8938906,8.59082812 23.125875,8.59082812 C23.3578594,8.59082812 23.5586719,8.50603125 23.7282656,8.33648437 C23.8978125,8.16698438 23.9825156,7.96626563 23.9825156,7.73428125 L23.9825156,0.88209375 C23.9824687,0.64996875 23.8974844,0.44934375 23.7280781,0.279890625 Z" id="Path"></path>
                    </g>
                </g>
            </g>
        </g>
    </g>
</svg>