<?xml version="1.0" encoding="UTF-8"?>
<svg width="14px" height="24px" viewBox="0 0 14 24" version="1.1" xmlns="http://www.w3.org/2000/svg" xmlns:xlink="http://www.w3.org/1999/xlink">
    <!-- Generator: Sketch 52.6 (67491) - http://www.bohemiancoding.com/sketch -->
    <title>angle-arrow-pointing-to-right</title>
    <desc>Created with Sketch.</desc>
    <g id="Web" stroke="none" stroke-width="1" fill="none" fill-rule="evenodd">
        <g id="2-Catalog-(4)" transform="translate(-1275.000000, -176.000000)" fill="#000000" fill-rule="nonzero">
            <g id="Group-8" transform="translate(539.000000, 174.000000)">
                <g id="Group-4" transform="translate(586.000000, 0.000000)">
                    <g id="angle-arrow-pointing-to-right" transform="translate(150.000000, 2.000000)">
                        <path d="M13.7853474,11.4442105 L2.58122105,0.240589474 C2.42088421,0.0804210526 2.23637895,0 2.02812632,0 C1.81978947,0 1.63536842,0.0804210526 1.47511579,0.240589474 L0.273178947,1.44277895 C0.112673684,1.60303158 0.0327578947,1.78711579 0.0327578947,1.99578947 C0.0327578947,2.20446316 0.112673684,2.38854737 0.273178947,2.5488 L9.72193684,11.9975579 L0.273178947,21.4464842 C0.112673684,21.6067368 0.0327578947,21.7911579 0.0327578947,21.9992421 C0.0327578947,22.2078316 0.112673684,22.3922526 0.273178947,22.5525053 L1.4752,23.7542737 C1.63545263,23.9146947 1.81987368,23.9946105 2.02821053,23.9946105 C2.23646316,23.9946105 2.42088421,23.9145263 2.58122105,23.7542737 L13.7847579,12.5505684 C13.9449263,12.3904 14.0250947,12.2058947 14.0250947,11.9975579 C14.0250947,11.7892211 13.9455158,11.6048 13.7853474,11.4442105 Z" id="Path"></path>
                    </g>
                </g>
            </g>
        </g>
    </g>
</svg>