<?xml version="1.0" encoding="UTF-8"?>
<svg width="43px" height="41px" viewBox="0 0 43 41" version="1.1" xmlns="http://www.w3.org/2000/svg" xmlns:xlink="http://www.w3.org/1999/xlink">
    <!-- Generator: Sketch 52.6 (67491) - http://www.bohemiancoding.com/sketch -->
    <title>Rectangle</title>
    <desc>Created with Sketch.</desc>
    <defs>
        <linearGradient x1="50%" y1="0%" x2="50%" y2="100%" id="linearGradient-1">
            <stop stop-color="#0D86FF" offset="0%"></stop>
            <stop stop-color="#0080FF" offset="100%"></stop>
        </linearGradient>
    </defs>
    <g id="Symbols" stroke="none" stroke-width="1" fill="none" fill-rule="evenodd">
        <g id="icon/offer" transform="translate(-4.000000, -5.000000)">
            <g id="Rectangle" transform="translate(4.000000, 5.000000)">
                <g id="Mask" fill="#000000" fill-rule="nonzero">
                    <path d="M42.922272,33.376985 C42.7205125,32.4120346 42.1496809,31.5875888 41.3147577,31.0552361 C40.4798345,30.5232094 39.4880965,30.3514091 38.5209634,30.571131 L34.0389511,31.5908488 L34.0389511,29.7701569 C34.9378468,28.9287593 35.8738139,27.8301502 36.539456,26.8260802 C37.7067082,25.0653716 38.5327738,23.1318849 38.9946881,21.0803873 C39.5438674,18.6396496 39.5556777,16.0557992 39.0284787,13.6072376 C38.9313717,13.1567101 38.4848763,12.869181 38.0314917,12.966002 C37.577779,13.0621711 37.2890826,13.5058526 37.3858615,13.9567062 C37.8628667,16.1712021 37.8523687,18.5085989 37.3553515,20.7159229 C36.9380539,22.5695405 36.19138,24.3165571 35.1366538,25.9077473 C34.8240087,26.3794646 34.4447664,26.8743277 34.0389511,27.347023 L34.0389511,18.0965389 C34.0389511,17.6355796 33.6629896,17.2619872 33.1991069,17.2619872 L26.5554799,17.2619872 L26.5554799,8.34988789 C26.5554799,7.89023242 26.1811588,7.51696615 25.7185884,7.51533619 L18.2351172,7.49023438 C18.234133,7.49023438 18.2334769,7.49023438 18.2324927,7.49023438 C18.0100652,7.49023438 17.7968235,7.57760159 17.6396808,7.73375397 C17.4815539,7.89023242 17.3926485,8.10278231 17.3926485,8.32478608 L17.3926485,12.960786 L10.7480374,12.960786 C10.2844827,12.960786 9.90819316,13.3343783 9.90819316,13.7953378 L9.90819316,22.0596816 L8.03691529,22.0596816 L8.03691529,20.9261908 C8.03691529,20.4655574 7.66095383,20.0919651 7.19707109,20.0919651 L6.3355747,20.0919651 C6.18893001,19.2896871 6.10396146,18.4746952 6.08394948,17.6610073 C6.0347399,15.682533 6.35033756,13.7467642 7.02155684,11.9068385 C7.17804341,11.4778267 7.35585422,11.050119 7.54974007,10.6361031 C7.74559434,10.2181753 7.56319076,9.72168225 7.14294053,9.52706213 C6.72236234,9.33309412 6.22272063,9.51369628 6.02719441,9.93162417 C5.81231237,10.3899756 5.61547389,10.8633229 5.44258415,11.3379741 C4.69984693,13.3738239 4.35078669,15.5152967 4.40458912,17.7020829 C4.4246011,18.501427 4.50136806,19.301423 4.63160959,20.0919651 L0.839844202,20.0919651 C0.375961464,20.0919651 0,20.4655574 0,20.9265168 L0,35.595719 C0,36.0566785 0.375961464,36.4302707 0.839844202,36.4302707 L7.19707109,36.4302707 C7.66095383,36.4302707 8.03691529,36.0566785 8.03691529,35.595719 L8.03691529,34.8022429 L11.196173,34.8022429 L23.9936271,39.7899933 C25.1884367,40.2558427 26.4400014,40.4902344 27.6981274,40.4902344 C28.5369874,40.4902344 29.3794561,40.3859154 30.2091304,40.1762995 L40.2396914,37.6429786 C42.1437758,37.1621334 43.321854,35.288304 42.922272,33.376985 Z M32.3595908,18.9310907 L32.3595908,31.972917 L30.1143198,32.483754 C29.8728645,32.5385214 29.6287848,32.581879 29.3833929,32.6157826 C28.4477539,32.7438993 27.4930873,32.7168416 26.5672903,32.5346094 C26.5633535,32.5336315 26.5594168,32.5329794 26.5554799,32.5320014 L26.5554799,31.266482 C27.1958612,30.3171795 27.4081187,29.1135994 27.072509,28.0149903 C26.9790108,27.7085534 26.8461448,27.4128744 26.6771918,27.1400151 C26.6388083,27.0780757 26.5987845,27.0174403 26.5571203,26.9581089 C26.5567923,26.9571309 26.5561361,26.9564789 26.5554799,26.9555009 L26.5554799,18.9307647 L32.3595908,18.9307647 L32.3595908,18.9310907 Z M19.0723369,9.16227181 L24.8761197,9.18150564 L24.8761197,25.6299981 L21.6325495,24.2960193 L19.0723369,23.2427238 L19.0723369,9.16227181 Z M11.5878816,14.6298895 L17.3916643,14.6298895 L17.3916643,22.5512846 L16.3500607,22.1229249 C16.2480328,22.0808714 16.1387873,22.0593556 16.0288859,22.0593556 L11.5878816,22.0593556 L11.5878816,14.6298895 Z M6.35722689,34.7611673 L1.6796884,34.7611673 L1.6796884,21.7607425 L5.64204715,21.7607425 C5.64368745,21.7607425 5.64565579,21.7610685 5.64762422,21.7610685 C5.64926452,21.7610685 5.65057677,21.7607425 5.65221707,21.7607425 L6.35722689,21.7607425 L6.35722689,34.7611673 Z M39.8260026,36.0253828 L29.7954415,38.5587035 C28.0639189,38.9958652 26.2697361,38.8840483 24.606779,38.2362927 L11.6616961,33.1908409 C11.5639329,33.1526992 11.4599366,33.1334655 11.3549561,33.1334655 L8.03691529,33.1334655 L8.03691529,23.728785 L15.8615732,23.728785 L21.2956276,25.9638188 L24.269201,27.1869586 C25.3213027,27.6205343 25.8248812,28.846934 25.3934768,29.8911017 C25.3068679,30.1007176 25.1995909,30.2999017 25.0572111,30.4775699 C24.5313242,31.1370613 23.6655629,31.4278505 22.8559006,31.2322524 C22.8493394,31.2306223 22.8427781,31.2289924 22.8362168,31.2273624 C22.7876633,31.2153006 22.7394379,31.2012827 22.6915405,31.1856348 L17.0406357,29.0268843 C16.9947067,29.0092805 16.97043,29.0001526 16.97043,29.0001526 C16.5377133,28.8345462 16.0518504,29.0493781 15.8851938,29.4796938 C15.7188652,29.9096836 15.9347315,30.3928107 16.3677761,30.5580911 C16.3677761,30.5580911 19.5539351,31.775363 21.9835781,32.7064097 C22.0324597,32.7253176 22.0810132,32.7429213 22.1298947,32.7592212 L23.9955955,33.4721761 C24.5595378,33.68766 25.1208555,33.9021658 25.7077622,34.0511464 C26.7044211,34.3041199 27.7388073,34.4058309 28.7663042,34.3500854 C29.3456655,34.3187897 29.9240426,34.2392465 30.4896251,34.1108037 L33.3867596,33.4519643 C33.3897121,33.4513124 33.3926648,33.4500083 33.3956173,33.4493563 L38.8959407,32.1981807 C39.419203,32.0791919 39.956244,32.172101 40.4076603,32.4599561 C40.8597327,32.7481373 41.168441,33.1944268 41.2776864,33.7166737 C41.4942087,34.7510614 40.856452,35.7652373 39.8260026,36.0253828 Z" id="Shape"></path>
                    <path d="M10.8498053,6.49023438 C11.0529169,6.49023438 11.2566922,6.41839784 11.4189823,6.27274749 C12.9350175,4.91312496 14.7454317,3.82865623 16.6554104,3.13632299 C18.7246921,2.38632267 20.9931029,2.06635339 23.215714,2.21134465 C24.8064227,2.31514515 26.3649387,2.65224984 27.8477856,3.21310243 C28.2858694,3.37885383 28.7770541,3.16070785 28.9439906,2.72507506 C29.1112589,2.2897717 28.8912214,1.80240342 28.452474,1.63665203 C26.8116513,1.01582582 25.0871945,0.642802857 23.3272263,0.527798364 C20.8706386,0.367648971 18.3619455,0.721559494 16.0726262,1.55163438 C13.959536,2.31745185 11.9566305,3.51725449 10.2802965,5.02055026 C9.93182083,5.33294051 9.9046065,5.86644246 10.2192303,6.21211478 C10.3868305,6.39664911 10.6178201,6.49023438 10.8498053,6.49023438 Z" id="Path"></path>
                    <path d="M29.3028127,12.2767043 C29.4695246,12.4200794 29.6750787,12.4902344 29.8796015,12.4902344 C30.1253727,12.4902344 30.3701127,12.388748 30.5443868,12.190543 L37.7841525,3.9337047 C38.1031394,3.57032887 38.0639536,3.01964596 37.6971873,2.70394831 C37.3300774,2.38825065 36.7746001,2.42673382 36.4559569,2.79010965 L29.2158475,11.0469479 C28.8968606,11.4103238 28.9360464,11.9610067 29.3028127,12.2767043 Z" id="Path"></path>
                    <path d="M36,8.49023438 C34.8971527,8.49023438 34,9.38738702 34,10.4902344 C34,11.5930817 34.8971527,12.4902344 36,12.4902344 C37.1028474,12.4902344 38,11.5927706 38,10.4902344 C38,9.38738702 37.1028474,8.49023438 36,8.49023438 Z M36,10.896956 C35.775634,10.896956 35.5932784,10.7146003 35.5932784,10.4902344 C35.5932784,10.2661796 35.775634,10.0835127 36,10.0835127 C36.2240548,10.0835127 36.4067216,10.2661796 36.4067216,10.4902344 C36.4067216,10.7146003 36.2240548,10.896956 36,10.896956 Z" id="Shape"></path>
                    <path d="M31,6.49023437 C32.1028474,6.49023437 33,5.59308179 33,4.49023441 C33,3.38738704 32.1028474,2.49023438 31,2.49023438 C29.8971527,2.49023438 29,3.38738704 29,4.49023441 C29,5.59308179 29.8971527,6.49023437 31,6.49023437 Z M31,4.08320158 C31.224366,4.08320158 31.4067216,4.26586848 31.4067216,4.49023441 C31.4067216,4.71428919 31.224366,4.896956 31,4.896956 C30.775634,4.896956 30.5932784,4.71428919 30.5932784,4.49023441 C30.5932784,4.26586848 30.775634,4.08320158 31,4.08320158 Z" id="Shape"></path>
                    <path d="M8.07485184,7.87178297 C8.23530363,8.25661511 8.63017143,8.51082328 9.04851997,8.48892226 C9.46217236,8.46741241 9.82455853,8.18778334 9.95252851,7.79512942 C10.0816726,7.39895571 9.94078818,6.9476383 9.60931834,6.69460342 C9.27158707,6.43726644 8.79727597,6.42123179 8.44349945,6.65627659 C8.05097978,6.91713336 7.89365875,7.43728244 8.07485184,7.87178297 Z" id="Path"></path>
                </g>
                <rect fill="url(#linearGradient-1)" x="-4" y="-5" width="52" height="51"></rect>
            </g>
        </g>
    </g>
</svg>