<?xml version="1.0" encoding="UTF-8"?>
<svg width="63px" height="58px" viewBox="0 0 63 58" version="1.1" xmlns="http://www.w3.org/2000/svg" xmlns:xlink="http://www.w3.org/1999/xlink">
    <!-- Generator: Sketch 52.6 (67491) - http://www.bohemiancoding.com/sketch -->
    <title>Button</title>
    <desc>Created with Sketch.</desc>
    <g id="Symbols" stroke="none" stroke-width="1" fill="none" fill-rule="evenodd">
        <g id="Footer" transform="translate(-1227.000000, -138.000000)">
            <g transform="translate(150.000000, 0.000000)" id="Group-15">
                <g transform="translate(744.000000, 138.000000)">
                    <g id="Button" transform="translate(333.000000, 0.000000)">
                        <rect id="Rectangle" fill="#FFC240" x="0" y="0" width="63" height="58" rx="10"></rect>
                        <g id="arrow-pointing-to-right" transform="translate(20.000000, 17.000000)" fill="#000000" fill-rule="nonzero">
                            <path d="M22.1110652,10.6091865 L12.0868854,0.585060674 C11.6971146,0.194966292 11.2297888,0 10.6857169,0 C10.1517843,0 9.68990562,0.194966292 9.29981124,0.585060674 L8.14506067,1.73986517 C7.75491236,2.10946517 7.55989213,2.57139775 7.55989213,3.12577079 C7.55989213,3.68003596 7.75491236,4.14196854 8.14506067,4.5116764 L12.6566831,9.03861573 L1.81628764,9.03861573 C1.28262472,9.03861573 0.848898876,9.23104719 0.51527191,9.61607191 C0.181644944,10.0010966 0.0148314607,10.465618 0.0148314607,11.0095281 L0.0148314607,12.9805483 C0.0148314607,13.5246202 0.181698876,13.9889798 0.51527191,14.3740045 C0.848844944,14.7590292 1.28262472,14.9512989 1.81628764,14.9512989 L12.6564674,14.9512989 L8.14489888,19.463191 C7.75475056,19.8530157 7.55973034,20.3201798 7.55973034,20.8644135 C7.55973034,21.4085393 7.75475056,21.8756494 8.14489888,22.2654742 L9.29964944,23.4202787 C9.70015281,23.8001258 10.1620315,23.9900225 10.6855551,23.9900225 C11.2194337,23.9900225 11.6866517,23.8001258 12.0867775,23.4202787 L22.1109034,13.3961528 C22.4907506,13.0163056 22.680809,12.5493573 22.680809,11.9949303 C22.680809,11.430418 22.4907506,10.9682697 22.1110652,10.6091865 Z" id="Path"></path>
                        </g>
                    </g>
                </g>
            </g>
        </g>
    </g>
</svg>