<svg width="22" height="33" viewBox="0 0 22 33" fill="none" xmlns="http://www.w3.org/2000/svg">
<path d="M21.5766 29.0315V32.1393C21.5766 32.4298 21.3411 32.6654 21.0505 32.6654C20.76 32.6654 20.5244 32.4298 20.5244 32.1393V29.0315C20.5244 26.6118 18.5663 24.6536 16.1464 24.6536C15.0014 24.6536 13.9625 24.0703 13.3674 23.0931C13.2162 22.845 13.2948 22.5213 13.543 22.3702C13.791 22.2189 14.1148 22.2976 14.266 22.5459C14.6686 23.2068 15.3716 23.6014 16.1464 23.6014C19.1477 23.6013 21.5766 26.03 21.5766 29.0315ZM11.7697 23.3558C10.6684 23.5958 9.55057 23.3522 8.66376 22.7433C8.81587 22.4068 8.90932 22.0446 8.93898 21.6694C13.4485 22.9968 17.9597 19.5932 17.9597 14.918C17.9597 10.4559 17.9651 10.527 17.947 10.344C17.8778 9.61885 16.83 9.7175 16.8999 10.4472C16.9117 10.5665 16.9075 10.6709 16.9075 14.9179C16.9075 18.2177 14.2229 20.9023 10.923 20.9023C7.6232 20.9023 4.93863 18.2177 4.93863 14.9179C4.93863 13.7327 4.926 12.8149 4.92186 12.1267C4.9112 10.4001 6.50786 9.08815 8.23565 9.50232C10.6724 10.0866 11.6545 11.6065 14.7779 11.4611C15.0681 11.4475 15.2923 11.2012 15.2787 10.9109C15.2651 10.6207 15.0203 10.3979 14.7285 10.41C11.9128 10.5424 11.1324 9.11504 8.48101 8.47918C6.08382 7.90415 3.85499 9.72802 3.86965 12.1332C3.8732 12.6926 3.88057 13.3053 3.88425 14.0598C3.534 13.8772 3.29449 13.515 3.29449 13.0983C3.29449 13.0863 3.29456 10.3656 3.29436 10.3536C3.26799 9.16114 3.43785 6.16479 5.57988 4.09997C7.97305 1.79314 11.7174 1.79229 14.6287 2.80707L14.2082 2.98016C13.7061 3.18672 13.811 3.93175 14.3524 3.98975L15.2771 4.08879C17.0569 4.27937 18.6309 5.20748 19.6393 6.64966C18.9775 7.45387 18.6172 8.45492 18.6172 9.50955V13.0982C18.6172 13.3888 18.8528 13.6243 19.1433 13.6243C19.4339 13.6243 19.6694 13.3888 19.6694 13.0982V9.50955C19.6694 8.59525 20.0225 7.7335 20.6636 7.08317C20.8421 6.90232 20.864 6.61047 20.7395 6.40956C19.6906 4.72741 18.1298 3.6443 16.3485 3.20987C16.6366 2.96405 16.58 2.50733 16.2464 2.33864C14.717 1.56613 12.5352 1.02385 10.459 1.10375C5.20635 1.30735 2.13161 5.2301 2.24242 10.371V13.0984C2.24242 14.1049 2.9466 14.9507 3.89181 15.1778C3.98987 17.865 5.60158 20.1723 7.89802 21.2704V21.4088C7.89802 22.6217 6.91519 23.6015 5.69976 23.6015C2.69223 23.6015 0.269531 26.0361 0.269531 29.0316V32.1393C0.269531 32.4299 0.505094 32.6654 0.795634 32.6654C1.08617 32.6654 1.32174 32.4299 1.32174 32.1393V29.0316C1.32174 26.612 3.27982 24.6537 5.69976 24.6537C6.59565 24.6537 7.44879 24.2946 8.07985 23.6183C9.20144 24.3839 10.6097 24.6856 11.9938 24.3839C12.2777 24.3221 12.4577 24.0418 12.3958 23.7579C12.3339 23.4739 12.0534 23.2937 11.7697 23.3558ZM16.2498 29.9691H14.6715C14.381 29.9691 14.1454 30.2047 14.1454 30.4952C14.1454 30.7857 14.381 31.0213 14.6715 31.0213H16.2498C16.5404 31.0213 16.7759 30.7857 16.7759 30.4952C16.7759 30.2047 16.5404 29.9691 16.2498 29.9691Z" fill="#2b2727" stroke="#2b2727" stroke-width="0.5"/>
</svg>
