<?xml version="1.0" encoding="UTF-8"?>
<svg width="34px" height="26px" viewBox="0 0 34 26" version="1.1" xmlns="http://www.w3.org/2000/svg" xmlns:xlink="http://www.w3.org/1999/xlink">
    <!-- Generator: Sketch 52.6 (67491) - http://www.bohemiancoding.com/sketch -->
    <title>correct-symbol</title>
    <desc>Created with Sketch.</desc>
    <g id="Symbols" stroke="none" stroke-width="1" fill="none" fill-rule="evenodd">
        <g id="Orders-star-done" transform="translate(-1076.000000, -30.000000)" fill="#0CBC2A" fill-rule="nonzero">
            <g id="Group-5">
                <g id="Group-4">
                    <g id="correct-symbol" transform="translate(1076.000000, 30.000000)">
                        <path d="M33.3858172,3.5891066 L30.4026454,0.61271073 C29.9936002,0.204288014 29.4961232,0 28.9113668,0 C28.3260726,0 27.8285956,0.204288014 27.4195504,0.61271073 L13.0296722,14.9915973 L6.58060296,8.53525288 C6.17109678,8.12667685 5.67392708,7.9226188 5.0891707,7.9226188 C4.50403016,7.9226188 4.00686046,8.12667685 3.59735429,8.53525288 L0.614182439,11.5117254 C0.204676259,11.9202248 0,12.4164185 0,13.0001533 C0,13.5834282 0.204676259,14.0800818 0.614182439,14.4885046 L8.55468397,22.4108167 L11.5380863,25.3872126 C11.947362,25.795942 12.4446854,26 13.0296722,26 C13.6144286,26 14.111752,25.7954054 14.5212582,25.3872126 L17.5045837,22.4108167 L33.3858172,6.56573245 C33.7949392,6.15715642 33.9999997,5.66103934 33.9999997,5.07730454 C34.000307,4.49387637 33.7949392,3.99768263 33.3858172,3.5891066 Z" id="Path"></path>
                    </g>
                </g>
            </g>
        </g>
    </g>
</svg>