<?xml version="1.0" encoding="UTF-8"?>
<svg width="20px" height="20px" viewBox="0 0 20 20" version="1.1" xmlns="http://www.w3.org/2000/svg" xmlns:xlink="http://www.w3.org/1999/xlink">
    <!-- Generator: Sketch 63.1 (92452) - https://sketch.com -->
    <title>ic_check_circle</title>
    <desc>Created with Sketch.</desc>
    <g id="Web" stroke="none" stroke-width="1" fill="none" fill-rule="evenodd">
        <g id="2-Registration-3" transform="translate(-577.000000, -601.000000)">
            <g id="Group-2" transform="translate(150.000000, 560.000000)">
                <g id="Group-4" transform="translate(0.000000, 31.000000)">
                    <g id="ic_check_circle" transform="translate(425.000000, 8.000000)">
                        <g id="Icon-24px">
                            <polygon id="Shape" points="0 0 24 0 24 24 0 24"></polygon>
                            <path d="M12,2 C6.48,2 2,6.48 2,12 C2,17.52 6.48,22 12,22 C17.52,22 22,17.52 22,12 C22,6.48 17.52,2 12,2 L12,2 Z M10,17 L5,12 L6.41,10.59 L10,14.17 L17.59,6.58 L19,8 L10,17 L10,17 Z" id="Shape" fill="#0CBC2A"></path>
                        </g>
                    </g>
                </g>
            </g>
        </g>
    </g>
</svg>