<?xml version="1.0" encoding="UTF-8"?>
<svg width="24px" height="24px" viewBox="0 0 24 24" version="1.1" xmlns="http://www.w3.org/2000/svg" xmlns:xlink="http://www.w3.org/1999/xlink">
    <!-- Generator: Sketch 52.6 (67491) - http://www.bohemiancoding.com/sketch -->
    <title>Group 3</title>
    <desc>Created with Sketch.</desc>
    <g id="Web" stroke="none" stroke-width="1" fill="none" fill-rule="evenodd">
        <g id="4-User-Order-2---1" transform="translate(-890.000000, -618.000000)">
            <g id="Group-10" transform="translate(313.000000, 73.000000)">
                <g id="Group" transform="translate(92.000000, 507.000000)">
                    <g id="Group-3" transform="translate(485.000000, 38.000000)">
                        <circle id="Oval" fill-opacity="0.25" fill="#FFC240" cx="12" cy="12" r="12"></circle>
                        <g id="002-sign" transform="translate(4.000000, 5.000000)" fill="#FFBA4A" fill-rule="nonzero">
                            <path d="M12.2767812,8.0110625 L11.7057187,8.0110625 C11.6223125,8.0110625 11.553875,8.03778125 11.500625,8.09146875 C11.4469375,8.14484375 11.4202188,8.21325 11.4202188,8.2965625 L11.4202188,11.1515937 C11.4202188,11.5441875 11.2805312,11.8801875 11.001,12.1597812 C10.7214687,12.4393125 10.3853438,12.5789687 9.99275,12.5789687 L2.5695,12.5789687 C2.1769375,12.5789687 1.84084375,12.4393125 1.56125,12.1597812 C1.28171875,11.8802187 1.14196875,11.5442187 1.14196875,11.1515937 L1.14196875,3.7284375 C1.14196875,3.335875 1.2816875,2.99990625 1.56125,2.72034375 C1.84084375,2.44075 2.1769375,2.30103125 2.5695,2.30103125 L8.8505625,2.30103125 C8.93396875,2.30103125 9.00240625,2.2741875 9.055875,2.22071875 C9.10934375,2.1671875 9.1360625,2.09884375 9.1360625,2.0155 L9.1360625,1.44440625 C9.1360625,1.36121875 9.10934375,1.29275 9.055875,1.2393125 C9.00240625,1.18578125 8.93396875,1.1590625 8.8505625,1.1590625 L2.5695,1.1590625 C1.86175,1.1590625 1.2565,1.410375 0.7538125,1.91296875 C0.2513125,2.41553125 0,3.02078125 0,3.72853125 L0,11.1517188 C0,11.8594375 0.2513125,12.4647813 0.75384375,12.9671875 C1.25653125,13.4698125 1.86178125,13.72125 2.56953125,13.72125 L9.99275,13.72125 C10.7004687,13.72125 11.3057812,13.4698125 11.8084062,12.9671875 C12.3110625,12.4647813 12.562375,11.8594688 12.562375,11.1517188 L12.562375,8.29678125 C12.562375,8.213375 12.535625,8.1449375 12.4819375,8.09146875 C12.4284062,8.03778125 12.3599687,8.0110625 12.2767812,8.0110625 Z" id="Path"></path>
                            <path d="M15.8187187,0.18659375 C15.7056875,0.0735625 15.5716875,0.01709375 15.4171562,0.01709375 L10.8490937,0.01709375 C10.6944687,0.01709375 10.5605625,0.0735625 10.447625,0.18659375 C10.3345937,0.2995625 10.278,0.43340625 10.278,0.5880625 C10.278,0.74271875 10.3345937,0.87659375 10.447625,0.989625 L12.0178437,2.559875 L6.20075,8.37709375 C6.1411875,8.4365625 6.1115,8.505 6.1115,8.5821875 C6.1115,8.65965625 6.14128125,8.7280625 6.20075,8.78753125 L7.217875,9.80453125 C7.27734375,9.864 7.34578125,9.89365625 7.42309375,9.89365625 C7.50040625,9.89365625 7.568875,9.86403125 7.6283125,9.80453125 L13.4454375,3.98740625 L15.0157812,5.55765625 C15.1287187,5.6706875 15.2625938,5.72721875 15.41725,5.72721875 C15.5719062,5.72721875 15.7057812,5.6706875 15.8188437,5.55765625 C15.931875,5.44465625 15.9883437,5.31084375 15.9883437,5.1561875 L15.9883437,0.5880625 C15.9883125,0.4333125 15.9316562,0.2995625 15.8187187,0.18659375 Z" id="Path"></path>
                        </g>
                    </g>
                </g>
            </g>
        </g>
    </g>
</svg>