<?xml version="1.0" encoding="UTF-8"?>
<svg width="29px" height="21px" viewBox="0 0 29 21" version="1.1" xmlns="http://www.w3.org/2000/svg" xmlns:xlink="http://www.w3.org/1999/xlink">
    <!-- Generator: Sketch 52.6 (67491) - http://www.bohemiancoding.com/sketch -->
    <title>Path</title>
    <desc>Created with Sketch.</desc>
    <g id="Web" stroke="none" stroke-width="1" fill="none" fill-rule="evenodd">
        <g id="8-Star-profile-2" transform="translate(-719.000000, -218.000000)" fill="#FFBA4A" fill-rule="nonzero">
            <g id="Group-8" transform="translate(150.000000, 209.000000)">
                <path d="M598,10.95323 C598,9.87550923 597.211423,9 596.242154,9 C595.272885,9 594.485423,9.87550923 594.485423,10.95323 C594.485423,11.4920904 594.681731,11.9798423 595.000731,12.334268 L589.651346,18.279509 L584.502731,12.5553674 C584.957808,12.2020528 585.257846,11.6165282 585.257846,10.95323 C585.257846,9.87662028 584.469269,9 583.5,9 C582.530731,9 581.742154,9.87662028 581.742154,10.95323 C581.742154,11.6165282 582.042192,12.2020528 582.497269,12.5553674 L577.348654,18.279509 L572.000385,12.334268 C572.318269,11.9798423 572.515692,11.4920904 572.515692,10.95323 C572.515692,9.87550923 571.727115,9 570.757846,9 C569.788577,9 569,9.87550923 569,10.95323 C569,11.8620708 569.561038,12.6242527 570.318385,12.8420189 L570.318385,30 L596.681615,30 L596.681615,12.8420189 C597.438962,12.6242527 598,11.8620708 598,10.95323 Z" id="Path"></path>
            </g>
        </g>
    </g>
</svg>