<?xml version="1.0" encoding="UTF-8"?>
<svg width="23px" height="24px" viewBox="0 0 23 24" version="1.1" xmlns="http://www.w3.org/2000/svg" xmlns:xlink="http://www.w3.org/1999/xlink">
    <!-- Generator: Sketch 52.6 (67491) - http://www.bohemiancoding.com/sketch -->
    <title>Shape</title>
    <desc>Created with Sketch.</desc>
    <g id="Symbols" stroke="none" stroke-width="1" fill="none" fill-rule="evenodd">
        <g id="Menu-user" transform="translate(-157.000000, -3.000000)" fill="#000000" fill-rule="nonzero">
            <g id="bell-musical-tool" transform="translate(157.000000, 3.000000)">
                <path d="M18.4408125,13.5237188 C17.5757344,11.4136875 17.1430781,9.18989063 17.1430781,6.85223438 C17.1430781,5.380125 16.7150625,4.2114375 15.8587969,3.34589063 C15.0019219,2.48039062 13.8241406,1.95829687 12.3252188,1.7799375 C12.3964688,1.6194375 12.4320469,1.45439062 12.4320469,1.28484375 C12.4320469,0.9279375 12.3072187,0.624328125 12.0574688,0.37471875 C11.8077188,0.124828125 11.5043906,0 11.1474375,0 C10.7907188,0 10.4872969,0.124828125 10.2374063,0.37471875 C9.9875625,0.624515625 9.86273438,0.9279375 9.86273438,1.28484375 C9.86273438,1.45439063 9.89835938,1.61929688 9.96984375,1.7799375 C8.47092188,1.95848438 7.29314063,2.48034375 6.43664063,3.34589063 C5.5801875,4.21139062 5.15198438,5.38007813 5.15198438,6.85223438 C5.15198438,9.18989063 4.719375,11.4136875 3.85382813,13.5237188 C2.98832813,15.6337969 1.70807813,17.4071719 0.012796875,18.8436563 C0.012796875,19.3075313 0.18234375,19.7091094 0.521390625,20.0480156 C0.860390625,20.3869688 1.26182813,20.5567031 1.7259375,20.5567031 L7.72157813,20.5567031 C7.72157813,21.5025469 8.05603125,22.3100156 8.72521875,22.9789688 C9.39445313,23.6480156 10.2019688,23.9826563 11.147625,23.9826563 C12.0934219,23.9826563 12.9009375,23.6480156 13.5698906,22.9789688 C14.2389375,22.3100156 14.5735781,21.5025469 14.5735781,20.5567031 L20.5692188,20.5567031 C21.0331406,20.5567031 21.435,20.3873437 21.773625,20.0480156 C22.1127188,19.7091094 22.2823125,19.3075313 22.2823125,18.8436563 C20.5873125,17.4071719 19.3069219,15.6337969 18.4408125,13.5237188 Z M11.147625,22.9118906 C10.4963437,22.9118906 9.94073437,22.6823906 9.4813125,22.2229219 C9.02189062,21.7633594 8.79210937,21.2077031 8.79210937,20.556375 C8.79210937,20.4135938 8.86354687,20.34225 9.00623438,20.34225 C9.14901562,20.34225 9.22045312,20.4135938 9.22045312,20.556375 C9.22045312,21.0828281 9.40996875,21.5355469 9.78914062,21.9149063 C10.1684063,22.2943125 10.621125,22.4837344 11.1475781,22.4837344 C11.2903594,22.4837344 11.3620312,22.5554531 11.3620312,22.6979063 C11.362125,22.8406875 11.2904063,22.9118906 11.147625,22.9118906 Z" id="Shape"></path>
            </g>
        </g>
    </g>
</svg>