<?xml version="1.0" encoding="UTF-8"?>
<svg width="24px" height="23px" viewBox="0 0 24 23" version="1.1" xmlns="http://www.w3.org/2000/svg" xmlns:xlink="http://www.w3.org/1999/xlink">
    <!-- Generator: Sketch 52.6 (67491) - http://www.bohemiancoding.com/sketch -->
    <title>Group 6</title>
    <desc>Created with Sketch.</desc>
    <g id="Web" stroke="none" stroke-width="1" fill="none" fill-rule="evenodd" opacity="0.7">
        <g id="9-Video-1" transform="translate(-816.000000, -193.000000)" fill="#FFFFFF" fill-rule="nonzero">
            <g id="Group-6" transform="translate(816.000000, 193.000000)">
                <path d="M23.5504034,15.1440504 C23.2819664,14.8754118 22.9554454,14.7409916 22.5717479,14.7409916 L15.8921849,14.7409916 L13.9344706,16.6986555 C13.3778319,17.2359832 12.7252941,17.5047731 11.9767563,17.5047731 C11.2283697,17.5047731 10.5756303,17.2363361 10.019042,16.6986555 L8.07569748,14.7409916 L1.38191597,14.7409916 C0.998117647,14.7409916 0.671848739,14.875563 0.403058824,15.1440504 C0.134319328,15.4126891 2.42206255e-12,15.7390084 2.42206255e-12,16.1230588 L2.42206255e-12,20.7293445 C2.42206255e-12,21.1132437 0.134319328,21.4395126 0.403058824,21.7082017 C0.671798319,21.9768403 0.998067227,22.1110588 1.38191597,22.1110588 L22.5717983,22.1110588 C22.9554958,22.1110588 23.2820168,21.9768403 23.5504538,21.7082017 C23.8192941,21.4395126 23.9535126,21.1132437 23.9535126,20.7293445 L23.9535126,16.1230588 C23.9535126,15.7390084 23.8192941,15.4126891 23.5504034,15.1440504 Z M18.152521,19.9951765 C17.9699496,20.1775462 17.7539496,20.2686555 17.5044202,20.2686555 C17.2548908,20.2686555 17.0391933,20.1775462 16.8566723,19.9951765 C16.6744538,19.8128067 16.5833445,19.596958 16.5833445,19.3475798 C16.5833445,19.0981008 16.6744538,18.8818992 16.8566723,18.6998319 C17.0391933,18.5173109 17.2548908,18.426 17.5044202,18.426 C17.7539496,18.426 17.9698992,18.5173109 18.152521,18.6998319 C18.3346891,18.8818487 18.4258487,19.0980504 18.4258487,19.3475798 C18.4258487,19.5969076 18.3346891,19.8128067 18.152521,19.9951765 Z M21.8374286,19.9951765 C21.6552101,20.1775462 21.4392101,20.2686555 21.1896303,20.2686555 C20.9401513,20.2686555 20.7243025,20.1775462 20.5418824,19.9951765 C20.3597143,19.8128067 20.268605,19.596958 20.268605,19.3475798 C20.268605,19.0981008 20.3597143,18.8818992 20.5418824,18.6998319 C20.7242521,18.5173109 20.9401008,18.426 21.1896303,18.426 C21.4391597,18.426 21.6551597,18.5173109 21.8374286,18.6998319 C22.0197983,18.8818487 22.1110588,19.0980504 22.1110588,19.3475798 C22.1110588,19.5969076 22.0199496,19.8128067 21.8374286,19.9951765 Z" id="Shape"></path>
                <path d="M11.3290084,15.3886891 C11.5018487,15.5708571 11.7177479,15.6620168 11.9767563,15.6620168 C12.2359664,15.6620168 12.4516134,15.5708571 12.6245042,15.3886891 L19.0735966,8.93954622 C19.3710252,8.66127731 19.4383361,8.32532773 19.2751261,7.93184874 C19.1122689,7.55768067 18.8290588,7.37057143 18.4258487,7.37036975 L14.7405882,7.37036975 L14.7405882,0.921327731 C14.7405882,0.671848739 14.6492773,0.45589916 14.4672605,0.273579832 C14.2847395,0.091210084 14.0688908,5.72875081e-13 13.8195126,5.72875081e-13 L10.134,5.72875081e-13 C9.88462185,5.72875081e-13 9.66867227,0.091210084 9.4862521,0.273579832 C9.30398319,0.45589916 9.21277311,0.671798319 9.21277311,0.921327731 L9.21277311,7.37042017 L5.52761345,7.37042017 C5.12435294,7.37042017 4.84139496,7.55773109 4.67823529,7.93189916 C4.51517647,8.32522689 4.58228571,8.66132773 4.87986555,8.93959664 L11.3290084,15.3886891 Z" id="Path"></path>
            </g>
        </g>
    </g>
</svg>