<svg width="23" height="25" viewBox="0 0 23 25" fill="none" xmlns="http://www.w3.org/2000/svg">
<path d="M19.2118 10.6618C18.8035 10.2674 18.2659 10.0535 17.6942 10.0535C17.1158 10.0535 16.5781 10.2741 16.1698 10.6751L13.3388 13.4492V2.13904C13.3388 0.962567 12.3589 0 11.1611 0C9.96338 0 8.98342 0.962567 8.98342 2.13904V13.4492L6.17963 10.6952C5.77131 10.2941 5.19966 10.0602 4.61441 10.0602H4.6076C4.02915 10.0602 3.49153 10.2807 3.09682 10.6751C2.69531 11.0762 2.47754 11.6043 2.47754 12.1658C2.47754 12.734 2.70211 13.262 3.11043 13.6631L9.99061 20.4211C10.3036 20.7286 10.7256 20.9024 11.1679 20.9024C11.6103 20.9024 12.0322 20.7353 12.3452 20.4211L19.1982 13.6898C19.6065 13.2888 19.8447 12.7273 19.8447 12.1457C19.8379 11.5775 19.6133 11.0495 19.2118 10.6618Z" fill="black"/>
<path d="M21.5048 24.9998H0.816638C0.367487 24.9998 0 24.6388 0 24.1976C0 23.7565 0.367487 23.3955 0.816638 23.3955H21.5048C21.9539 23.3955 22.3214 23.7565 22.3214 24.1976C22.3214 24.6388 21.9539 24.9998 21.5048 24.9998Z" fill="black"/>
</svg>
