<?xml version="1.0" encoding="UTF-8"?>
<svg width="24px" height="24px" viewBox="0 0 24 24" version="1.1" xmlns="http://www.w3.org/2000/svg" xmlns:xlink="http://www.w3.org/1999/xlink">
    <!-- Generator: Sketch 52.6 (67491) - http://www.bohemiancoding.com/sketch -->
    <title>Group 3</title>
    <desc>Created with Sketch.</desc>
    <g id="Web" stroke="none" stroke-width="1" fill="none" fill-rule="evenodd">
        <g id="4-User-Order-2---1" transform="translate(-890.000000, -580.000000)">
            <g id="Group-10" transform="translate(313.000000, 73.000000)">
                <g id="Group" transform="translate(92.000000, 507.000000)">
                    <g id="Group-3" transform="translate(485.000000, 0.000000)">
                        <circle id="Oval" fill-opacity="0.25" fill="#FFC240" cx="12" cy="12" r="12"></circle>
                        <path d="M19.7002689,13.1051092 C19.5213109,12.9260168 19.3036303,12.8364034 19.0478319,12.8364034 L14.5947899,12.8364034 L13.2896471,14.1415126 C12.9185546,14.4997311 12.4835294,14.6789244 11.9845042,14.6789244 C11.4855798,14.6789244 11.0504202,14.4999664 10.6793613,14.1415126 L9.38379832,12.8364034 L4.92127731,12.8364034 C4.66541176,12.8364034 4.44789916,12.9261176 4.26870588,13.1051092 C4.08954622,13.2842017 4,13.5017479 4,13.7577815 L4,16.8286387 C4,17.0845714 4.08954622,17.302084 4.26870588,17.4812101 C4.44786555,17.6603025 4.66537815,17.7497815 4.92127731,17.7497815 L19.0478655,17.7497815 C19.3036639,17.7497815 19.5213445,17.6603025 19.7003025,17.4812101 C19.8795294,17.302084 19.9690084,17.0845714 19.9690084,16.8286387 L19.9690084,13.7577815 C19.9690084,13.5017479 19.8795294,13.2842017 19.7002689,13.1051092 Z M16.1016807,16.3391933 C15.9799664,16.4607731 15.8359664,16.5215126 15.6696134,16.5215126 C15.5032605,16.5215126 15.3594622,16.4607731 15.2377815,16.3391933 C15.1163025,16.2176134 15.055563,16.0737143 15.055563,15.9074622 C15.055563,15.7411429 15.1163025,15.5970084 15.2377815,15.4756303 C15.3594622,15.3539496 15.5032605,15.2930756 15.6696134,15.2930756 C15.8359664,15.2930756 15.9799328,15.3539496 16.1016807,15.4756303 C16.2231261,15.5969748 16.2838992,15.7411092 16.2838992,15.9074622 C16.2838992,16.0736807 16.2231261,16.2176134 16.1016807,16.3391933 Z M18.5582857,16.3391933 C18.4368067,16.4607731 18.2928067,16.5215126 18.1264202,16.5215126 C17.9601008,16.5215126 17.8162017,16.4607731 17.6945882,16.3391933 C17.5731429,16.2176134 17.5124034,16.0737143 17.5124034,15.9074622 C17.5124034,15.7411429 17.5731429,15.5970084 17.6945882,15.4756303 C17.8161681,15.3539496 17.9600672,15.2930756 18.1264202,15.2930756 C18.2927731,15.2930756 18.4367731,15.3539496 18.5582857,15.4756303 C18.6798655,15.5969748 18.7407059,15.7411092 18.7407059,15.9074622 C18.7407059,16.0736807 18.6799664,16.2176134 18.5582857,16.3391933 Z" id="Shape" fill="#FFBA4A" fill-rule="nonzero"></path>
                        <path d="M11.5526723,13.2682017 C11.6678992,13.3896471 11.8118319,13.4504202 11.9845042,13.4504202 C12.1573109,13.4504202 12.3010756,13.3896471 12.4163361,13.2682017 L16.7157311,8.96877311 C16.9140168,8.7832605 16.9588908,8.55929412 16.850084,8.29697479 C16.7415126,8.04752941 16.5527059,7.92278992 16.2838992,7.92265546 L13.8270588,7.92265546 L13.8270588,3.62329412 C13.8270588,3.45697479 13.7661849,3.3130084 13.6448403,3.19146218 C13.5231597,3.06988235 13.3792605,3.00907563 13.2130084,3.00907563 L10.756,3.00907563 C10.5897479,3.00907563 10.4457815,3.06988235 10.3241681,3.19146218 C10.2026555,3.3130084 10.1418487,3.45694118 10.1418487,3.62329412 L10.1418487,7.92268908 L7.68507563,7.92268908 C7.41623529,7.92268908 7.22759664,8.04756303 7.11882353,8.2970084 C7.01011765,8.55922689 7.05485714,8.78329412 7.2532437,8.96880672 L11.5526723,13.2682017 Z" id="Path" fill="#FFBA4A" fill-rule="nonzero"></path>
                    </g>
                </g>
            </g>
        </g>
    </g>
</svg>