<?xml version="1.0" encoding="UTF-8"?>
<svg width="18px" height="18px" viewBox="0 0 18 18" version="1.1" xmlns="http://www.w3.org/2000/svg" xmlns:xlink="http://www.w3.org/1999/xlink">
    <!-- Generator: Sketch 52.6 (67491) - http://www.bohemiancoding.com/sketch -->
    <title>pencil</title>
    <desc>Created with Sketch.</desc>
    <g id="Web" stroke="none" stroke-width="1" fill="none" fill-rule="evenodd" opacity="0.8">
        <g id="6-Star-orders-4" transform="translate(-624.000000, -624.000000)" fill="#FFFFFF" fill-rule="nonzero">
            <g id="Personal-card" transform="translate(442.000000, 594.000000)">
                <g id="pencil" transform="translate(182.000000, 30.000000)">
                    <path d="M0,13.0437644 L0,17.9810855 L4.93736259,17.9810855 L14.8120462,8.10640185 L9.87460046,3.16899769 L0,13.0437644 Z M4.30827714,16.4618522 L3.03830023,16.4620185 L3.03830023,14.9427852 L1.51919169,14.9427852 L1.51919169,13.6726836 L2.59923326,12.592642 L5.38831871,15.3816859 L4.30827714,16.4618522 Z M10.2547206,5.18674365 C10.4285681,5.18674365 10.5156166,5.27383372 10.5156166,5.447806 C10.5156166,5.52703926 10.4880139,5.59417552 10.4325173,5.64967206 L3.9996582,12.0824896 C3.9442448,12.1376952 3.87694226,12.1654226 3.79787529,12.1654226 C3.62394457,12.1654226 3.5368545,12.0782079 3.5368545,11.9044018 C3.5368545,11.8251686 3.56454042,11.7580323 3.61987067,11.7025358 L10.0527714,5.26980139 C10.1080185,5.21442956 10.175321,5.18674365 10.2547206,5.18674365 Z" id="Shape"></path>
                    <path d="M17.5417275,3.22811085 L14.7527252,0.45095612 C14.4520878,0.150443418 14.0920462,0 13.672642,0 C13.2451732,0 12.8893718,0.150443418 12.6045727,0.45095612 L10.6343834,2.40929792 L15.5718291,7.34661894 L17.5420185,5.3765127 C17.8347575,5.0837321 17.9810439,4.72768129 17.9810439,4.30827714 C17.9808776,3.89693764 17.8346328,3.53681293 17.5417275,3.22811085 Z" id="Path"></path>
                </g>
            </g>
        </g>
    </g>
</svg>