<?xml version="1.0" encoding="UTF-8"?>
<svg width="32px" height="32px" viewBox="0 0 32 32" version="1.1" xmlns="http://www.w3.org/2000/svg" xmlns:xlink="http://www.w3.org/1999/xlink">
    <!-- Generator: Sketch 63.1 (92452) - https://sketch.com -->
    <title>005-edit</title>
    <desc>Created with Sketch.</desc>
    <g id="Web" stroke="none" stroke-width="1" fill="none" fill-rule="evenodd">
        <g id="1-Main-(3)" transform="translate(-238.000000, -29.000000)" fill="#000000" fill-rule="nonzero">
            <g id="005-edit" transform="translate(238.000000, 29.000000)">
                <path d="M30.12475,1.875375 C28.9154375,0.666 27.307625,0 25.5974375,0 C23.88725,0 22.279375,0.666 21.0700625,1.8753125 L3.176625,19.7688125 C3.024375,19.9210625 2.9140625,20.1100625 2.8563125,20.3175 L0.0458125,30.4148125 C-0.075375,30.8503125 0.0479375,31.317375 0.3685,31.6361875 C0.606,31.8724375 0.92425,32 1.250125,32 C1.364,32 1.478875,31.984375 1.5915625,31.952375 L11.688875,29.0841875 C12.114875,28.9631875 12.445125,28.62575 12.556875,28.1971875 C12.668625,27.768625 12.54525,27.3129375 12.2325625,26.99925 L5.8668125,20.6141875 L20.699,5.7819375 L26.215125,11.2980625 L14.8605,22.62175 C14.3716875,23.10925 14.370625,23.9006875 14.858125,24.3895 C15.3455625,24.878375 16.137125,24.879375 16.625875,24.3919375 L30.124625,10.9299375 C31.334,9.720625 32,8.1128125 32,6.402625 C32,4.6924375 31.334,3.084625 30.12475,1.875375 Z M8.9621875,27.259875 L3.0516875,28.93875 L4.707,22.99175 L8.9621875,27.259875 Z M28.358125,9.1609375 L27.9853125,9.53275 L22.4668125,4.0141875 L22.8379375,3.6430625 C23.575,2.9059375 24.555,2.5 25.5974375,2.5 C26.639875,2.5 27.6198125,2.9059375 28.3569375,3.643125 C29.0940625,4.3801875 29.5,5.3601875 29.5,6.402625 C29.5,7.4450625 29.0940625,8.4250625 28.358125,9.1609375 Z" id="Shape"></path>
            </g>
        </g>
    </g>
</svg>