<?xml version="1.0" encoding="UTF-8"?>
<svg width="24px" height="20px" viewBox="0 0 24 20" version="1.1" xmlns="http://www.w3.org/2000/svg" xmlns:xlink="http://www.w3.org/1999/xlink">
    <!-- Generator: Sketch 52.6 (67491) - http://www.bohemiancoding.com/sketch -->
    <title>sign-out-option</title>
    <desc>Created with Sketch.</desc>
    <g id="Web" stroke="none" stroke-width="1" fill="none" fill-rule="evenodd">
        <g id="5-Star-orders-0---0" transform="translate(-1082.000000, -266.000000)" fill="#FF0000" fill-rule="nonzero">
            <g id="Group-5" transform="translate(1054.000000, 91.000000)">
                <g id="sign-out-option" transform="translate(28.000000, 175.000000)">
                    <path d="M9.78883929,18.1152321 C9.75819643,18.0336964 9.74764286,17.964375 9.75803571,17.9082857 C9.768375,17.8525714 9.73275,17.8063929 9.65105357,17.7708214 C9.56935714,17.73525 9.52858929,17.7070179 9.52858929,17.686875 C9.52858929,17.6665179 9.47003571,17.6511429 9.35266071,17.6410714 C9.23533929,17.6308393 9.17678571,17.6256429 9.17678571,17.6256429 L8.97803571,17.6256429 L8.80982143,17.6256429 L4.40485714,17.6256429 C3.73189286,17.6256429 3.15573214,17.3862321 2.67642857,16.9066607 C2.19723214,16.4274107 1.95766071,15.8514107 1.95766071,15.1785536 L1.95766071,4.41080357 C1.95766071,3.73783929 2.19717857,3.16189286 2.67642857,2.68264286 C3.15573214,2.20333929 3.73189286,1.96360714 4.40485714,1.96360714 L9.29919643,1.96360714 C9.43178571,1.96360714 9.53603571,1.93071429 9.61269643,1.86428571 C9.68903571,1.79801786 9.73992857,1.69853571 9.76553571,1.566 C9.79103571,1.43346429 9.80641071,1.31378571 9.81155357,1.20669643 C9.81658929,1.09971429 9.814125,0.9645 9.80383929,0.801375 C9.79371429,0.638303571 9.788625,0.536357143 9.788625,0.495375 C9.788625,0.362839286 9.74014286,0.248357143 9.64333929,0.151285714 C9.54642857,0.0546428571 9.43178571,0.00616071429 9.29925,0.00616071429 L4.40485714,0.00616071429 C3.19157143,0.00616071429 2.154,0.436982143 1.29230357,1.29857143 C0.430821429,2.16016071 0,3.19757143 0,4.41096429 L0,15.1785 C0,16.3917857 0.430821429,17.4294643 1.29230357,18.2907321 C2.154,19.15275 3.19157143,19.5835714 4.40485714,19.5835714 L9.29941071,19.5835714 C9.432,19.5835714 9.53630357,19.55025 9.61291071,19.48425 C9.68925,19.417875 9.74014286,19.3185 9.76575,19.1858036 C9.79125,19.0534286 9.806625,18.9331607 9.81176786,18.8265 C9.81680357,18.7194107 9.81433929,18.5844643 9.80405357,18.4213393 C9.79382143,18.2580536 9.78883929,18.1561607 9.78883929,18.1152321 Z" id="Path"></path>
                    <path d="M23.6919107,9.10655357 L15.3715179,0.785892857 C15.1779107,0.592392857 14.9484107,0.495321429 14.6832857,0.495321429 C14.4181607,0.495321429 14.1886607,0.592392857 13.9948393,0.785892857 C13.8010714,0.979660714 13.7042679,1.20932143 13.7042679,1.47428571 L13.7042679,5.87925 L6.85216071,5.87925 C6.586875,5.87925 6.35753571,5.97632143 6.16376786,6.16982143 C5.97,6.36358929 5.87319643,6.59308929 5.87319643,6.85821429 L5.87319643,12.7315714 C5.87319643,12.9966429 5.97,13.2261429 6.16376786,13.4198036 C6.35775,13.6131964 6.58703571,13.7105357 6.85216071,13.7105357 L13.7043214,13.7105357 L13.7043214,18.1154464 C13.7043214,18.3803571 13.801125,18.6100714 13.9948929,18.8036786 C14.1886607,18.9974464 14.4181607,19.0944643 14.6833393,19.0944643 C14.9484107,19.0944643 15.1779107,18.9974464 15.3715714,18.8036786 L23.6919107,10.4833929 C23.8856786,10.2894643 23.9825357,10.0602857 23.9825357,9.79510714 C23.9825357,9.53003571 23.8856786,9.30032143 23.6919107,9.10655357 Z" id="Path"></path>
                </g>
            </g>
        </g>
    </g>
</svg>