<?xml version="1.0" encoding="UTF-8"?>
<svg width="18px" height="16px" viewBox="0 0 18 16" version="1.1" xmlns="http://www.w3.org/2000/svg" xmlns:xlink="http://www.w3.org/1999/xlink">
    <!-- Generator: Sketch 52.6 (67491) - http://www.bohemiancoding.com/sketch -->
    <title>checkered-raised-flag</title>
    <desc>Created with Sketch.</desc>
    <g id="Symbols" stroke="none" stroke-width="1" fill="none" fill-rule="evenodd">
        <g id="Orders-new" transform="translate(-992.000000, -98.000000)" fill="#000000" fill-rule="nonzero">
            <g id="Group-5">
                <g id="Group-4">
                    <g id="checkered-raised-flag" transform="translate(992.000000, 98.000000)">
                        <path d="M1.33167206,0.0147935223 C0.96405668,0.0147935223 0.650222672,0.145093117 0.390097166,0.404890688 C0.130117409,0.665016194 0,0.97888664 0,1.34646559 C0,1.58917409 0.0606680162,1.8111498 0.18211336,2.01221053 C0.303376518,2.21334413 0.464684211,2.37282996 0.665744939,2.49077733 L0.665744939,15.6610202 C0.665744939,15.7581619 0.696898785,15.8379595 0.759388664,15.9003036 C0.821769231,15.9627571 0.90145749,15.9938016 0.998672065,15.9938016 L1.664417,15.9938016 C1.7615587,15.9938016 1.84135628,15.9627206 1.9037004,15.9003036 C1.96611741,15.8379595 1.99727126,15.7581619 1.99727126,15.6610202 L1.99727126,2.49077733 C2.19840486,2.37282996 2.35963968,2.21334413 2.48097571,2.01221053 C2.60238462,1.8111498 2.66301619,1.58906478 2.66301619,1.34646559 C2.66301619,0.978995951 2.53304453,0.665161943 2.27310121,0.404890688 C2.01301215,0.144983806 1.6991417,0.0147935223 1.33167206,0.0147935223 Z" id="Path"></path>
                        <path d="M17.6542105,1.44003644 C17.4391215,1.3152753 17.224251,1.3084251 17.0089069,1.41934008 C16.9467085,1.45413765 16.8390729,1.51298381 16.686583,1.59620648 C15.3827854,2.37293927 14.3079231,2.76136032 13.4617409,2.76136032 C13.1079717,2.76136032 12.7992024,2.69544534 12.5357611,2.5637247 C11.7591741,2.1822996 11.0343279,1.88402429 10.361587,1.66897166 C9.68884615,1.45413765 8.96410931,1.3465749 8.18741296,1.3465749 C7.68115385,1.3465749 7.14359514,1.41248988 6.5749919,1.5442834 C6.00627935,1.67600405 5.47735628,1.84765992 4.9884413,2.05906883 C4.49956275,2.27062348 4.10410931,2.45091498 3.80255466,2.60005263 C3.50067206,2.74919028 3.22848583,2.8964332 2.9858502,3.04214575 C2.77083401,3.18082591 2.66327126,3.37153846 2.66327126,3.61431984 L2.66327126,11.3332591 C2.66327126,11.5898502 2.77425911,11.7841336 2.99616194,11.9158178 C3.10711336,11.9714211 3.21810121,11.9989676 3.32908907,11.9989676 C3.4538502,11.9989676 3.56837247,11.9678138 3.6722915,11.9055789 C4.33111336,11.5033117 5.12340486,11.1494332 6.0492753,10.8443077 C6.97525506,10.5391822 7.79192308,10.386583 8.49931579,10.386583 C8.90140081,10.386583 9.29692713,10.435081 9.68523887,10.5322227 C10.0735142,10.6292551 10.3892429,10.730004 10.6318785,10.8338502 C10.8744049,10.9379514 11.2176802,11.1043239 11.6617409,11.3332591 L11.9530202,11.4788988 C12.4383279,11.7217895 12.9862348,11.8432348 13.5963765,11.8432348 C14.6438016,11.8432348 15.9232955,11.4409676 17.4351862,10.6364696 C17.48383,10.6087773 17.5426761,10.5776235 17.6120162,10.5428259 C17.8546883,10.4179919 17.9762429,10.2204656 17.9762429,9.94991903 L17.9762429,2.01221053 C17.9764251,1.76950202 17.8688988,1.57886235 17.6542105,1.44003644 Z M3.99468826,3.99927935 C5.46504049,3.18086235 6.79653036,2.74397976 7.98952227,2.68848583 L7.98952227,4.73782591 C6.81733603,4.78646964 5.48566397,5.19558704 3.99468826,5.9654332 L3.99468826,3.99927935 Z M7.9895587,9.0862834 C6.74803239,9.18331579 5.41636032,9.56488664 3.9947247,10.2307409 L3.9947247,8.30597976 C5.40258704,7.60569231 6.73425911,7.19992713 7.9895587,7.08893927 L7.9895587,9.0862834 Z M16.6446802,9.55468421 C15.4448745,10.1925911 14.4288583,10.5115628 13.596668,10.5115628 C13.2570364,10.5115628 12.9413077,10.4524615 12.6500283,10.3346599 L12.6500283,8.37907287 C13.6834615,8.69115789 15.0149514,8.4451336 16.6447166,7.64045344 L16.6447166,9.55468421 L16.6446802,9.55468421 Z M16.6446802,5.11251012 C15.0082105,6.02788664 13.6764656,6.33993522 12.6499919,6.04883806 L12.6499919,8.37881781 C12.5113117,8.3374251 12.3761296,8.28531984 12.2442267,8.22282996 C11.5021822,7.85525101 10.8171984,7.5708583 10.189749,7.3697247 C9.5620081,7.16866397 8.8944413,7.06802429 8.18704858,7.06802429 L7.98941296,7.06802429 L7.98941296,4.7585587 C8.16966802,4.7377166 8.33961134,4.72740486 8.49909717,4.72740486 C8.65155061,4.72740486 8.80429555,4.73443725 8.95682186,4.74821053 C9.10945749,4.76198381 9.24653441,4.77590283 9.36776113,4.78974899 C9.48895142,4.80363158 9.62584615,4.82953846 9.77873684,4.86776113 C9.93133603,4.90580162 10.0527814,4.93527935 10.1428178,4.95608502 C10.2331093,4.97703644 10.3579069,5.02032389 10.5175385,5.08620243 C10.6771336,5.15222672 10.7896154,5.1972996 10.8555668,5.2215668 C10.9214089,5.24583401 11.0411053,5.29954251 11.214583,5.38280162 C11.3877692,5.46609717 11.4971538,5.51812955 11.5421174,5.53886235 C11.5874089,5.55966802 11.7069595,5.61865992 11.9011336,5.71587449 C12.0953077,5.81287045 12.2099028,5.87186235 12.2444453,5.89270445 C12.3760931,5.95515789 12.5113846,6.00722672 12.6500648,6.04876518 L12.6500648,4.00980972 C12.879,4.06523077 13.1494737,4.09310526 13.4614858,4.09310526 C14.4116235,4.09310526 15.4727854,3.77744939 16.6448988,3.14642915 L16.6448988,5.11254656 L16.6446802,5.11254656 L16.6446802,5.11251012 Z" id="Shape"></path>
                    </g>
                </g>
            </g>
        </g>
    </g>
</svg>