<?xml version="1.0" encoding="UTF-8"?>
<svg width="46px" height="46px" viewBox="0 0 46 46" version="1.1" xmlns="http://www.w3.org/2000/svg" xmlns:xlink="http://www.w3.org/1999/xlink">
    <!-- Generator: Sketch 52.6 (67491) - http://www.bohemiancoding.com/sketch -->
    <title>Group 6</title>
    <desc>Created with Sketch.</desc>
    <g id="Web" stroke="none" stroke-width="1" fill="none" fill-rule="evenodd">
        <g id="4-User-profile-4" transform="translate(-1028.000000, -382.000000)">
            <g id="Group-3" transform="translate(735.000000, 233.000000)">
                <g id="Group-4" transform="translate(293.000000, 146.000000)">
                    <g id="Group-6" transform="translate(0.000000, 3.000000)">
                        <g id="Group-2" fill="#2E16AD">
                            <circle id="Oval" cx="23" cy="23" r="23"></circle>
                        </g>
                        <g id="gift-box" transform="translate(8.000000, 11.000000)" fill="#FFFFFF" fill-rule="nonzero">
                            <path d="M28.5926416,8.16061795 C28.4835851,8.05353932 28.3438166,8 28.1731445,8 L20.1521927,8 C21.2823448,8 22.2454644,7.61033884 23.0417428,6.83045361 C23.8375742,6.05063093 24.2356815,5.10718809 24.2356815,4 C24.2356815,2.89281191 23.8375742,1.94936907 23.0417428,1.16954639 C22.2454644,0.389911341 21.2823448,0 20.1521927,0 C18.8518791,0 17.8308473,0.458274045 17.089608,1.37488468 L14.7560672,4.32129845 L12.4229734,1.37488468 C11.6814786,0.458274045 10.6607022,2.22207789e-16 9.36026096,2.22207789e-16 C8.22991723,2.22207789e-16 7.26667001,0.389661157 6.47083856,1.16954639 C5.67494325,1.94936907 5.27683597,2.89281191 5.27683597,4 C5.27683597,5.10718809 5.67468785,6.05088112 6.47083856,6.83045361 C7.26686156,7.61008866 8.22991723,8 9.36026096,8 L1.33911761,8 C1.16882858,8 1.02918774,8.05353932 0.919811997,8.16061795 C0.810563953,8.26788423 0.755844156,8.40485982 0.755844156,8.57141964 L0.755844156,14.2860538 C0.755844156,14.4525511 0.810372402,14.5895892 0.919811997,14.6965428 C1.02912389,14.8035589 1.16902013,14.8570356 1.33911761,14.8570356 L3.08925723,14.8570356 L3.08925723,22.2859913 C3.08925723,22.7624662 3.25941856,23.1670133 3.59974122,23.5000078 C3.93980848,23.8335027 4.3530483,24 4.83933299,24 L24.6731206,24 C25.159533,24 25.5725174,23.8335027 25.9129039,23.5000078 C26.2529074,23.1667631 26.4233879,22.7620284 26.4233879,22.2859913 L26.4233879,14.8570356 L28.1726975,14.8570356 C28.3431142,14.8570356 28.4829466,14.8035589 28.5921947,14.6965428 C28.7014427,14.5895267 28.7558433,14.4525511 28.7558433,14.2860538 L28.7558433,8.57141964 C28.7560987,8.40485982 28.7018897,8.26788423 28.5926416,8.16061795 Z M18.8945312,2.83921004 C19.210463,2.47031414 19.6295771,2.28580364 20.1521927,2.28580364 C20.638605,2.28580364 21.051781,2.45230091 21.3920398,2.78567073 C21.7319794,3.11885291 21.902013,3.52371273 21.902013,3.99993745 C21.902013,4.47616218 21.7315324,4.881022 21.3920398,5.21420418 C21.0515895,5.547574 20.638605,5.71407127 20.1521927,5.71407127 L16.6154548,5.71407127 L18.8945312,2.83921004 Z M9.36006941,5.71413382 C8.87391242,5.71413382 8.460928,5.547574 8.12009453,5.21426673 C7.77996342,4.88108455 7.60973824,4.47622473 7.60973824,4 C7.60973824,3.52377527 7.77977187,3.11910309 8.12009453,2.78573327 C8.46041719,2.45236345 8.87372087,2.28586618 9.35987786,2.28586618 C9.88268498,2.28586618 10.3018629,2.4701265 10.6178585,2.83927259 L12.9148769,5.71419636 L9.36006941,5.71419636 L9.36006941,5.71413382 Z M17.673073,11.4286429 L17.673073,19.7860304 L17.673073,20.7858271 C17.673073,21.0835457 17.5633141,21.3125889 17.344818,21.4735196 C17.125875,21.6342627 16.8462102,21.7146967 16.5063984,21.7146967 L13.006183,21.7146967 C12.6658603,21.7146967 12.3863871,21.6342627 12.1675717,21.4735196 C11.9487564,21.3125889 11.839253,21.0835457 11.839253,20.7858271 L11.839253,19.7860304 L11.839253,11.4286429 L11.839253,8 L17.673073,8 L17.673073,11.4286429 Z" id="Shape"></path>
                        </g>
                    </g>
                </g>
            </g>
        </g>
    </g>
</svg>