<?xml version="1.0" encoding="UTF-8"?>
<svg width="24px" height="21px" viewBox="0 0 24 21" version="1.1" xmlns="http://www.w3.org/2000/svg" xmlns:xlink="http://www.w3.org/1999/xlink">
    <!-- Generator: Sketch 52.6 (67491) - http://www.bohemiancoding.com/sketch -->
    <title>heart-shape-outline</title>
    <desc>Created with Sketch.</desc>
    <g id="Web" stroke="none" stroke-width="1" fill="none" fill-rule="evenodd">
        <g id="2-Star-profile-1" transform="translate(-106.000000, -210.000000)" fill="#9E9E9E" fill-rule="nonzero">
            <g id="Group-4">
                <g id="heart-shape-outline" transform="translate(106.000000, 210.000000)">
                    <path d="M22.2827812,1.71574773 C21.1495781,0.589097727 19.5839531,0.0260113636 17.5852031,0.0260113636 C17.0320781,0.0260113636 16.4675625,0.123661364 15.8922187,0.318865909 C15.3166406,0.514213636 14.7811875,0.777763636 14.2864687,1.109325 C13.7910937,1.44079091 13.365375,1.75206818 13.0082344,2.04267955 C12.6515156,2.33338636 12.312375,2.642325 11.9912344,2.96925682 C11.6699531,2.642325 11.3309062,2.33338636 10.9741406,2.04267955 C10.6171406,1.75206818 10.1912344,1.44098182 9.69595312,1.109325 C9.20076562,0.777620455 8.66540625,0.514261364 8.08996875,0.318865909 C7.51457812,0.123709091 6.95015625,0.0260113636 6.39703125,0.0260113636 C4.39842187,0.0260113636 2.83270312,0.589240909 1.69964062,1.71574773 C0.566578125,2.84215909 0,4.40455909 0,6.40309091 C0,7.01175682 0.105,7.63879773 0.314578125,8.28345 C0.52415625,8.92843636 0.762984375,9.47811136 1.03059375,9.93223636 C1.29815625,10.3863136 1.60157812,10.8291273 1.940625,11.2606773 C2.27967188,11.6921795 2.52745313,11.9895682 2.68340625,12.1530818 C2.8395,12.3165955 2.96221875,12.4348159 3.05142188,12.5075523 L11.4023438,20.7106773 C11.5629844,20.8741909 11.75925,20.9561864 11.9911875,20.9561864 C12.223125,20.9561864 12.4195312,20.8741909 12.5800781,20.7106773 L20.9177344,12.5345182 C22.9609219,10.4545636 23.9824219,8.41059545 23.9824219,6.4029 C23.9824687,4.404225 23.4159375,2.84196818 22.2827812,1.71574773 Z M19.7533594,11.2538523 L11.9912344,18.8709341 L4.21584375,11.2401068 C2.547375,9.54173182 1.71328125,7.929075 1.71328125,6.4029 C1.71328125,5.66718409 1.8091875,5.01756818 2.00090625,4.45448182 C2.19276562,3.8913 2.43810937,3.44376136 2.73698437,3.1122 C3.03590625,2.78054318 3.39942187,2.51050227 3.82767187,2.30140909 C4.25615625,2.09250682 4.67545312,1.95166364 5.08579687,1.87902273 C5.49614062,1.80647727 5.93325,1.77015682 6.39726562,1.77015682 C6.86114062,1.77015682 7.360875,1.88584773 7.8961875,2.11756364 C8.43140625,2.34918409 8.92434375,2.63989091 9.37485937,2.98958864 C9.82546875,3.339525 10.2113438,3.66650455 10.5326719,3.97071818 C10.8538125,4.27521818 11.121375,4.554375 11.3355469,4.80876136 C11.4960469,5.00869091 11.7148125,5.10863182 11.9912813,5.10863182 C12.2678437,5.10863182 12.486375,5.00869091 12.6470625,4.80876136 C12.8611875,4.554375 13.1289375,4.275075 13.4500781,3.97071818 C13.7712656,3.66650455 14.1571875,3.33966818 14.6076094,2.98958864 C15.0582187,2.63989091 15.5511562,2.34918409 16.0866562,2.11756364 C16.6217812,1.88589545 17.1216562,1.77015682 17.5855781,1.77015682 C18.0495,1.77015682 18.4864687,1.80647727 18.897,1.87902273 C19.3074844,1.95161591 19.7267812,2.09250682 20.155125,2.30140909 C20.5834219,2.51045455 20.9469375,2.78068636 21.2457656,3.1122 C21.5446406,3.44376136 21.7900781,3.8913 21.9819375,4.45448182 C22.1734687,5.01756818 22.269375,5.66718409 22.269375,6.4029 C22.2692812,7.929075 21.4307812,9.54621818 19.7533594,11.2538523 Z" id="Shape"></path>
                </g>
            </g>
        </g>
    </g>
</svg>