<svg width="24" height="24" viewBox="0 0 24 24" fill="none" xmlns="http://www.w3.org/2000/svg">
<path d="M11.584 9.584H12.72V18H11.584V9.584ZM12.16 7.744C11.9253 7.744 11.728 7.664 11.568 7.504C11.408 7.344 11.328 7.152 11.328 6.928C11.328 6.71467 11.408 6.528 11.568 6.368C11.728 6.208 11.9253 6.128 12.16 6.128C12.3947 6.128 12.592 6.208 12.752 6.368C12.912 6.51733 12.992 6.69867 12.992 6.912C12.992 7.14667 12.912 7.344 12.752 7.504C12.592 7.664 12.3947 7.744 12.16 7.744Z" fill="#707070"/>
<circle cx="12" cy="12" r="11.5" stroke="#707070"/>
</svg>
