<svg width="185" height="144" viewBox="0 0 185 144" fill="none" xmlns="http://www.w3.org/2000/svg">
<path d="M21.5978 118.318C18.5784 118.351 15.587 117.735 12.8247 116.513C10.2484 115.381 7.99071 113.63 6.25195 111.413L12.3103 104.108C14.8536 107.575 17.7685 109.322 21.0548 109.322C25.4843 109.322 27.7133 106.715 27.7133 101.472V78.9546H11.1672V70.1882L38.544 70.6179V100.871C38.544 106.686 37.1056 111.051 34.2288 113.963C31.3711 116.857 27.1417 118.318 21.5978 118.318ZM70.4073 118.318C65.4921 118.318 61.0912 117.258 57.1476 115.138C53.3179 113.135 50.1139 110.111 47.8886 106.4C45.6596 102.676 44.5451 98.5216 44.5451 93.8805C44.4837 89.613 45.6441 85.4174 47.8886 81.7908C50.1139 78.0794 53.3179 75.0558 57.1476 73.053C61.0912 70.933 65.5206 69.873 70.4073 69.873C75.294 69.873 79.7234 70.933 83.6384 73.053C87.4567 75.072 90.6567 78.0919 92.8974 81.7908C95.1637 85.4092 96.335 89.6086 96.2695 93.8805C96.2695 98.5216 95.155 102.676 92.8974 106.4C90.6567 110.099 87.4567 113.119 83.6384 115.138C79.7234 117.258 75.3225 118.318 70.4073 118.318ZM70.4073 109.15C73.0383 109.192 75.6329 108.53 77.923 107.231C80.1405 105.963 81.969 104.11 83.2098 101.873C84.4958 99.5816 85.1245 96.9746 85.1245 94.0524C85.1777 91.4588 84.5151 88.901 83.2098 86.6611C81.9772 84.4184 80.1468 82.5635 77.923 81.3038C75.617 80.0451 73.033 79.3856 70.4073 79.3856C67.7816 79.3856 65.1976 80.0451 62.8915 81.3038C60.6808 82.6011 58.8507 84.4604 57.5862 86.6939C56.3218 88.9273 55.6677 91.4558 55.6901 94.0238C55.6901 96.9459 56.3188 99.5529 57.6048 101.845C58.8374 104.088 60.6678 105.942 62.8915 107.202C65.174 108.523 67.7721 109.197 70.4073 109.15Z" fill="black"/>
<path fill-rule="evenodd" clip-rule="evenodd" d="M109.557 0L130.704 49.9917L185 54.5754L143.849 90.3861L156.137 143.529L109.557 101.129L137.991 118.462L130.418 86.0888L155.423 64.3159L122.416 61.4511L109.557 30.9404L96.6971 61.4511H0.821289L88.5527 49.9917L109.557 0Z" fill="#FFC240"/>
<path fill-rule="evenodd" clip-rule="evenodd" d="M104.614 71.1915C105.357 70.3321 106.414 69.9023 107.843 69.9023V73.6266C107.541 73.571 107.235 73.5422 106.929 73.5407C105.528 73.5407 104.814 74.2569 104.814 75.718V80.2158H100.699V70.0742H104.614V71.1915ZM119.845 70.2175V80.359H115.959V79.385C115.602 79.7538 115.174 80.0462 114.701 80.2445C114.211 80.4411 113.687 80.5385 113.158 80.5309C112.6 80.5528 112.043 80.4598 111.523 80.2578C111.002 80.0558 110.527 79.749 110.129 79.3563C109.358 78.5828 108.986 77.3796 108.986 75.8039V70.2175H113.073V75.0877C113.039 75.6038 113.147 76.1193 113.387 76.5774C113.495 76.7323 113.641 76.8562 113.812 76.9366C113.982 77.0171 114.171 77.0513 114.359 77.0358C114.551 77.0369 114.742 76.9936 114.915 76.9092C115.089 76.8247 115.24 76.7014 115.359 76.5488C115.616 76.2337 115.759 75.718 115.759 75.0018V70.2461H119.845V70.2175Z" fill="black"/>
</svg>
