<?xml version="1.0" encoding="UTF-8"?>
<svg width="32px" height="32px" viewBox="0 0 32 32" version="1.1" xmlns="http://www.w3.org/2000/svg" xmlns:xlink="http://www.w3.org/1999/xlink">
    <!-- Generator: Sketch 63.1 (92452) - https://sketch.com -->
    <title>002-login</title>
    <desc>Created with Sketch.</desc>
    <g id="Web" stroke="none" stroke-width="1" fill="none" fill-rule="evenodd">
        <g id="1-Main-(3)" transform="translate(-290.000000, -29.000000)" fill="#000000" fill-rule="nonzero">
            <g id="002-login" transform="translate(290.000000, 29.000000)">
                <path d="M8.21875,29.5 L3.7933125,29.5 C3.2596875,29.5 2.93775,29.2021875 2.793375,29.024625 C2.544125,28.718 2.4475625,28.319 2.528625,27.9296875 C3.8266875,21.694625 9.3291875,17.1411875 15.6814375,16.9934375 C15.78725,16.997375 15.8933125,17 16,17 C16.107625,17 16.214625,16.9973125 16.321375,16.9933125 C17.8746875,17.02875 19.3919375,17.3208125 20.836125,17.863125 C21.482375,18.1059375 22.2030625,17.778625 22.44575,17.1323125 C22.6884375,16.4860625 22.36125,15.765375 21.7149375,15.5226875 C21.508,15.4449375 21.299625,15.3721875 21.09025,15.3031875 C23.1590625,13.7513125 24.5,11.2793125 24.5,8.5 C24.5,3.813125 20.6869375,0 16,0 C11.3130625,0 7.5,3.813125 7.5,8.5 C7.5,11.2818125 8.84325,13.75575 10.9151875,15.307375 C9.017,15.93225 7.23575,16.904 5.676875,18.18625 C2.818625,20.5373125 0.8313125,23.816625 0.081125,27.4201875 C-0.154,28.5493125 0.127625,29.7090625 0.8538125,30.6019375 C1.5763125,31.4904375 2.64775,32 3.7933125,32 L8.21875,32 C8.909125,32 9.46875,31.440375 9.46875,30.75 C9.46875,30.059625 8.909125,29.5 8.21875,29.5 Z M10,8.5 C10,5.1915625 12.6915625,2.5 16,2.5 C19.3084375,2.5 22,5.1915625 22,8.5 C22,11.7104375 19.465375,14.339875 16.292125,14.4928125 C16.1948125,14.4910625 16.0975,14.4895625 16,14.4895625 C15.90225,14.4895625 15.8045625,14.491 15.7069375,14.4928125 C12.534125,14.339375 10,11.710125 10,8.5 Z" id="Shape"></path>
                <path d="M31.0430625,21.5379375 C30.508,20.3410625 29.30275,19.5655625 27.9695625,19.5625 L24.0713125,19.5625 C24.0685,19.5625 24.065875,19.5625 24.063,19.5625 C22.65675,19.5625 21.429875,20.39125 20.9361875,21.6754375 C20.8705,21.8463125 20.7901875,22.0615625 20.706375,22.3125 L12.52225,22.3125 C12.1843125,22.3125 11.8608125,22.4493125 11.625375,22.69175 L9.478125,24.9035 C9.0051875,25.390625 9.0075625,26.1661875 9.4834375,26.650375 L11.6709375,28.876125 C11.9059375,29.11525 12.2271875,29.2499375 12.5624375,29.2499375 L16.6249375,29.2499375 C17.3153125,29.2499375 17.8749375,28.6903125 17.8749375,27.9999375 C17.8749375,27.3095625 17.3153125,26.7499375 16.6249375,26.7499375 L13.0865625,26.7499375 L12.1223125,25.7688125 L13.050875,24.8125 L21.6440625,24.8125 C22.2199375,24.8125 22.72125,24.4190625 22.8581875,23.85975 C22.9593125,23.4468125 23.0861875,23.0498125 23.2696875,22.5725 C23.3906875,22.25775 23.6945625,22.0625 24.066,22.0625 C24.0668125,22.0625 24.067625,22.0625 24.0684375,22.0625 L27.966625,22.0625 C28.320125,22.0633125 28.624375,22.2533125 28.7606875,22.55825 C29.09625,23.309 29.4969375,24.47125 29.4999375,25.744875 C29.5029375,27.0279375 29.1026875,28.2168125 28.76625,28.98825 C28.630625,29.299375 28.3238125,29.5 27.98125,29.5 C27.9805625,29.5 27.979875,29.5 27.9791875,29.5 L24.033875,29.5 C23.6880625,29.4991875 23.364125,29.2766875 23.227875,28.946375 C23.0816875,28.5919375 22.955,28.18725 22.8405625,27.7090625 C22.679875,27.0376875 22.005125,26.6236875 21.334,26.7843125 C20.6625625,26.945 20.2485625,27.6195625 20.40925,28.2909375 C20.5543125,28.897125 20.720375,29.4233125 20.9168125,29.8995625 C21.44175,31.1723125 22.663,31.99675 24.031,31.9999375 L27.9763125,31.9999375 C27.979,31.9999375 27.9815,31.9999375 27.9841875,31.9999375 C29.318625,31.9999375 30.524625,31.2105625 31.0579375,29.987375 C31.4899375,28.9966875 32.004,27.4554375 31.9999614,25.7389375 C31.9959375,24.027125 31.477375,22.5095625 31.0430625,21.5379375 Z" id="Path"></path>
                <circle id="Oval" cx="26.9375" cy="25.75" r="1.25"></circle>
            </g>
        </g>
    </g>
</svg>