<?xml version="1.0" encoding="UTF-8"?>
<svg width="41px" height="32px" viewBox="0 0 41 32" version="1.1" xmlns="http://www.w3.org/2000/svg" xmlns:xlink="http://www.w3.org/1999/xlink">
    <!-- Generator: Sketch 52.6 (67491) - http://www.bohemiancoding.com/sketch -->
    <title>Path 2</title>
    <desc>Created with Sketch.</desc>
    <g id="Web" stroke="none" stroke-width="1" fill="none" fill-rule="evenodd">
        <g id="11-Contacts" transform="translate(-846.000000, -206.000000)" fill="#FFC240" fill-rule="nonzero">
            <g id="Group" transform="translate(793.000000, 206.000000)">
                <path d="M91.3580744,12.2644169 C92.2200099,11.6751563 92.975464,11.0172903 93.625469,10.2921687 L93.625469,28.2919702 C93.625469,29.2901638 93.2706104,30.1433648 92.5600199,30.8539553 C91.8496675,31.5645459 90.9956725,31.9197221 89.9983524,31.9197221 L56.6273548,31.9197221 C55.6297965,31.9197221 54.7757221,31.5645459 54.0654491,30.8539553 C53.3550174,30.143603 53,29.2900844 53,28.2919702 L53,10.2921687 C53.6650124,11.0326154 54.4282481,11.6904814 55.2899454,12.2644169 C60.7609926,15.9822134 64.516665,18.5896973 66.5571216,20.0858362 C67.4185012,20.7203573 68.1175782,21.2156824 68.6539553,21.5706203 C69.1904913,21.9257965 69.9047345,22.2885161 70.7962878,22.6586203 C71.6878412,23.0292804 72.519206,23.2140546 73.2899851,23.2140546 L73.3127742,23.2140546 L73.3358809,23.2140546 C74.1068189,23.2140546 74.9377072,23.0292804 75.8292605,22.6586203 C76.7211315,22.2885161 77.4348983,21.9257965 77.9715931,21.5706203 C78.5082878,21.2156824 79.2071266,20.7203573 80.0685856,20.0858362 C82.6375583,18.22666 86.40133,15.619335 91.3580744,12.2644169 Z M56.8992357,9.83892804 C55.9623424,9.20424814 55.0779355,8.33135484 54.2468883,7.22048635 C53.4157618,6.10969727 53,5.07791563 53,4.12577667 C53,2.94701737 53.3135682,1.96462531 53.9407047,1.1786799 C54.5679206,0.3928933 55.4634442,0 56.6271166,0 L89.9980347,0 C90.9801092,0 91.8303722,0.35501737 92.548268,1.06544913 C93.2662432,1.77572208 93.6253896,2.62971712 93.6253896,3.62735484 C93.6253896,4.82120099 93.2552854,5.96232258 92.5142829,7.05008437 C91.7738362,8.13832258 90.8521092,9.06799007 89.7488635,9.83845161 C84.0663623,13.7832655 80.5294491,16.2393251 79.1392357,17.2063921 C78.988129,17.312397 78.6666998,17.5425112 78.1756625,17.898005 C77.6843077,18.2534194 77.2764864,18.5406253 76.9514839,18.7597022 C76.6264814,18.9786203 76.2335881,19.2240596 75.7727246,19.4963375 C75.3120993,19.7678213 74.8771216,19.9724467 74.4692208,20.1077519 C74.0610819,20.2440893 73.6831166,20.3117419 73.3355633,20.3117419 L73.3126948,20.3117419 L73.2899057,20.3117419 C72.9423524,20.3117419 72.5645459,20.2441687 72.1564069,20.1077519 C71.7483474,19.9724467 71.3137667,19.7680596 70.8527444,19.4963375 C70.3915633,19.2243772 69.99867,18.9786998 69.6736675,18.7597022 C69.3489032,18.5406253 68.9407643,18.2534194 68.4495682,17.898005 C67.9584516,17.5428288 67.6374194,17.312397 67.4863127,17.2063921 C66.1109479,16.2393251 64.1310769,14.8603871 61.5466203,13.0694988 C58.9622432,11.2786104 57.4131414,10.2015682 56.8992357,9.83892804 Z" id="Path-2"></path>
            </g>
        </g>
    </g>
</svg>