<?xml version="1.0" encoding="UTF-8"?>
<svg width="46px" height="46px" viewBox="0 0 46 46" version="1.1" xmlns="http://www.w3.org/2000/svg" xmlns:xlink="http://www.w3.org/1999/xlink">
    <!-- Generator: Sketch 52.6 (67491) - http://www.bohemiancoding.com/sketch -->
    <title>Group 2</title>
    <desc>Created with Sketch.</desc>
    <g id="Web" stroke="none" stroke-width="1" fill="none" fill-rule="evenodd">
        <g id="4-User-profile-4" transform="translate(-765.000000, -382.000000)">
            <g id="Group-3" transform="translate(735.000000, 233.000000)">
                <g id="Group-4" transform="translate(30.000000, 146.000000)">
                    <g id="Group-2" transform="translate(0.000000, 3.000000)">
                        <circle id="Oval" fill="#0CBC2A" cx="23" cy="23" r="23"></circle>
                        <g id="play-circle" transform="translate(11.000000, 11.000000)" fill="#FFFFFF" fill-rule="nonzero">
                            <path d="M22.7475742,6.07162791 C21.6573799,4.20393083 20.1786011,2.72515197 18.3108484,1.63501334 C16.4427621,0.544930315 14.4034851,0 12.1914606,0 C9.97965841,0 7.93976979,0.544930315 6.07201711,1.63501334 C4.20415322,2.72498517 2.72537437,4.20376403 1.63518014,6.07162791 C0.544930315,7.93960299 0,9.97949161 0,12.191127 C0,14.4028735 0.545097113,16.4424285 1.63501334,18.3105148 C2.72515197,20.1782119 4.20393083,21.6569907 6.07179471,22.7472406 C7.93976979,23.837268 9.97949161,24.3822539 12.1912382,24.3822539 C14.4029847,24.3822539 16.4429289,23.837268 18.3107928,22.7472406 C20.1785455,21.6573799 21.6572687,20.1782119 22.7473518,18.3105148 C23.837268,16.4425953 24.3821427,14.4027623 24.3821427,12.191127 C24.3821983,9.97926921 23.837268,7.939325 22.7475742,6.07162791 Z M19.6678644,16.5246045 C18.8953655,17.8473713 17.8477605,18.8953655 16.5249937,19.6678644 C15.202227,20.4403633 13.757753,20.8262236 12.1912938,20.8262236 C10.6252237,20.8262236 9.18063856,20.4403633 7.85770499,19.6678644 C6.53493822,18.8953099 5.48733318,17.8473713 4.71483427,16.5246045 C3.94216856,15.2018378 3.55597471,13.7573082 3.55597471,12.191127 C3.55597471,10.6248345 3.94233536,9.18030496 4.71483427,7.85753819 C5.48716638,6.53477142 6.53504942,5.48694398 7.85770499,4.71450067 C9.18047176,3.94194617 10.6250013,3.55580791 12.1912938,3.55580791 C13.7576974,3.55580791 15.202227,3.94194617 16.5249937,4.71450067 C17.8477605,5.48699958 18.8954211,6.53477142 19.6678644,7.85753819 C20.4404189,9.18030496 20.826446,10.6248345 20.826446,12.191127 C20.826446,13.7573082 20.4404189,15.2018378 19.6678644,16.5246045 Z" id="Shape"></path>
                            <path d="M18.2872742,11.3178818 L9.65156599,6.23831509 C9.32375157,6.03721185 8.98487286,6.0319855 8.63570824,6.22252485 C8.29710753,6.4235169 8.12775157,6.71969523 8.12775157,7.11122663 L8.12775157,17.2706381 C8.12775157,17.6620583 8.29710753,17.958459 8.63570824,18.1593955 C8.8050642,18.2440179 8.97430896,18.2864958 9.14360932,18.2864958 C9.32341797,18.2864958 9.49294073,18.2389027 9.65156599,18.143772 L18.2872742,13.0641497 C18.6257637,12.8736659 18.7951197,12.5826028 18.7951197,12.1912938 C18.7951197,11.7998736 18.6253746,11.5084212 18.2872742,11.3178818 Z" id="Path"></path>
                        </g>
                    </g>
                </g>
            </g>
        </g>
    </g>
</svg>