<?xml version="1.0" encoding="UTF-8"?>
<svg width="21px" height="15px" viewBox="0 0 21 15" version="1.1" xmlns="http://www.w3.org/2000/svg" xmlns:xlink="http://www.w3.org/1999/xlink">
    <!-- Generator: Sketch 52.6 (67491) - http://www.bohemiancoding.com/sketch -->
    <title>correct-symbol</title>
    <desc>Created with Sketch.</desc>
    <g id="Symbols" stroke="none" stroke-width="1" fill="none" fill-rule="evenodd">
        <g id="Orders-done" transform="translate(-1015.000000, -97.000000)" fill="#0CBC2A" fill-rule="nonzero">
            <g id="Group-5">
                <g id="Group-4">
                    <g id="correct-symbol" transform="translate(1015.000000, 97.000000)">
                        <path d="M20.5578337,2.07063843 L18.8030267,0.35348696 C18.5624119,0.11785847 18.2697783,0 17.925804,0 C17.5815133,0 17.2888797,0.11785847 17.0482649,0.35348696 L8.58363072,8.64899846 L4.79006057,4.92418435 C4.54917458,4.68846741 4.25672181,4.57074162 3.91274747,4.57074162 C3.56854715,4.57074162 3.27609439,4.68846741 3.0352084,4.92418435 L1.28040143,6.64138004 C1.03951545,6.87705276 0.919117647,7.16331838 0.919117647,7.50008845 C0.919117647,7.83659318 1.03951545,8.12312414 1.28040143,8.35875263 L5.95128469,12.9293173 L7.70622724,14.6464688 C7.94697765,14.8822742 8.2395208,15 8.58363072,15 C8.92760507,15 9.22014822,14.8819646 9.46103421,14.6464688 L11.2159316,12.9293173 L20.5578337,3.78792257 C20.7984937,3.55220563 20.9191174,3.26598423 20.9191174,2.92921416 C20.9192982,2.59262098 20.7984937,2.30635537 20.5578337,2.07063843 Z" id="Path"></path>
                    </g>
                </g>
            </g>
        </g>
    </g>
</svg>