<?xml version="1.0" encoding="UTF-8"?>
<svg width="32px" height="32px" viewBox="0 0 32 32" version="1.1" xmlns="http://www.w3.org/2000/svg" xmlns:xlink="http://www.w3.org/1999/xlink">
    <!-- Generator: Sketch 52.6 (67491) - http://www.bohemiancoding.com/sketch -->
    <title>telephone-handle-silhouette</title>
    <desc>Created with Sketch.</desc>
    <g id="Web" stroke="none" stroke-width="1" fill="none" fill-rule="evenodd">
        <g id="11-Contacts" transform="translate(-1141.000000, -207.000000)" fill="#FFC240" fill-rule="nonzero">
            <g id="envelope" transform="translate(1072.000000, 207.000000)">
                <g id="Group">
                    <g id="telephone-handle-silhouette" transform="translate(69.000000, 0.000000)">
                        <path d="M31.9306667,24.7940299 C31.8401592,24.5213134 31.2643184,24.1195622 30.2035423,23.5897313 C29.9161791,23.4227264 29.5067065,23.1957811 28.9768756,22.9078607 C28.4465672,22.6199403 27.9652139,22.3546269 27.5336915,22.1121592 C27.1012935,21.8697711 26.696199,21.6349453 26.3176915,21.408 C26.257194,21.3625473 26.0678209,21.2301692 25.7496517,21.00999 C25.4311642,20.7904478 25.1625871,20.6275025 24.9424876,20.5212338 C24.7228657,20.415602 24.5068259,20.3624279 24.2946866,20.3624279 C23.9917214,20.3624279 23.6132935,20.5784677 23.1589254,21.00999 C22.7045572,21.4420697 22.2877612,21.911403 21.9091741,22.4194229 C21.5305075,22.927204 21.1289154,23.3965373 20.7051144,23.8283781 C20.2806766,24.2603781 19.9319403,24.4761791 19.6595423,24.4761791 C19.5227861,24.4761791 19.3522786,24.4380498 19.1479403,24.3628259 C18.9436816,24.2871244 18.7882985,24.2222488 18.6816318,24.1699502 C18.5759204,24.1165373 18.3945075,24.0108259 18.1367562,23.8512239 C17.8785274,23.6920995 17.7349254,23.6049353 17.7046766,23.5897313 C15.6290547,22.4379701 13.8489154,21.1197612 12.3639403,19.6354229 C10.8794428,18.150209 9.56107463,16.3702289 8.40963184,14.2943682 C8.39450746,14.2640398 8.30718408,14.1200398 8.14821891,13.862607 C7.98901493,13.6049353 7.88290547,13.4233632 7.82989055,13.3170149 C7.77687562,13.2110647 7.71247761,13.0556816 7.63685572,12.8511841 C7.56123383,12.6466866 7.52326368,12.4763383 7.52326368,12.3398209 C7.52326368,12.0672637 7.73922388,11.718607 8.17106468,11.2943284 C8.60282587,10.8702886 9.07263682,10.4686169 9.5800199,10.0901095 C10.087801,9.71160199 10.5571343,9.29480597 10.9890547,8.84043781 C11.4208159,8.38583085 11.6366965,8.00724378 11.6366965,7.70427861 C11.6366965,7.49229851 11.5836816,7.2761791 11.4777313,7.05655721 C11.3717015,6.83645771 11.2088358,6.5678806 10.9890547,6.24955224 C10.769194,5.93138308 10.6366567,5.74216915 10.5911244,5.68127363 C10.3640995,5.30276617 10.1295124,4.89751244 9.88680597,4.46567164 C9.6440995,4.03391045 9.37918408,3.55263682 9.09118408,3.02240796 C8.80342289,2.49241791 8.57631841,2.08318408 8.40947264,1.79534328 C7.87948259,0.734965174 7.47804975,0.158965174 7.20525373,0.0683781095 C7.09914428,0.0229253731 6.9399403,0 6.7280398,0 C6.31872637,0 5.78475622,0.0756218905 5.12573134,0.227343284 C4.46646766,0.378825871 3.94770149,0.537711443 3.56887562,0.704636816 C2.81130348,1.02264677 2.00835821,1.94682587 1.159801,3.47685572 C0.387104478,4.90077612 0.0007960199,6.31012935 0.0007960199,7.7038806 C0.0007960199,8.11263682 0.0273034826,8.51032836 0.080318408,8.89703483 C0.133333333,9.28334328 0.228059701,9.71900498 0.364577114,10.2039403 C0.500855721,10.6887164 0.61078607,11.0488358 0.693890547,11.2833433 C0.777074627,11.51801 0.932378109,11.9383881 1.15972139,12.5446368 C1.38674627,13.1507264 1.52326368,13.5217512 1.56871642,13.6581095 C2.09894527,15.143005 2.72772139,16.4686169 3.45488557,17.6353433 C4.65130348,19.574607 6.2840199,21.5787463 8.3520796,23.6469652 C10.4202189,25.7150249 12.4239602,27.3476617 14.3633831,28.5445572 C15.5299502,29.2716418 16.8560398,29.9003383 18.3406965,30.4309652 C18.4771343,30.4761791 18.8481592,30.6123781 19.45401,30.840199 C20.0600995,31.0673831 20.4806368,31.2226866 20.7153035,31.3060299 C20.9500498,31.3894527 21.3102488,31.4994627 21.7946269,31.6359801 C22.2800398,31.7724975 22.7153035,31.8672239 23.1016119,31.9206368 C23.4881592,31.9729353 23.8859303,31.9999204 24.2947662,31.9999204 C25.6884378,31.9999204 27.0978706,31.6133731 28.5220299,30.8407562 C30.0519005,29.9925174 30.9758408,29.1894129 31.29401,28.4312836 C31.4613333,28.0528557 31.6198209,27.5339303 31.7713035,26.8746667 C31.9232637,26.2157214 31.9987264,25.6818308 31.9987264,25.272597 C31.999204,25.0598209 31.9763582,24.9010149 31.9306667,24.7940299 Z" id="Path"></path>
                    </g>
                </g>
            </g>
        </g>
    </g>
</svg>