<?xml version="1.0" encoding="UTF-8"?>
<svg width="107px" height="107px" viewBox="0 0 107 107" version="1.1" xmlns="http://www.w3.org/2000/svg" xmlns:xlink="http://www.w3.org/1999/xlink">
    <title>Group 12</title>
    <g id="Web" stroke="none" stroke-width="1" fill="none" fill-rule="evenodd">
        <g id="1-Main" transform="translate(-1125.000000, -4568.000000)">
            <g id="Group-8" transform="translate(228.000000, 4370.000000)">
                <g id="Group-12" transform="translate(897.000000, 198.000000)">
                    <g id="Group" transform="translate(0.000000, 69.000000)">
                        <rect id="Rectangle" fill="#FFC240" x="0" y="0" width="38" height="38" rx="5"></rect>
                        <path d="M29.2750602,17.1816424 L14.7765564,7.31333448 C14.2444799,6.9521927 13.5381425,6.89780388 12.9549495,7.1784502 C12.3671096,7.45692097 12,8.02256472 12,8.63389508 L12,28.3639842 C12,28.9818412 12.3671096,29.5453094 12.9549495,29.8237802 C13.2035617,29.9412601 13.4754086,30 13.7495791,30 C14.1073947,30 14.4698573,29.8933979 14.7765564,29.6823693 L29.2750602,19.8227636 C29.7327854,19.5073084 30,19.0199846 30,18.502203 C30.0023088,17.9757192 29.7281384,17.4905709 29.2750602,17.1816424 Z" id="Path" fill="#FFFFFF" fill-rule="nonzero"></path>
                    </g>
                    <g id="Group" transform="translate(48.000000, 0.000000)">
                        <rect id="Rectangle" fill="#FFC240" x="0" y="0" width="59" height="59" rx="8"></rect>
                        <path d="M44.8723158,27.4938036 L22.3190877,12.4768133 C21.4914132,11.9272498 20.3926662,11.8444842 19.485477,12.2715547 C18.5710593,12.6953145 18,13.5560767 18,14.4863621 L18,44.5104108 C18,45.450628 18.5710593,46.3080796 19.485477,46.7318395 C19.8722071,46.9106132 20.2950801,47 20.7215674,47 C21.2781695,47 21.8420002,46.8377794 22.3190877,46.5166489 L44.8723158,31.5129011 C45.5843328,31.0328606 46,30.2912809 46,29.5033524 C46.0035915,28.7021814 45.5771042,27.9639122 44.8723158,27.4938036 Z" id="Path" fill="#FFFFFF" fill-rule="nonzero"></path>
                    </g>
                </g>
            </g>
        </g>
    </g>
</svg>