<svg width="9" height="14" viewBox="0 0 9 14" fill="none" xmlns="http://www.w3.org/2000/svg">
<path d="M1.04289 11.5429C0.652369 11.9334 0.652369 12.5666 1.04289 12.9571C1.43342 13.3476 2.06658 13.3476 2.45711 12.9571L1.04289 11.5429ZM7.25 6.75L7.95711 7.45711C8.34763 7.06658 8.34763 6.43342 7.95711 6.04289L7.25 6.75ZM2.45711 0.542893C2.06658 0.152369 1.43342 0.152369 1.04289 0.542893C0.652368 0.933417 0.652368 1.56658 1.04289 1.95711L2.45711 0.542893ZM2.45711 12.9571L7.95711 7.45711L6.54289 6.04289L1.04289 11.5429L2.45711 12.9571ZM7.95711 6.04289L2.45711 0.542893L1.04289 1.95711L6.54289 7.45711L7.95711 6.04289Z" fill="black"/>
</svg>
