<?xml version="1.0" encoding="UTF-8"?>
<svg width="118px" height="100px" viewBox="0 0 118 100" version="1.1" xmlns="http://www.w3.org/2000/svg" xmlns:xlink="http://www.w3.org/1999/xlink">
    <!-- Generator: Sketch 52.6 (67491) - http://www.bohemiancoding.com/sketch -->
    <title>right-quotation-mark</title>
    <desc>Created with Sketch.</desc>
    <g id="Web" stroke="none" stroke-width="1" fill="none" fill-rule="evenodd" opacity="0.15">
        <g id="2-Star-profile-3" transform="translate(-571.000000, -876.000000)" fill="#BFBFBF" fill-rule="nonzero">
            <g id="Group-9" transform="translate(150.000000, 861.000000)">
                <g id="right-quotation-mark" transform="translate(421.000000, 15.000000)">
                    <path d="M40.8074442,0.13573201 L13.6024814,0.13573201 C9.8235732,0.13573201 6.61215881,1.45831266 3.96674938,4.10272953 C1.32258065,6.74764268 0,9.95905707 0,13.7382134 L0,40.9421836 C0,44.7210918 1.32183623,47.9320099 3.96674938,50.5764268 C6.61191067,53.2205955 9.82431762,54.5436725 13.6024814,54.5436725 L29.4717122,54.5436725 C31.3602978,54.5436725 32.9665012,55.2052109 34.2890819,56.5272953 C35.6116625,57.8486352 36.2727047,59.455335 36.2727047,61.3454094 L36.2727047,63.6111663 C36.2727047,68.617866 34.5012407,72.8908189 30.9593052,76.4337469 C27.4171216,79.974938 23.1431762,81.7461538 18.1359801,81.7461538 L13.6024814,81.7461538 C12.3736973,81.7461538 11.3114144,82.1960298 10.4136476,83.092804 C9.51662531,83.9895782 9.06774194,85.0526055 9.06774194,86.2806452 L9.06774194,95.3498759 C9.06774194,96.5759305 9.51662531,97.6409429 10.4136476,98.5379653 C11.3121588,99.4344913 12.3734491,99.8846154 13.6024814,99.8846154 L18.1362283,99.8846154 C23.0486352,99.8846154 27.7362283,98.926799 32.1997519,97.0146402 C36.6630273,95.1022333 40.5238213,92.5156328 43.7828784,89.2565757 C47.0411911,85.9972705 49.6272953,82.1372208 51.5399504,77.6736973 C53.4523573,73.2104218 54.408933,68.5230769 54.408933,63.6114144 L54.408933,13.7372208 C54.408933,9.95806452 53.0863524,6.74689826 50.4419355,4.10248139 C47.7975186,1.45806452 44.5853598,0.13573201 40.8074442,0.13573201 Z" id="Path"></path>
                    <path d="M113.917866,4.10272953 C111.273697,1.45831266 108.062035,0.13573201 104.283127,0.13573201 L77.0791563,0.13573201 C73.3002481,0.13573201 70.0888337,1.45831266 67.4444169,4.10272953 C64.8002481,6.74789082 63.4781638,9.95905707 63.4781638,13.7382134 L63.4781638,40.9421836 C63.4781638,44.7210918 64.8002481,47.9320099 67.4444169,50.5764268 C70.0888337,53.2205955 73.3004963,54.5436725 77.0791563,54.5436725 L92.9483871,54.5436725 C94.8369727,54.5436725 96.4444169,55.2052109 97.7667494,56.5272953 C99.0878412,57.8493797 99.7503722,59.455335 99.7503722,61.3454094 L99.7503722,63.6111663 C99.7503722,68.617866 97.9789082,72.8908189 94.4362283,76.4337469 C90.8942928,79.974938 86.62134,81.7461538 81.6136476,81.7461538 L77.0791563,81.7461538 C75.8513648,81.7461538 74.7880893,82.1960298 73.8913151,83.092804 C72.9937965,83.9895782 72.5444169,85.0526055 72.5444169,86.2806452 L72.5444169,95.3498759 C72.5444169,96.5759305 72.9937965,97.6409429 73.8913151,98.5379653 C74.7878412,99.4344913 75.8511166,99.8846154 77.0791563,99.8846154 L81.6136476,99.8846154 C86.5253102,99.8846154 91.2126551,98.926799 95.6766749,97.0146402 C100.139206,95.1022333 103.999504,92.5156328 107.258809,89.2565757 C110.517866,85.9972705 113.105459,82.1362283 115.016873,77.6736973 C116.929032,73.2114144 117.886104,68.5230769 117.886104,63.6114144 L117.886104,13.7372208 C117.88536,9.95806452 116.56402,6.74689826 113.917866,4.10272953 Z" id="Path"></path>
                </g>
            </g>
        </g>
    </g>
</svg>