<svg width="36" height="36" viewBox="0 0 36 36" fill="none" xmlns="http://www.w3.org/2000/svg">
<path d="M34.65 13.7814H18C17.8611 13.7797 17.7232 13.8059 17.5945 13.8583C17.4659 13.9107 17.349 13.9883 17.2507 14.0865C17.1525 14.1848 17.0749 14.3017 17.0225 14.4304C16.9701 14.559 16.9439 14.6969 16.9456 14.8358V21.1642C16.9439 21.3031 16.9701 21.441 17.0225 21.5697C17.0749 21.6984 17.1525 21.8152 17.2507 21.9135C17.349 22.0117 17.4659 22.0893 17.5945 22.1417C17.7232 22.1941 17.8611 22.2203 18 22.2186H26.5007C25.5875 24.0339 24.1252 25.515 22.3219 26.4515C22.1049 26.5633 21.8823 26.6665 21.6587 26.7622C21.5451 26.8096 21.4314 26.857 21.3167 26.8977C21.0865 26.9839 20.8525 27.0616 20.6147 27.1288C19.7643 27.3713 18.8843 27.4937 18 27.4926C13.7368 27.4926 10.1113 24.6449 8.90526 20.7663C8.36968 18.9629 8.36968 17.0428 8.90526 15.2394C10.1075 11.3552 13.7368 8.51307 18 8.51307C18.5115 8.5131 19.0222 8.55396 19.5272 8.63529C21.04 8.88095 22.4705 9.49054 23.6956 10.4116C23.8088 10.4969 23.938 10.5584 24.0756 10.5924C24.2132 10.6265 24.3562 10.6323 24.4961 10.6096C24.7136 10.5732 24.9132 10.4668 25.0645 10.3064L29.5787 5.81308C29.6779 5.70965 29.7552 5.58731 29.8059 5.45334C29.8567 5.31938 29.88 5.17655 29.8743 5.03339C29.8668 4.8845 29.8294 4.73864 29.7643 4.60453C29.6992 4.47041 29.6077 4.35078 29.4954 4.25276C27.397 2.48168 24.9242 1.20966 22.2632 0.53245C22.1372 0.50024 22.0112 0.469924 21.8842 0.437714C21.6316 0.378977 21.3767 0.326555 21.1197 0.28045C20.9918 0.256766 20.8639 0.234977 20.7351 0.214134C20.4783 0.173398 20.2197 0.137398 19.9611 0.108029C19.3099 0.034876 18.6552 -0.00118218 18 2.95479e-05C11.4395 2.95479e-05 5.68421 3.61424 2.55789 8.88729C0.975789 11.5456 0 14.6662 0 18C0 21.3338 0.977684 24.4544 2.55789 27.1127C5.68421 32.3858 11.4395 36 18 36C22.4091 36 26.4591 34.3269 29.5806 31.6895C29.9444 31.3819 30.2962 31.0595 30.636 30.7222C33.9158 27.4737 36 22.9699 36 18L34.65 13.7814Z" fill="black"/>
</svg>
