<svg width="38" height="22" viewBox="0 0 38 22" fill="none" xmlns="http://www.w3.org/2000/svg">
<path d="M37.6617 19.6241C37.5595 19.4502 36.9277 18.0575 33.8875 15.1935C30.7047 12.1949 31.1322 12.6814 34.9657 7.49671C37.3009 4.33842 38.2341 2.40985 37.9417 1.58558C37.6641 0.799771 35.9467 1.00709 35.9467 1.00709L30.2369 1.04053C30.2369 1.04053 29.8135 0.982849 29.4956 1.17345C29.1776 1.36405 28.9923 1.79541 28.9923 1.79541C28.9923 1.79541 28.0862 4.23978 26.8803 6.318C24.3368 10.7026 23.3179 10.9342 22.9019 10.665C21.9349 10.0305 22.1779 8.11449 22.1779 6.75521C22.1779 2.50515 22.8121 0.736238 20.9423 0.274783C20.3204 0.123473 19.8641 0.0239933 18.2752 0.00476602C16.2374 -0.0161332 14.5101 0.0122897 13.534 0.497151C12.8833 0.819835 12.3809 1.54044 12.6889 1.58391C13.0662 1.6349 13.9245 1.81798 14.375 2.44496C14.9615 3.2525 14.9401 5.0699 14.9401 5.0699C14.9401 5.0699 15.2778 10.0723 14.1543 10.6935C13.3825 11.1206 12.3257 10.2504 10.0572 6.27035C8.8958 4.22808 8.01692 1.97096 8.01692 1.97096C8.01692 1.97096 7.85218 1.55298 7.54659 1.32727C7.18087 1.05474 6.66771 0.968636 6.66771 0.968636L1.23792 1.00208C1.23792 1.00208 0.42329 1.02632 0.123466 1.38578C-0.141763 1.70596 0.102874 2.36638 0.102874 2.36638C0.102874 2.36638 4.35396 12.4599 9.1635 17.5484C13.5793 22.2131 18.5907 21.9071 18.5907 21.9071H20.8616C20.8616 21.9071 21.5477 21.8294 21.897 21.4465C22.2207 21.0946 22.2083 20.4342 22.2083 20.4342C22.2083 20.4342 22.163 17.3411 23.579 16.8855C24.9735 16.4374 26.7642 19.8749 28.662 21.1982C30.0969 22.2014 31.1866 21.979 31.1866 21.979L36.2622 21.9071C36.2622 21.9071 38.9203 21.7433 37.6617 19.6241Z" fill="#707070"/>
</svg>
