<svg width="122" height="95" viewBox="0 0 122 95" fill="none" xmlns="http://www.w3.org/2000/svg">
<path d="M13.751 78.3134C11.7525 78.3354 9.77247 77.9281 7.94414 77.1188C6.23896 76.3699 4.74461 75.2105 3.59375 73.7436L7.60367 68.9082C9.28708 71.2026 11.2164 72.3593 13.3916 72.3593C16.3234 72.3593 17.7987 70.6338 17.7987 67.1637V52.2595H6.84708V46.4571L24.9674 46.7416V66.7655C24.9674 70.6148 24.0154 73.5034 22.1113 75.4312C20.2198 77.3463 17.4204 78.3134 13.751 78.3134ZM46.0573 78.3134C42.804 78.3134 39.8911 77.6118 37.2809 76.2086C34.746 74.883 32.6254 72.8817 31.1525 70.4252C29.6772 67.9601 28.9395 65.2106 28.9395 62.1388C28.8989 59.3142 29.6669 56.5371 31.1525 54.1368C32.6254 51.6802 34.746 49.6789 37.2809 48.3533C39.8911 46.9501 42.8229 46.2485 46.0573 46.2485C49.2917 46.2485 52.2235 46.9501 54.8148 48.3533C57.3421 49.6896 59.4601 51.6885 60.9432 54.1368C62.4432 56.5317 63.2185 59.3112 63.1751 62.1388C63.1751 65.2106 62.4375 67.9601 60.9432 70.4252C59.4601 72.8735 57.3421 74.8723 54.8148 76.2086C52.2235 77.6118 49.3106 78.3134 46.0573 78.3134ZM46.0573 72.2455C47.7988 72.2735 49.5161 71.835 51.0319 70.9751C52.4996 70.1359 53.7098 68.9095 54.5311 67.4292C55.3823 65.9122 55.7984 64.1867 55.7984 62.2525C55.8337 60.5359 55.3951 58.8429 54.5311 57.3603C53.7153 55.8759 52.5037 54.6482 51.0319 53.8144C49.5055 52.9813 47.7953 52.5448 46.0573 52.5448C44.3194 52.5448 42.6091 52.9813 41.0827 53.8144C39.6194 54.6731 38.4081 55.9037 37.5712 57.382C36.7343 58.8603 36.3014 60.5338 36.3162 62.2336C36.3162 64.1677 36.7324 65.8933 37.5835 67.4102C38.3993 68.8946 39.6109 70.1223 41.0827 70.9561C42.5935 71.8306 44.3131 72.2763 46.0573 72.2455Z" fill="black"/>
<path fill-rule="evenodd" clip-rule="evenodd" d="M71.9705 0L85.9674 33.0888L121.905 36.1228L94.6682 59.8254L102.802 95L71.9705 66.9361L90.7907 78.4082L85.7783 56.981L102.329 42.5699L80.4822 40.6737L71.9705 20.479L63.4589 40.6737H0L58.0682 33.0888L71.9705 0Z" fill="black"/>
<path fill-rule="evenodd" clip-rule="evenodd" d="M68.6987 47.1209C69.1905 46.552 69.8904 46.2676 70.8361 46.2676V48.7326C70.6364 48.6958 70.4339 48.6768 70.2308 48.6758C69.304 48.6758 68.8311 49.1498 68.8311 50.1169V53.0939H66.1074V46.3814H68.6987V47.1209ZM78.7803 46.4762V53.1887H76.2079V52.544C75.9717 52.7881 75.6886 52.9817 75.3756 53.1129C75.051 53.2431 74.7039 53.3075 74.3543 53.3025C73.9848 53.3169 73.6164 53.2554 73.2715 53.1217C72.9267 52.988 72.6129 52.785 72.3493 52.5251C71.8386 52.0131 71.5927 51.2167 71.5927 50.1738V46.4762H74.2975V49.6997C74.275 50.0413 74.347 50.3825 74.5056 50.6857C74.5769 50.7883 74.6739 50.8702 74.7867 50.9235C74.8996 50.9767 75.0244 50.9994 75.1487 50.9891C75.2763 50.9899 75.4024 50.9612 75.5172 50.9053C75.6319 50.8494 75.7324 50.7678 75.8107 50.6668C75.9809 50.4582 76.0755 50.1169 76.0755 49.6428V46.4951H78.7803V46.4762Z" fill="black"/>
</svg>
