<svg width="26" height="26" viewBox="0 0 26 26" fill="none" xmlns="http://www.w3.org/2000/svg">
<path d="M13 1C6.38332 1 1 6.38332 1 13C1 19.6167 6.38332 25 13 25C19.6167 25 25 19.6167 25 13C25 6.38332 19.6167 1 13 1ZM13 23.5C7.2102 23.5 2.50001 18.7898 2.50001 13C2.50001 7.2102 7.2102 2.50001 13 2.50001C18.7898 2.50001 23.5 7.2102 23.5 13C23.5 18.7898 18.7898 23.5 13 23.5Z" fill="black" stroke="black" stroke-width="0.3"/>
<path d="M13.75 5.5H12.25V13.3105L16.9697 18.0302L18.0303 16.9697L13.75 12.6894V5.5Z" fill="black" stroke="black" stroke-width="0.3"/>
</svg>
