<svg width="34" height="34" viewBox="0 0 34 34" fill="none" xmlns="http://www.w3.org/2000/svg">
<path d="M29.0189 0H4.98027C3.65991 0.00157464 2.39407 0.526773 1.46043 1.46039C0.526786 2.39401 0.00157468 3.65982 0 4.98015V29.0198C0.00157468 30.3402 0.526786 31.606 1.46043 32.5396C2.39407 33.4732 3.65991 33.9984 4.98027 34H15.0105V21.9802H11.0239V16.0038H15.008V11.9536C15.0096 10.3689 15.6397 8.84965 16.7601 7.72907C17.8806 6.60849 19.3998 5.97815 20.9845 5.97635H27.0281V11.9536H20.9845V16.0038H27.0281L26.0319 21.9802H20.9845V34H29.0189C30.3393 33.9984 31.6052 33.4733 32.539 32.5397C33.4728 31.6061 33.9982 30.3403 34 29.0198V4.98015C33.9982 3.65974 33.4728 2.39393 32.539 1.46034C31.6052 0.526746 30.3393 0.00157418 29.0189 0Z" fill="black"/>
</svg>
