<svg width="61" height="39" viewBox="0 0 61 39" fill="none" xmlns="http://www.w3.org/2000/svg">
<path d="M60.9999 35.3158C60.9999 35.8616 60.711 36.3752 60.2294 36.6963C59.9725 36.8568 59.6836 36.921 59.3946 36.921C59.1378 36.921 58.9131 36.8568 58.6883 36.7605L44.9473 29.89V26.2942L57.7894 32.7152V5.81104L44.9473 12.2321V8.6363L58.6883 1.76577C59.1699 1.50893 59.7799 1.54103 60.2294 1.82998C60.711 2.15103 60.9999 2.66472 60.9999 3.21051V35.3158Z" fill="#4F4E56"/>
<path d="M41.8975 26.5832C42.3148 25.7805 43.278 25.4595 44.0485 25.8447L44.9475 26.2942V29.89L42.6359 28.7342C42.058 28.4453 41.7369 27.8674 41.7369 27.2895C41.7369 27.0326 41.8011 26.8079 41.8975 26.5832Z" fill="#4F4E56"/>
<path d="M44.0485 25.8447C43.278 25.4594 42.3148 25.7805 41.8975 26.5831C41.8011 26.8079 41.7369 27.0326 41.7369 27.2894V11.2368C41.7369 11.4937 41.8011 11.7184 41.8975 11.9431C42.3148 12.7458 43.278 13.0668 44.0485 12.6816L44.9475 12.2321V26.2942L44.0485 25.8447Z" fill="#4F4E56"/>
<path d="M41.8975 11.9431C41.8011 11.7184 41.7369 11.4937 41.7369 11.2368C41.7369 10.6589 42.058 10.081 42.6359 9.79208L44.9475 8.63629V12.2321L44.0485 12.6816C43.278 13.0668 42.3148 12.7458 41.8975 11.9431Z" fill="#4F4E56"/>
<path d="M0 6.42105C0 2.88947 2.88947 0 6.42105 0H38.5263C42.0579 0 44.9474 2.88947 44.9474 6.42105V8.63631L42.6358 9.79211C42.0579 10.0811 41.7368 10.6589 41.7368 11.2368V6.42105C41.7368 4.65526 40.2921 3.21053 38.5263 3.21053H6.42105C4.65526 3.21053 3.21053 4.65526 3.21053 6.42105V32.1053C3.21053 33.8711 4.65526 35.3158 6.42105 35.3158H38.5263C40.2921 35.3158 41.7368 33.8711 41.7368 32.1053V27.2895C41.7368 27.8674 42.0579 28.4453 42.6358 28.7342L44.9474 29.89V32.1053C44.9474 35.6368 42.0579 38.5263 38.5263 38.5263H6.42105C2.88947 38.5263 0 35.6368 0 32.1053V6.42105Z" fill="#4F4E56"/>
</svg>
