<svg width="32" height="32" viewBox="0 0 32 32" fill="none" xmlns="http://www.w3.org/2000/svg">
<path fill-rule="evenodd" clip-rule="evenodd" d="M16 32C24.8366 32 32 24.8366 32 16C32 7.16344 24.8366 0 16 0C7.16344 0 0 7.16344 0 16C0 24.8366 7.16344 32 16 32Z" fill="#4CBA38"/>
<path fill-rule="evenodd" clip-rule="evenodd" d="M7.86801 16.2677C8.25853 15.8772 8.8917 15.8772 9.28222 16.2677L13.5249 20.5104L22.7172 11.318C23.1078 10.9275 23.7409 10.9275 24.1315 11.318C24.522 11.7085 24.522 12.3417 24.1315 12.7322L14.9391 21.9246C14.158 22.7056 12.8917 22.7056 12.1106 21.9246L7.86801 17.6819C7.47748 17.2914 7.47748 16.6583 7.86801 16.2677Z" fill="white"/>
</svg>
