<svg width="29" height="28" viewBox="0 0 29 28" fill="none" xmlns="http://www.w3.org/2000/svg">
<path d="M21.9274 0H7.07257C3.18251 0 0 3.073 0 6.8292V21.1708C0.00217484 24.927 3.18469 28 7.07257 28H21.9274C25.8175 28 29 24.927 29 21.1708V6.8292C29 3.073 25.8175 0 21.9274 0ZM14.5011 19.691C13.3354 19.691 12.1959 19.3572 11.2267 18.7319C10.2574 18.1066 9.50201 17.2177 9.05592 16.1779C8.60983 15.138 8.49311 13.9937 8.72053 12.8897C8.94794 11.7858 9.50927 10.7718 10.3335 9.97586C11.1578 9.17995 12.208 8.63794 13.3513 8.41835C14.4945 8.19876 15.6796 8.31146 16.7565 8.7422C17.8335 9.17294 18.754 9.90237 19.4016 10.8383C20.0492 11.7741 20.3949 12.8744 20.3949 14C20.3949 15.5093 19.7739 16.9569 18.6686 18.0241C17.5633 19.0914 16.0642 19.691 14.5011 19.691ZM21.9274 8.54C21.5777 8.54 21.2359 8.43987 20.9451 8.25227C20.6543 8.06467 20.4277 7.79802 20.2939 7.48606C20.1601 7.17409 20.125 6.83081 20.1933 6.49962C20.2615 6.16844 20.4299 5.86423 20.6772 5.62546C20.9244 5.38669 21.2395 5.22408 21.5825 5.15821C21.9255 5.09233 22.281 5.12614 22.6041 5.25536C22.9272 5.38458 23.2033 5.60341 23.3976 5.88418C23.5919 6.16494 23.6956 6.49503 23.6956 6.8327C23.6956 7.2855 23.5093 7.71976 23.1777 8.03994C22.8461 8.36012 22.3964 8.54 21.9274 8.54Z" fill="#707070"/>
</svg>
