<svg width="58" height="59" viewBox="0 0 58 59" fill="none" xmlns="http://www.w3.org/2000/svg">
<path d="M50.5246 6.37762H6.8898C6.58526 6.37762 6.29319 6.4986 6.07784 6.71395C5.8625 6.92929 5.74152 7.22136 5.74152 7.52591V39.6779C5.74152 39.9824 5.8625 40.2745 6.07784 40.4898C6.29319 40.7052 6.58526 40.8261 6.8898 40.8261H50.5246C50.8291 40.8261 51.1212 40.7052 51.3365 40.4898C51.5519 40.2745 51.6729 39.9824 51.6729 39.6779V7.52591C51.6729 7.22136 51.5519 6.92929 51.3365 6.71395C51.1212 6.4986 50.8291 6.37762 50.5246 6.37762ZM49.3763 8.67419V27.1122L43.1538 22.6683C42.9771 22.542 42.7682 22.4683 42.5513 22.4559C42.3344 22.4435 42.1185 22.4929 41.9285 22.5983L32.3518 27.9194L23.7776 19.3452C23.5997 19.168 23.3687 19.0539 23.1198 19.0205C22.8709 18.9871 22.618 19.0362 22.3997 19.1603L8.03808 27.3648V8.67419H49.3763ZM8.03808 30.0093L22.774 21.5889L39.7146 38.5296H8.03808V30.0093ZM42.962 38.5296L34.0398 29.6074L42.4097 24.958L49.3763 29.9335V38.5296H42.962Z" fill="#4F4E56"/>
<path d="M53.9693 0.63623H3.44485C2.53122 0.63623 1.65501 0.999169 1.00897 1.6452C0.362939 2.29124 0 3.16745 0 4.08108V54.6056C0 55.5192 0.362939 56.3954 1.00897 57.0414C1.65501 57.6875 2.53122 58.0504 3.44485 58.0504H53.9693C54.883 58.0504 55.7592 57.6875 56.4052 57.0414C57.0512 56.3954 57.4142 55.5192 57.4142 54.6056V4.08108C57.4142 3.16745 57.0512 2.29124 56.4052 1.6452C55.7592 0.999169 54.883 0.63623 53.9693 0.63623ZM55.1176 54.6056C55.1176 54.9101 54.9966 55.2022 54.7813 55.4175C54.5659 55.6329 54.2739 55.7538 53.9693 55.7538H3.44485C3.14031 55.7538 2.84824 55.6329 2.63289 55.4175C2.41755 55.2022 2.29657 54.9101 2.29657 54.6056V4.08108C2.29657 3.77654 2.41755 3.48447 2.63289 3.26912C2.84824 3.05378 3.14031 2.9328 3.44485 2.9328H53.9693C54.2739 2.9328 54.5659 3.05378 54.7813 3.26912C54.9966 3.48447 55.1176 3.77654 55.1176 4.08108V54.6056Z" fill="#4F4E56"/>
<path d="M33.3002 23.6019C34.4357 23.6019 35.5458 23.2652 36.49 22.6343C37.4341 22.0034 38.17 21.1068 38.6046 20.0576C39.0391 19.0085 39.1528 17.8541 38.9313 16.7404C38.7098 15.6267 38.163 14.6037 37.36 13.8007C36.557 12.9978 35.534 12.4509 34.4203 12.2294C33.3066 12.0079 32.1522 12.1216 31.1031 12.5561C30.0539 12.9907 29.1573 13.7266 28.5264 14.6707C27.8955 15.6149 27.5588 16.725 27.5588 17.8605C27.5606 19.3827 28.1661 20.842 29.2424 21.9183C30.3187 22.9946 31.778 23.6001 33.3002 23.6019ZM33.3002 14.4156C33.9815 14.4156 34.6476 14.6177 35.2141 14.9962C35.7806 15.3747 36.2221 15.9127 36.4828 16.5422C36.7436 17.1717 36.8118 17.8643 36.6789 18.5326C36.5459 19.2008 36.2178 19.8146 35.7361 20.2964C35.2543 20.7781 34.6405 21.1062 33.9723 21.2392C33.304 21.3721 32.6114 21.3039 31.9819 21.0431C31.3524 20.7824 30.8144 20.3409 30.4359 19.7744C30.0574 19.2079 29.8553 18.5418 29.8553 17.8605C29.8553 16.9469 30.2183 16.0707 30.8643 15.4246C31.5104 14.7786 32.3866 14.4156 33.3002 14.4156Z" fill="#4F4E56"/>
</svg>
