<svg width="40" height="38" viewBox="0 0 40 38" fill="none" xmlns="http://www.w3.org/2000/svg">
<path fill-rule="evenodd" clip-rule="evenodd" d="M1.34516 14.1145L13.7327 13.0713C14.0394 13.0478 14.3049 12.8533 14.4229 12.5704L17.508 5.30987L19.3189 1.04312C19.5726 0.442006 20.4279 0.442006 20.6815 1.04312L22.4925 5.30987L25.5717 12.5704C25.6896 12.8533 25.9551 13.0478 26.2618 13.0713L38.6494 14.1145C39.3749 14.1734 39.6758 15.081 39.1213 15.5583L29.7362 23.7029C29.5062 23.9032 29.4059 24.2156 29.4708 24.5102L32.2315 36.397C32.4025 37.1337 31.5708 37.6936 30.9514 37.2575L20.4751 29.9262C20.1919 29.7258 19.8085 29.7258 19.5254 29.9262L9.04903 37.2575C8.42966 37.6936 7.59792 37.1337 7.76898 36.397L10.5296 24.5102C10.6004 24.2097 10.5001 23.9032 10.2642 23.7029L0.873249 15.5583C0.324657 15.081 0.619598 14.1734 1.34516 14.1145Z" fill="#C4C4C4"/>
</svg>
