<?xml version="1.0" encoding="UTF-8"?>
<svg width="32px" height="32px" viewBox="0 0 32 32" version="1.1" xmlns="http://www.w3.org/2000/svg" xmlns:xlink="http://www.w3.org/1999/xlink">
    <!-- Generator: Sketch 52.6 (67491) - http://www.bohemiancoding.com/sketch -->
    <title>001-magnifying-glass</title>
    <desc>Created with Sketch.</desc>
    <g id="Web" stroke="none" stroke-width="1" fill="none" fill-rule="evenodd">
        <g id="1-Main-(1)" transform="translate(-1218.000000, -660.000000)" fill="#FFC240" fill-rule="nonzero">
            <g id="Group-9" transform="translate(150.000000, 640.000000)">
                <g id="001-magnifying-glass" transform="translate(1068.000000, 20.000000)">
                    <path d="M31.2285042,27.7543529 L24.645042,21.1711597 C26.2315966,18.8808739 27.0252773,16.3276639 27.0252773,13.5128739 C27.0252773,11.6830924 26.6700504,9.93310924 25.9595966,8.26332773 C25.2496134,6.59327731 24.2898151,5.15381513 23.080605,3.94460504 C21.871395,2.73539496 20.4321345,1.77559664 18.7624202,1.06554622 C17.0921681,0.355294118 15.3423193,0.000201680672 13.5125378,0.000201680672 C11.6828908,0.000201680672 9.93290756,0.355294118 8.26312605,1.06554622 C6.59307563,1.77559664 5.15361345,2.73539496 3.94440336,3.94460504 C2.73505882,5.15381513 1.77539496,6.59354622 1.06527731,8.26332773 C0.355092437,9.93331092 0,11.6830924 0,13.5128739 C0,15.342521 0.355092437,17.0918992 1.06527731,18.7621513 C1.77532773,20.4319328 2.73505882,21.8711933 3.94440336,23.0804034 C5.15361345,24.2900168 6.59334454,25.2494118 8.26312605,25.9598655 C9.93310924,26.6699832 11.6828908,27.0250084 13.5125378,27.0250084 C16.3279328,27.0250084 18.8807395,26.2312605 21.1711597,24.6448403 L27.7546218,31.2089412 C28.2152605,31.6950588 28.7903193,31.9382857 29.4818824,31.9382857 C30.1472269,31.9382857 30.7233613,31.6951261 31.2092101,31.2089412 C31.6952605,30.7228908 31.9384874,30.1470252 31.9384874,29.4816807 C31.9386891,28.8038992 31.7019832,28.2278319 31.2285042,27.7543529 Z M19.5874286,19.5870924 C17.9048067,21.2699832 15.88,22.111395 13.5125378,22.111395 C11.145479,22.111395 9.12067227,21.2697815 7.43791597,19.5870924 C5.75515966,17.9044706 4.91381513,15.8799328 4.91381513,13.5124706 C4.91381513,11.1454118 5.75536134,9.12026891 7.43791597,7.43784874 C9.12033613,5.75502521 11.145479,4.9137479 13.5125378,4.9137479 C15.8797311,4.9137479 17.9045378,5.75536134 19.5874286,7.43784874 C21.2703193,9.12026891 22.1116639,11.1454118 22.1116639,13.5124706 C22.1116639,15.8799328 21.2700504,17.9044706 19.5874286,19.5870924 Z" id="Shape"></path>
                </g>
            </g>
        </g>
    </g>
</svg>