<svg width="18" height="18" viewBox="0 0 18 18" fill="none" xmlns="http://www.w3.org/2000/svg">
<path d="M12.375 10.1599V14.625H2.25V4.5H5.625V2.25H1.125C0.504 2.25 0 2.754 0 3.375V15.75C0 16.3721 0.504 16.875 1.125 16.875H13.5C14.1221 16.875 14.625 16.3721 14.625 15.75V10.1599H12.375Z" fill="black"/>
<path d="M17.775 4.61263L13.275 1.23763C13.1062 1.10938 12.8768 1.08913 12.6866 1.18475C12.4954 1.28038 12.375 1.475 12.375 1.68763V3.37513H10.6875C7.27537 3.37513 4.5 6.1505 4.5 9.56263C4.5 9.82363 4.68 10.0509 4.93313 10.1105C4.97588 10.1206 5.01975 10.1251 5.0625 10.1251C5.27175 10.1251 5.46863 10.0081 5.56538 9.81463L5.69813 9.55025C6.561 7.82338 8.29575 6.75013 10.2263 6.75013H12.375V8.43763C12.375 8.65025 12.4954 8.84488 12.6855 8.9405C12.8756 9.03613 13.1051 9.01588 13.275 8.88763L17.775 5.51263C17.9167 5.40688 18 5.23925 18 5.06263C18 4.886 17.9167 4.71838 17.775 4.61263Z" fill="black"/>
</svg>
