<?xml version="1.0" encoding="UTF-8"?>
<svg width="64px" height="64px" viewBox="0 0 64 64" version="1.1" xmlns="http://www.w3.org/2000/svg" xmlns:xlink="http://www.w3.org/1999/xlink">
    <!-- Generator: Sketch 64 (93537) - https://sketch.com -->
    <title>Shape</title>
    <desc>Created with Sketch.</desc>
    <g id="Web" stroke="none" stroke-width="1" fill="none" fill-rule="evenodd">
        <g id="6-Order-4" transform="translate(-688.000000, -326.000000)" fill="#0CBC2A" fill-rule="nonzero">
            <g id="Group-10" transform="translate(313.000000, 250.000000)">
                <g id="tick" transform="translate(375.000000, 76.000000)">
                    <path d="M18.88,25.92 L14.4,30.4 L28.8,44.8 L60.8,12.8 L56.32,8.32 L28.8,35.84 L18.88,25.92 Z M57.6,32 C57.6,46.08 46.08,57.6 32,57.6 C17.92,57.6 6.4,46.08 6.4,32 C6.4,17.92 17.92,6.4 32,6.4 C34.56,6.4 36.8,6.72 39.04,7.36 L44.1601255,2.24 C40.32,0.96 36.16,0 32,0 C14.4,0 0,14.4 0,32 C0,49.6 14.4,64 32,64 C49.6,64 64,49.6 64,32 L57.6,32 Z" id="Shape"></path>
                </g>
            </g>
        </g>
    </g>
</svg>