<?xml version="1.0" encoding="UTF-8"?>
<svg width="24px" height="21px" viewBox="0 0 24 21" version="1.1" xmlns="http://www.w3.org/2000/svg" xmlns:xlink="http://www.w3.org/1999/xlink">
    <!-- Generator: Sketch 52.6 (67491) - http://www.bohemiancoding.com/sketch -->
    <title>002-telegram</title>
    <desc>Created with Sketch.</desc>
    <g id="Web" stroke="none" stroke-width="1" fill="none" fill-rule="evenodd">
        <g id="4-User-profile-3---2" transform="translate(-760.000000, -526.000000)" fill="#0088CB" fill-rule="nonzero">
            <g id="Group-10" transform="translate(410.000000, 135.000000)">
                <g id="Group-3" transform="translate(310.000000, 374.000000)">
                    <g id="002-telegram" transform="translate(40.000000, 17.000000)">
                        <path d="M9.417,13.227875 L9.02,18.811875 C9.588,18.811875 9.834,18.567875 10.129,18.274875 L12.792,15.729875 L18.31,19.770875 C19.322,20.334875 20.035,20.037875 20.308,18.839875 L23.93,1.867875 L23.931,1.866875 C24.252,0.370875 23.39,-0.214125 22.404,0.152875 L1.114,8.303875 C-0.339,8.867875 -0.317,9.677875 0.867,10.044875 L6.31,11.737875 L18.953,3.826875 C19.548,3.432875 20.089,3.650875 19.644,4.044875 L9.417,13.227875 Z" id="Path"></path>
                    </g>
                </g>
            </g>
        </g>
    </g>
</svg>