<?xml version="1.0" encoding="UTF-8"?>
<svg width="24px" height="25px" viewBox="0 0 24 25" version="1.1" xmlns="http://www.w3.org/2000/svg" xmlns:xlink="http://www.w3.org/1999/xlink">
    <!-- Generator: Sketch 52.6 (67491) - http://www.bohemiancoding.com/sketch -->
    <title>whatsapp</title>
    <desc>Created with Sketch.</desc>
    <g id="Web" stroke="none" stroke-width="1" fill="none" fill-rule="evenodd">
        <g id="4-User-profile-3---2" transform="translate(-544.000000, -524.000000)" fill="#28D468" fill-rule="nonzero">
            <g id="Group-10" transform="translate(410.000000, 135.000000)">
                <g id="Group-3" transform="translate(92.000000, 374.000000)">
                    <g id="whatsapp" transform="translate(42.000000, 15.000000)">
                        <path d="M11.4189808,0.0139615385 C5.04807692,0.317307692 0.0205384615,5.62303846 0.0398653846,12.0011538 C0.04575,13.9437692 0.514730769,15.7773462 1.34203846,17.3974615 L0.0718269231,23.5632115 C0.00311538462,23.8967308 0.303923077,24.1887692 0.63525,24.1103077 L6.67696154,22.6789038 C8.22917308,23.4520962 9.97263462,23.8986923 11.8178077,23.9268462 C18.3294808,24.0263077 23.7590769,18.8558654 23.9620385,12.3466154 C24.1795962,5.36913462 18.4208654,-0.3195 11.4189808,0.0139615385 Z M18.6280385,18.5882885 C16.8586731,20.3576538 14.5061538,21.3320769 12.0039231,21.3320769 C10.5387692,21.3320769 9.13603846,21.0033462 7.83455769,20.3550577 L6.99317308,19.9359231 L3.28898077,20.8135385 L4.06869231,17.0285192 L3.65417308,16.2167885 C2.97853846,14.8936154 2.63596154,13.4627885 2.63596154,11.9641154 C2.63596154,9.46182692 3.61038462,7.10936538 5.37975,5.33994231 C7.13330769,3.58638462 9.52419231,2.59609615 12.0040962,2.59609615 C14.5063269,2.59615385 16.8587308,3.57057692 18.6280962,5.33988462 C20.3974615,7.10925 21.3718846,9.46171154 21.3719423,11.9639423 C21.3718846,14.4439038 20.3815962,16.8347885 18.6280385,18.5882885 Z" id="Shape"></path>
                        <path d="M17.8103077,14.5587115 L15.4928654,13.8932885 C15.1881923,13.8058269 14.8600962,13.89225 14.6380962,14.1184615 L14.0713846,14.6958462 C13.8324231,14.9393077 13.4698269,15.0175385 13.1535577,14.8895769 C12.0572885,14.4459231 9.75121154,12.3955385 9.16228846,11.3699423 C8.99238462,11.0740962 9.02048077,10.7042308 9.22909615,10.4342885 L9.72386538,9.79419231 C9.91771154,9.54340385 9.95861538,9.20659615 9.83042308,8.91669231 L8.85542308,6.71151923 C8.62188462,6.18334615 7.94694231,6.02959615 7.506,6.40251923 C6.85921154,6.94955769 6.09178846,7.78084615 5.9985,8.70178846 C5.83401923,10.3254808 6.53036538,12.3722885 9.16361538,14.8299808 C12.2057308,17.6693077 14.6418462,18.0444231 16.2279808,17.6601923 C17.1276346,17.4422885 17.8465962,16.5687115 18.3003462,15.8534423 C18.6096923,15.3657692 18.3654231,14.7181154 17.8103077,14.5587115 Z" id="Path"></path>
                    </g>
                </g>
            </g>
        </g>
    </g>
</svg>