<?xml version="1.0" encoding="UTF-8"?>
<svg width="24px" height="24px" viewBox="0 0 24 24" version="1.1" xmlns="http://www.w3.org/2000/svg" xmlns:xlink="http://www.w3.org/1999/xlink">
    <!-- Generator: Sketch 52.6 (67491) - http://www.bohemiancoding.com/sketch -->
    <title>Group 3</title>
    <desc>Created with Sketch.</desc>
    <g id="Web" stroke="none" stroke-width="1" fill="none" fill-rule="evenodd">
        <g id="4-User-Order-2---1" transform="translate(-890.000000, -656.000000)">
            <g id="Group-10" transform="translate(313.000000, 73.000000)">
                <g id="Group" transform="translate(92.000000, 507.000000)">
                    <g id="Group-3" transform="translate(485.000000, 76.000000)">
                        <circle id="Oval" fill-opacity="0.25" fill="#FFC240" cx="12" cy="12" r="12"></circle>
                        <g id="001-share-option" transform="translate(4.000000, 5.000000)" fill="#FFBA4A" fill-rule="nonzero">
                            <path d="M15.8189375,4.750375 L11.2507812,0.1823125 C11.13775,0.06928125 11.0039687,0.01275 10.8493125,0.01275 C10.6946562,0.01275 10.5607812,0.06928125 10.4478437,0.1823125 C10.3348125,0.29540625 10.2782187,0.42925 10.2782187,0.583875 L10.2782187,2.86790625 L8.2796875,2.86790625 C4.0385625,2.86790625 1.4364375,4.06646875 0.47271875,6.46353125 C0.1575625,7.26046875 0,8.2509375 0,9.43459375 C0,10.4219063 0.37771875,11.7631563 1.13309375,13.4584063 C1.15090625,13.500125 1.18203125,13.5713438 1.22671875,13.6724375 C1.271375,13.7734688 1.31146875,13.8626875 1.34715625,13.9400938 C1.38296875,14.0173125 1.42165625,14.08275 1.46325,14.1362188 C1.5345625,14.237375 1.617875,14.2880625 1.7130625,14.2880625 C1.80228125,14.2880625 1.8721875,14.2583437 1.92278125,14.198875 C1.97325,14.1394375 1.99853125,14.065 1.99853125,13.976 C1.99853125,13.9223125 1.99109375,13.843625 1.9761875,13.7394688 C1.9613125,13.6353125 1.95384375,13.5655937 1.95384375,13.5298437 C1.9240625,13.1255312 1.9091875,12.7594375 1.9091875,12.4325313 C1.9091875,11.8318125 1.9613125,11.2935 2.0653125,10.8176875 C2.16946875,10.3417812 2.3136875,9.92996875 2.498125,9.58196875 C2.68253125,9.23384375 2.920375,8.9336875 3.21190625,8.680875 C3.5033125,8.4280625 3.81703125,8.2214375 4.15309375,8.0608125 C4.48921875,7.90015625 4.88475,7.77375 5.33978125,7.68159375 C5.79478125,7.58940625 6.25275,7.5254375 6.71378125,7.48971875 C7.1748125,7.454 7.69675,7.43625 8.2796875,7.43625 L10.2782187,7.43625 L10.2782187,9.72034375 C10.2782187,9.87496875 10.3346875,10.0088438 10.447625,10.1218125 C10.56075,10.2347188 10.6945312,10.2913125 10.8490937,10.2913125 C11.0037187,10.2913125 11.1375937,10.2347188 11.2507812,10.1218125 L15.8188437,5.55359375 C15.931875,5.4405625 15.9883437,5.30678125 15.9883437,5.152125 C15.9883125,4.9975 15.931875,4.863625 15.8189375,4.750375 Z" id="Path"></path>
                        </g>
                    </g>
                </g>
            </g>
        </g>
    </g>
</svg>