<?xml version="1.0" encoding="UTF-8"?>
<svg width="24px" height="22px" viewBox="0 0 24 22" version="1.1" xmlns="http://www.w3.org/2000/svg" xmlns:xlink="http://www.w3.org/1999/xlink">
    <!-- Generator: Sketch 52.6 (67491) - http://www.bohemiancoding.com/sketch -->
    <title>Path</title>
    <desc>Created with Sketch.</desc>
    <g id="Web" stroke="none" stroke-width="1" fill="none" fill-rule="evenodd" fill-opacity="0.7">
        <g id="9-Video-1" transform="translate(-860.000000, -193.000000)" fill="#FFFFFF" fill-rule="nonzero">
            <g id="001-share-option" transform="translate(860.000000, 193.000000)">
                <path d="M23.7284063,7.1064375 L16.8761719,0.25434375 C16.706625,0.084796875 16.5059531,0 16.2739688,0 C16.0419844,0 15.8411719,0.084796875 15.6717656,0.25434375 C15.5022188,0.423984375 15.4173281,0.62475 15.4173281,0.8566875 L15.4173281,4.28273438 L12.4195313,4.28273438 C6.05784375,4.28273438 2.15465625,6.08057813 0.709078125,9.67617188 C0.23634375,10.8715781 4.12114787e-13,12.3572812 4.12114787e-13,14.1327656 C4.12114787e-13,15.6137344 0.566578125,17.6256094 1.69964063,20.1684844 C1.72635938,20.2310625 1.77304688,20.3378906 1.84007813,20.4895313 C1.9070625,20.6410781 1.96720313,20.7749063 2.02073438,20.8910156 C2.07445313,21.0068438 2.13248438,21.105 2.194875,21.1852031 C2.30184375,21.3369375 2.4268125,21.4129688 2.56959375,21.4129688 C2.70342188,21.4129688 2.80828125,21.3683906 2.88417188,21.2791875 C2.959875,21.1900313 2.99779688,21.078375 2.99779688,20.944875 C2.99779688,20.8643437 2.98664063,20.7463125 2.96428125,20.5900781 C2.94196875,20.4338438 2.93076563,20.3292656 2.93076563,20.2756406 C2.88609375,19.6691719 2.86378125,19.1200312 2.86378125,18.6296719 C2.86378125,17.7285937 2.94196875,16.921125 3.09796875,16.2074062 C3.25420313,15.4935469 3.47053125,14.8758281 3.7471875,14.3538281 C4.02379688,13.8316406 4.3805625,13.3814062 4.81785938,13.0021875 C5.25496875,12.6229688 5.72554688,12.3130312 6.22964063,12.0720937 C6.73382813,11.8311094 7.327125,11.6415 8.00967188,11.5032656 C8.69217188,11.3649844 9.379125,11.2690312 10.0706719,11.2154531 C10.7622188,11.161875 11.545125,11.13525 12.4195313,11.13525 L15.4173281,11.13525 L15.4173281,14.5613906 C15.4173281,14.7933281 15.5020313,14.9941406 15.6714375,15.1635937 C15.841125,15.3329531 16.0417969,15.4178437 16.2736406,15.4178437 C16.5055781,15.4178437 16.7063906,15.3329531 16.8761719,15.1635937 L23.7282656,8.31126562 C23.8978125,8.14171875 23.9825156,7.94104688 23.9825156,7.7090625 C23.9824688,7.477125 23.8978125,7.2763125 23.7284063,7.1064375 Z" id="Path"></path>
            </g>
        </g>
    </g>
</svg>