<?xml version="1.0" encoding="UTF-8"?>
<svg width="32px" height="18px" viewBox="0 0 32 18" version="1.1" xmlns="http://www.w3.org/2000/svg" xmlns:xlink="http://www.w3.org/1999/xlink">
    <!-- Generator: Sketch 52.6 (67491) - http://www.bohemiancoding.com/sketch -->
    <title>005-vk</title>
    <desc>Created with Sketch.</desc>
    <g id="Web" stroke="none" stroke-width="1" fill="none" fill-rule="evenodd">
        <g id="4-User-profile-3---2" transform="translate(-540.000000, -425.000000)" fill="#3258BD" fill-rule="nonzero">
            <g id="Group-10" transform="translate(410.000000, 135.000000)">
                <g id="Group-3" transform="translate(92.000000, 271.000000)">
                    <g id="005-vk" transform="translate(38.000000, 19.000000)">
                        <path d="M27.3684312,11.4452201 C28.4232769,12.4753296 29.5366323,13.4445125 30.4827127,14.5785004 C30.9006389,15.0824253 31.2963105,15.6024441 31.5989935,16.1872562 C32.0278903,17.0185965 31.6394279,17.9334365 30.894161,17.9830766 L26.2614493,17.9809865 C25.0665983,18.0801621 24.1134132,17.5990193 23.3119352,16.7818918 C22.670523,16.1284196 22.0765454,15.4329363 21.4597908,14.7574136 C21.2069455,14.4813104 20.9422937,14.22151 20.6261326,14.0161569 C19.9937058,13.6055553 19.4447597,13.7312753 19.0833581,14.3910177 C18.7152696,15.0620467 18.6317888,15.80508 18.5956382,16.5529205 C18.5460095,17.6440611 18.2162657,17.9309284 17.1204633,17.980882 C14.7786139,18.0913442 12.5560824,17.7369664 10.4914226,16.5553241 C8.67114512,15.5136145 7.25959943,14.0430148 6.03100093,12.3781396 C3.63889593,9.13627825 1.80702098,5.5740034 0.160600773,1.91192591 C-0.209995271,1.08685594 0.0610298598,0.643962145 0.971168608,0.628286338 C2.48249417,0.598920327 3.99361078,0.601010434 5.50671253,0.62619623 C6.12095954,0.635183693 6.52760171,0.987575831 6.76477482,1.56799871 C7.5824474,3.57899571 8.58296269,5.49228019 9.83883088,7.26573647 C10.1732763,7.73789177 10.5143041,8.21004707 10.9999343,8.54237418 C11.5371784,8.91033762 11.9462237,8.78837984 12.1989645,8.18977303 C12.3593437,7.81020949 12.4295553,7.40138445 12.4657059,6.99485853 C12.5854418,5.59626304 12.6012185,4.20007118 12.3912106,2.80638745 C12.2622803,1.93658918 11.7724709,1.3735142 10.9047516,1.20891822 C10.4619588,1.1250004 10.5278867,0.960195421 10.7422828,0.70739691 C11.114655,0.271400469 11.4648772,0 12.1630229,0 L17.3986976,0 C18.2229525,0.162714875 18.4060042,0.533081938 18.5188443,1.36264564 L18.523337,7.17972854 C18.5143516,7.50087357 18.6837162,8.45385812 19.2620215,8.66642206 C19.7248748,8.81774585 20.0299609,8.44737879 20.3076728,8.15382318 C21.5612424,6.82305168 22.4559179,5.25035024 23.2552017,3.62184292 C23.6099166,2.90577206 23.9148982,2.16211178 24.2104765,1.41907854 C24.4294698,0.867708161 24.7731096,0.596412197 25.3940435,0.608430316 L30.433084,0.612924047 C30.5824926,0.612924047 30.7336774,0.61511866 30.8783843,0.639886435 C31.7275058,0.784626385 31.9601862,1.14997719 31.6979376,1.97933188 C31.284713,3.28052835 30.4807275,4.36487616 29.6946084,5.45424023 C28.8542633,6.61728059 27.9555131,7.74050441 27.1221682,8.91044212 C26.3565275,9.97880061 26.4173357,10.5173168 27.3684312,11.4452201 Z" id="XMLID_807_"></path>
                    </g>
                </g>
            </g>
        </g>
    </g>
</svg>