<?xml version="1.0" encoding="UTF-8"?>
<svg width="22px" height="24px" viewBox="0 0 22 24" version="1.1" xmlns="http://www.w3.org/2000/svg" xmlns:xlink="http://www.w3.org/1999/xlink">
    <!-- Generator: Sketch 52.6 (67491) - http://www.bohemiancoding.com/sketch -->
    <title>001-viber</title>
    <desc>Created with Sketch.</desc>
    <g id="Web" stroke="none" stroke-width="1" fill="none" fill-rule="evenodd">
        <g id="4-User-profile-3---2" transform="translate(-872.000000, -525.000000)" fill="#8E24AA" fill-rule="nonzero">
            <g id="Group-10" transform="translate(410.000000, 135.000000)">
                <g id="Group-3" transform="translate(419.000000, 374.000000)">
                    <g id="001-viber" transform="translate(43.000000, 16.000000)">
                        <path d="M21.7375439,13.8815127 C22.4521481,7.86626121 21.3942144,4.06867836 19.4859415,2.35103314 L19.4869396,2.35003509 C16.4069552,-0.583235867 6.00527096,-1.01738791 2.32046784,2.48177778 C0.665699805,4.1934347 0.0828382066,6.70552827 0.018962963,9.81545419 C-0.0449122807,12.9263782 -0.120764133,18.7539961 5.30962963,20.3349084 L5.31461988,20.3349084 L5.30962963,22.749193 C5.30962963,22.749193 5.27270175,23.7272827 5.89748148,23.9238986 C6.61208577,24.1554464 6.93545419,23.7013333 9.15811306,21.0465185 C12.8748538,21.3688889 15.7292788,20.6303314 16.0536452,20.5225419 C16.8041793,20.2710331 21.050885,19.7091306 21.7375439,13.8815127 Z M9.52439766,19.3478363 C9.52439766,19.3478363 7.1719922,22.2811072 6.44042105,23.0426199 C6.20088889,23.2901365 5.93840156,23.2671813 5.94239376,22.7761404 C5.94239376,22.45377 5.96035867,18.7679688 5.96035867,18.7679688 C1.35635088,17.4485458 1.62782066,12.4862378 1.6777232,9.89030799 C1.72762573,7.29338012 2.20269786,5.16653411 3.60396101,3.73433138 C6.83664717,0.703251462 15.9558363,1.38092788 18.2792982,3.56466277 C21.1197505,6.08274464 20.1087251,13.1968499 20.1147135,13.4393762 C19.5308538,18.3038752 16.089575,18.6122729 15.4568109,18.8228616 C15.1863392,18.9126862 12.6762417,19.558425 9.52439766,19.3478363 Z" id="Shape"></path>
                        <path d="M10.8258558,4.30421832 C10.4416062,4.30421832 10.4416062,4.90304873 10.8258558,4.90803899 C13.8070331,4.93099415 16.2622378,7.00893567 16.2891852,10.8204912 C16.2891852,11.2227057 16.8780351,11.2177154 16.8730448,10.815501 L16.8720468,10.815501 C16.8401092,6.70852242 14.159345,4.32717349 10.8258558,4.30421832 Z" id="Path"></path>
                        <path d="M14.7471969,10.1887251 C14.7382144,10.5859493 15.3260663,10.6049123 15.3310565,10.2026979 C15.379961,7.93812086 13.9836881,6.07276413 11.3598129,5.87614815 C10.9755634,5.84820273 10.9356413,6.45202339 11.3188928,6.47996881 C13.5944483,6.65263158 14.7931072,8.20559844 14.7471969,10.1887251 Z" id="Path"></path>
                        <path d="M14.118425,12.764694 C13.6253879,12.4792515 13.1233684,12.6569045 12.9157739,12.9373567 L12.4816218,13.4992593 C12.2610526,13.7847018 11.8488577,13.7467758 11.8488577,13.7467758 C8.84073294,12.9513294 8.03630409,9.80347758 8.03630409,9.80347758 C8.03630409,9.80347758 7.99937622,9.37730994 8.27483821,9.14875634 L8.81777778,8.69963353 C9.08924756,8.48405458 9.26091228,7.96506823 8.98445224,7.45506433 C8.24589474,6.12067057 7.74986355,5.6605692 7.49735673,5.30725926 C7.23187524,4.97490838 6.83265497,4.90005458 6.41746589,5.12461598 L6.40848343,5.12461598 C5.54516959,5.62962963 4.60001559,6.57478363 4.90242495,7.54788304 C5.41841715,8.57387914 6.3665653,11.8444912 9.38866277,14.3156647 C10.8088889,15.4843821 13.056499,16.6820429 14.0106355,16.9585029 L14.0196179,16.9724756 C14.9597817,17.2858635 15.8739961,16.3037817 16.3620429,15.4145185 L16.3620429,15.4075322 C16.5786199,14.9773723 16.5067602,14.5701676 16.1903782,14.3036881 C15.6294737,13.7567563 14.7831267,13.1529357 14.118425,12.764694 Z" id="Path"></path>
                        <path d="M11.7710097,8.10379727 C12.7301365,8.15968811 13.1952281,8.66070955 13.2451306,9.68969981 C13.2630955,10.0919142 13.8469552,10.0639688 13.8289903,9.66175439 C13.765115,8.31837817 13.0644834,7.56984016 11.8029474,7.49997661 C11.4186979,7.47702144 11.382768,8.08084211 11.7710097,8.10379727 Z" id="Path"></path>
                    </g>
                </g>
            </g>
        </g>
    </g>
</svg>