<?xml version="1.0" encoding="UTF-8"?>
<svg width="24px" height="23px" viewBox="0 0 24 23" version="1.1" xmlns="http://www.w3.org/2000/svg" xmlns:xlink="http://www.w3.org/1999/xlink">
    <!-- Generator: Sketch 52.6 (67491) - http://www.bohemiancoding.com/sketch -->
    <title>speaker</title>
    <desc>Created with Sketch.</desc>
    <g id="Web" stroke="none" stroke-width="1" fill="none" fill-rule="evenodd" fill-opacity="0.7">
        <g id="9-Video-1" transform="translate(-555.000000, -193.000000)" fill="#FFFFFF" fill-rule="nonzero">
            <g id="speaker" transform="translate(555.000000, 193.000000)">
                <path d="M13.9472,0.12885 C14.224,0.26325 14.4,0.54325 14.4,0.85045 L14.4,21.65045 C14.4,21.95765 14.224,22.23765 13.9472,22.37045 C13.8368,22.42325 13.7184,22.45045 13.6,22.45045 C13.4224,22.45045 13.2448,22.39125 13.0992,22.27605 L5.3184,16.05045 L1.6,16.05045 C0.7184,16.05045 2.90256708e-12,15.33365 2.90256708e-12,14.45045 L2.90256708e-12,8.05045 C2.90256708e-12,7.16885 0.7184,6.45045 1.6,6.45045 L5.3184,6.45045 L13.1008,0.22485 C13.3408,0.03125 13.6688,-0.00395 13.9472,0.12885 Z M18.4496,5.59285 C19.9664,7.08885 20.8,9.09845 20.8,11.25045 C20.8,13.40245 19.9664,15.41205 18.4496,16.90485 C18.2928,17.06005 18.0896,17.13685 17.8864,17.13685 C17.6816,17.13685 17.4752,17.05845 17.3184,16.90005 C17.008,16.58485 17.0112,16.07765 17.3248,15.76885 C18.5344,14.57525 19.2,12.97045 19.2,11.25045 C19.2,9.53045 18.5344,7.92565 17.3248,6.73205 C17.0112,6.42005 17.008,5.91445 17.3184,5.59925 C17.6288,5.28725 18.1344,5.28245 18.4496,5.59285 Z M20.7072,3.33845 C22.832,5.44405 24,8.25365 24,11.25045 C24,14.24725 22.832,17.05685 20.7072,19.16085 C20.5504,19.31605 20.3456,19.39285 20.1424,19.39285 C19.9376,19.39285 19.7328,19.31445 19.5744,19.15765 C19.264,18.84405 19.2672,18.33685 19.5792,18.02485 C21.3984,16.22165 22.4,13.81685 22.4,11.25045 C22.4,8.68405 21.3984,6.27765 19.5792,4.47445 C19.2672,4.16405 19.264,3.65685 19.5744,3.34325 C19.8864,3.02965 20.392,3.02645 20.7072,3.33845 Z" id="Path-2"></path>
            </g>
        </g>
    </g>
</svg>