<svg width="35" height="34" viewBox="0 0 35 34" fill="none" xmlns="http://www.w3.org/2000/svg">
<path d="M27.3601 33.129C27.0697 33.129 26.7639 33.0378 26.5194 32.8554L17.5001 26.5944L8.49622 32.8706C7.99176 33.2201 7.33443 33.2353 6.81468 32.8858C6.31021 32.5363 6.06562 31.9284 6.2032 31.3357L8.57266 21.1539L0.50123 14.1786C0.0579128 13.7987 -0.110242 13.1756 0.0731996 12.6133C0.256641 12.051 0.761105 11.6559 1.35729 11.6103L12.0122 10.7137L16.2161 0.851019C16.4301 0.334329 16.9498 0 17.5001 0C18.0505 0 18.5702 0.334329 18.7842 0.851019L22.9881 10.7137L33.643 11.6103C34.2392 11.6559 34.7437 12.051 34.9271 12.6133C35.1105 13.1756 34.9424 13.7835 34.4838 14.1786L26.4123 21.1539L28.7818 31.3357C28.9194 31.9284 28.6748 32.5363 28.1703 32.8858C27.941 33.053 27.6506 33.129 27.3601 33.129ZM17.5001 25.0595C17.7906 25.0595 18.0963 25.1507 18.3409 25.3178L27.2684 31.5333L24.9142 21.4578C24.7919 20.926 24.9754 20.3789 25.3881 20.0142L33.3984 13.0996L22.8352 12.2182C22.2849 12.1726 21.811 11.8383 21.597 11.3216L17.4849 1.70204L13.4033 11.3368C13.1893 11.8383 12.7154 12.1878 12.1651 12.2334L1.60188 13.1148L9.61216 20.0293C10.0249 20.3941 10.2083 20.9412 10.0861 21.473L7.73188 31.5485L16.6594 25.333C16.9192 25.1507 17.2097 25.0595 17.5001 25.0595Z" fill="currentColor"/>
</svg>
