<?xml version="1.0" encoding="UTF-8"?>
<svg width="26px" height="24px" viewBox="0 0 26 24" version="1.1" xmlns="http://www.w3.org/2000/svg" xmlns:xlink="http://www.w3.org/1999/xlink">
    <!-- Generator: Sketch 52.6 (67491) - http://www.bohemiancoding.com/sketch -->
    <title>Path</title>
    <desc>Created with Sketch.</desc>
    <g id="Web" stroke="none" stroke-width="1" fill="none" fill-rule="evenodd">
        <g id="1-Main-(5)" transform="translate(-1230.000000, -1226.000000)" fill="#FFBA4A" fill-rule="nonzero">
            <g id="3" transform="translate(150.000000, 1165.000000)">
                <g id="star" transform="translate(1080.000000, 59.000000)">
                    <g id="Group-12" transform="translate(0.000000, 0.052220)">
                        <path d="M25.0589011,11.2615209 C25.0589011,10.890022 24.7778637,10.6591473 24.215367,10.5686857 L16.655789,9.46953846 L13.2674637,2.61735385 C13.0768352,2.20571429 12.8306637,2 12.5295297,2 C12.2284484,2 11.9824352,2.20571429 11.7916484,2.61735385 L8.40316484,9.46953846 L0.843217582,10.5686857 C0.281142857,10.6591473 0,10.890022 0,11.2615209 C0,11.4724571 0.125538462,11.7134066 0.376562637,11.9844747 L5.85826813,17.3155341 L4.56316484,24.8451516 C4.54306813,24.9857758 4.5330989,25.0864703 4.5330989,25.146444 C4.5330989,25.3572747 4.58574066,25.5354022 4.69112967,25.6810901 C4.79646593,25.826989 4.9544967,25.8995692 5.16543297,25.8995692 C5.34625055,25.8995692 5.54695385,25.8395956 5.76780659,25.7190154 L12.5293714,22.164589 L19.291411,25.7190154 C19.502611,25.8395956 19.703367,25.8995692 19.8935736,25.8995692 C20.0950154,25.8995692 20.2477714,25.826989 20.3531604,25.6810901 C20.458233,25.5356132 20.5109275,25.3572747 20.5109275,25.146444 C20.5109275,25.0161055 20.5058637,24.9157275 20.495789,24.8451516 L19.2005802,17.3155341 L24.6671473,11.9844747 C24.9285626,11.7234286 25.0589011,11.4823736 25.0589011,11.2615209 Z" id="Path"></path>
                    </g>
                </g>
            </g>
        </g>
    </g>
</svg>