<svg width="35" height="34" viewBox="0 0 35 34" fill="none" xmlns="http://www.w3.org/2000/svg">
<path fill-rule="evenodd" clip-rule="evenodd" d="M0.681832 12.4785L11.8499 11.5142C12.1215 11.4978 12.3612 11.3181 12.473 11.0566L15.2531 4.35562L16.8828 0.416766C17.1064 -0.138922 17.8733 -0.138922 18.113 0.416766L19.7427 4.35562L22.5227 11.0566C22.6346 11.3181 22.8742 11.4978 23.1458 11.5142L34.3139 12.4785C34.969 12.5275 35.2406 13.3774 34.7453 13.8187L26.2774 21.3368C26.0697 21.5166 25.9738 21.8108 26.0377 22.0886L28.5302 33.0553C28.6899 33.7417 27.939 34.2484 27.3798 33.8561L17.9373 27.0898C17.6816 26.91 17.3461 26.91 17.0745 27.0898L7.63193 33.8561C7.07273 34.2647 6.3218 33.7417 6.48157 33.0553L8.97402 22.0886C9.03793 21.8108 8.94206 21.5329 8.73436 21.3368L0.266424 13.8187C-0.244848 13.3774 0.0267656 12.5275 0.681832 12.4785Z" fill="currentColor"/>
</svg>
