<?xml version="1.0" encoding="UTF-8"?>
<svg width="25px" height="24px" viewBox="0 0 25 24" version="1.1" xmlns="http://www.w3.org/2000/svg" xmlns:xlink="http://www.w3.org/1999/xlink">
    <!-- Generator: Sketch 52.6 (67491) - http://www.bohemiancoding.com/sketch -->
    <title>Path</title>
    <desc>Created with Sketch.</desc>
    <g id="Web" stroke="none" stroke-width="1" fill="none" fill-rule="evenodd">
        <g id="4-User-Order-3" transform="translate(-525.000000, -431.000000)" fill="#BFBFBF" fill-rule="nonzero">
            <g id="Group-10" transform="translate(313.000000, 50.000000)">
                <g id="Group-12" transform="translate(92.000000, 381.000000)">
                    <path d="M145,9.30043964 C145,8.92737963 144.719623,8.69553472 144.158449,8.60469305 L136.616639,7.50092696 L133.236278,0.61994809 C133.046098,0.206578738 132.800505,0 132.500079,0 C132.199705,0 131.95427,0.206578738 131.763932,0.61994809 L128.383413,7.50092696 L120.841236,8.60469305 C120.280482,8.69553472 120,8.92737963 120,9.30043964 C120,9.5122623 120.125243,9.75422427 120.375678,10.0264315 L125.844498,15.379893 L124.552439,22.9411515 C124.53239,23.0823667 124.522444,23.1834843 124.522444,23.2437099 C124.522444,23.4554267 124.574962,23.6343027 124.680103,23.7806028 C124.785192,23.9271148 124.942851,24 125.153292,24 C125.333684,24 125.533916,23.9397744 125.754249,23.8186874 L132.499921,20.2493246 L139.246066,23.8186874 C139.45677,23.9397744 139.657054,24 139.846814,24 C140.047782,24 140.200179,23.9271148 140.30532,23.7806028 C140.410146,23.6345145 140.462716,23.4554267 140.462716,23.2437099 C140.462716,23.1128238 140.457665,23.0120239 140.447614,22.9411515 L139.155449,15.379893 L144.609167,10.0264315 C144.869968,9.76428836 145,9.52222046 145,9.30043964 Z" id="Path"></path>
                </g>
            </g>
        </g>
    </g>
</svg>