<?xml version="1.0" encoding="UTF-8"?>
<svg width="24px" height="24px" viewBox="0 0 24 24" version="1.1" xmlns="http://www.w3.org/2000/svg" xmlns:xlink="http://www.w3.org/1999/xlink">
    <!-- Generator: Sketch 52.6 (67491) - http://www.bohemiancoding.com/sketch -->
    <title>share</title>
    <desc>Created with Sketch.</desc>
    <g id="Web" stroke="none" stroke-width="1" fill="none" fill-rule="evenodd">
        <g id="2-Star-profile-1" transform="translate(-1263.000000, -1466.000000)" fill="#010002" fill-rule="nonzero">
            <g id="Group" transform="translate(149.000000, 1453.000000)">
                <g id="share" transform="translate(1114.000000, 13.000000)">
                    <path d="M19.4183797,15.2513418 C18.0291139,15.2513418 16.8036962,15.9132152 16.0030886,16.9267848 L8.57726582,13.1292152 C8.67448101,12.7666329 8.74435443,12.392 8.74435443,11.9977215 C8.74435443,11.5685063 8.66136709,11.1644051 8.54556962,10.7711899 L15.9386329,6.99113924 C16.7348354,8.05058228 17.9919494,8.74303797 19.419443,8.74303797 C21.8375696,8.74303797 23.7936709,6.78693671 23.7936709,4.37098734 C23.7937215,1.95721519 21.8375696,0 19.4194937,0 C17.0068354,0 15.048557,1.95721519 15.048557,4.37093671 C15.048557,4.76632911 15.118481,5.14202532 15.2167595,5.50572152 L7.792,9.30329114 C6.99032911,8.28865823 5.76268354,7.62460759 4.37124051,7.62460759 C1.95529114,7.62460759 0.000303797468,9.58288608 0.000303797468,11.9977215 C0.000303797468,14.412557 1.95534177,16.3697722 4.37124051,16.3697722 C5.80091139,16.3697722 7.05696203,15.6751392 7.85640506,14.6146329 L15.2461772,18.3946835 C15.1303797,18.7867848 15.0463291,19.1941772 15.0463291,19.6245063 C15.0463291,22.0393418 17.0046076,23.996557 19.4172658,23.996557 C21.8353924,23.996557 23.7914937,22.0393418 23.7914937,19.6245063 C23.7926076,17.2074937 21.8365063,15.2513418 19.4183797,15.2513418 Z" id="Path"></path>
                </g>
            </g>
        </g>
    </g>
</svg>