<?xml version="1.0" encoding="UTF-8"?>
<svg xmlns="http://www.w3.org/2000/svg" xmlns:xlink="http://www.w3.org/1999/xlink" width="15pt" height="15pt" viewBox="0 0 15 15" version="1.1">
<g id="surface1">
<path style=" stroke:none;fill-rule:nonzero;fill:rgb(0%,0%,0%);fill-opacity:1;" d="M 13.617188 3.292969 C 12.039062 3.292969 10.761719 2.015625 10.761719 0.4375 C 10.761719 0.195312 10.5625 0 10.320312 0 L 7.96875 0 C 7.722656 0 7.527344 0.195312 7.527344 0.4375 L 7.527344 10.089844 C 7.527344 11.015625 6.773438 11.765625 5.847656 11.765625 C 4.921875 11.765625 4.171875 11.015625 4.171875 10.089844 C 4.171875 9.164062 4.921875 8.410156 5.847656 8.410156 C 6.089844 8.410156 6.289062 8.214844 6.289062 7.96875 L 6.289062 5.617188 C 6.289062 5.375 6.089844 5.175781 5.847656 5.175781 C 3.140625 5.175781 0.9375 7.382812 0.9375 10.089844 C 0.9375 12.796875 3.140625 15 5.847656 15 C 8.554688 15 10.761719 12.796875 10.761719 10.089844 L 10.761719 5.816406 C 11.632812 6.285156 12.609375 6.527344 13.617188 6.527344 C 13.859375 6.527344 14.054688 6.332031 14.054688 6.089844 L 14.054688 3.734375 C 14.054688 3.492188 13.859375 3.292969 13.617188 3.292969 Z M 13.175781 5.628906 C 12.238281 5.550781 11.347656 5.222656 10.578125 4.671875 C 10.441406 4.574219 10.265625 4.5625 10.121094 4.636719 C 9.972656 4.710938 9.882812 4.863281 9.882812 5.027344 L 9.882812 10.089844 C 9.882812 12.3125 8.070312 14.121094 5.847656 14.121094 C 3.625 14.121094 1.816406 12.3125 1.816406 10.089844 C 1.816406 8.015625 3.390625 6.300781 5.410156 6.082031 L 5.410156 7.570312 C 4.207031 7.777344 3.292969 8.828125 3.292969 10.089844 C 3.292969 11.5 4.4375 12.648438 5.847656 12.648438 C 7.257812 12.648438 8.40625 11.5 8.40625 10.089844 L 8.40625 0.878906 L 9.90625 0.878906 C 10.109375 2.585938 11.46875 3.945312 13.175781 4.148438 Z M 13.175781 5.628906 "/>
</g>
</svg>
