<?xml version="1.0" encoding="UTF-8"?>
<svg width="18px" height="18px" viewBox="0 0 18 18" version="1.1" xmlns="http://www.w3.org/2000/svg" xmlns:xlink="http://www.w3.org/1999/xlink">
    <!-- Generator: Sketch 52.6 (67491) - http://www.bohemiancoding.com/sketch -->
    <title>001-clock</title>
    <desc>Created with Sketch.</desc>
    <g id="Symbols" stroke="none" stroke-width="1" fill="none" fill-rule="evenodd">
        <g id="Orders-new" transform="translate(-255.000000, -97.000000)" fill="#000000" fill-rule="nonzero">
            <g id="Group-5">
                <g id="Group-4">
                    <g id="Group-6" transform="translate(255.000000, 92.000000)">
                        <g id="001-clock" transform="translate(0.000000, 5.000000)">
                            <path d="M16.775385,4.47757175 C15.9714123,3.10022323 14.8808747,2.00968565 13.5034852,1.20575399 C12.1258497,0.401863326 10.6219681,0 8.99069248,0 C7.35958087,0 5.85524829,0.401863326 4.47785877,1.20575399 C3.10038724,2.00956264 2.00984966,3.10010023 1.20587699,4.47757175 C0.401863326,5.85512528 0,7.35945786 0,8.99044647 C0,10.6215171 0.401986333,12.1256036 1.20575399,13.5032392 C2.00968565,14.8805877 3.10022323,15.9711253 4.47769476,16.775139 C5.85524829,17.5789886 7.35945786,17.9808929 8.99052847,17.9808929 C10.6215991,17.9808929 12.1259727,17.5789886 13.5034442,16.775139 C14.8808337,15.9714123 15.9713303,14.8805877 16.775221,13.5032392 C17.5789886,12.1257267 17.9808109,10.6214351 17.9808109,8.99044647 C17.9808519,7.35929385 17.5789886,5.85492027 16.775385,4.47757175 Z M14.5042278,12.186205 C13.9345421,13.1616902 13.1619772,13.9345421 12.186492,14.5042278 C11.2110068,15.0739134 10.1457677,15.3584692 8.99056948,15.3584692 C7.83565831,15.3584692 6.77033713,15.0739134 5.79472893,14.5042278 C4.81924374,13.9345011 4.04667882,13.1616902 3.47699317,12.186205 C2.90718451,11.2107198 2.62238269,10.1454396 2.62238269,8.99044647 C2.62238269,7.8353713 2.90730752,6.77009112 3.47699317,5.79460592 C4.04655581,4.81912073 4.81932574,4.0463918 5.79472893,3.47674715 C6.77021412,2.9070205 7.83549431,2.62225968 8.99056948,2.62225968 C10.1457267,2.62225968 11.2110068,2.9070205 12.186492,3.47674715 C13.1619772,4.0464328 13.9345831,4.81912073 14.5042278,5.79460592 C15.0739544,6.77009112 15.3586333,7.8353713 15.3586333,8.99044647 C15.3586333,10.1454396 15.0739544,11.2107198 14.5042278,12.186205 Z" id="Shape"></path>
                            <path d="M10.1144419,4.49512073 L9.36516629,4.49512073 C9.25573121,4.49512073 9.16618223,4.53034169 9.09578132,4.60049658 C9.02583144,4.67073349 8.99061048,4.76040547 8.99061048,4.86967654 L8.99061048,8.99040547 L6.3683918,8.99040547 C6.25903872,8.99040547 6.16940774,9.02546241 6.09912984,9.09553531 C6.02893394,9.16573121 5.99383599,9.25548519 5.99383599,9.36496128 L5.99383599,10.1141139 C5.99383599,10.223426 6.02893394,10.313221 6.09912984,10.3833759 C6.16944875,10.4535308 6.25924374,10.4885877 6.3683918,10.4885877 L10.1146469,10.4885877 C10.223795,10.4885877 10.313631,10.4535308 10.3836629,10.3833759 C10.4538178,10.313221 10.4891617,10.223426 10.4891617,10.1141139 L10.4891617,4.86967654 C10.4891617,4.76048747 10.4538178,4.67085649 10.3836629,4.60049658 C10.313549,4.53034169 10.223754,4.49512073 10.1144419,4.49512073 Z" id="Path"></path>
                        </g>
                    </g>
                </g>
            </g>
        </g>
    </g>
</svg>