<?xml version="1.0" encoding="UTF-8"?>
<svg width="17px" height="18px" viewBox="0 0 17 18" version="1.1" xmlns="http://www.w3.org/2000/svg" xmlns:xlink="http://www.w3.org/1999/xlink">
    <!-- Generator: Sketch 52.6 (67491) - http://www.bohemiancoding.com/sketch -->
    <title>trash</title>
    <desc>Created with Sketch.</desc>
    <g id="Web" stroke="none" stroke-width="1" fill="none" fill-rule="evenodd" opacity="0.8">
        <g id="4-User-profile-4" transform="translate(-667.000000, -615.000000)" fill="#FFFFFF" fill-rule="nonzero">
            <g id="Group-8" transform="translate(150.000000, 615.000000)">
                <g id="trash" transform="translate(517.000000, 0.000000)">
                    <path d="M16.3881595,3.10198633 C16.3180046,3.03191344 16.2282096,2.99669248 16.1190615,2.99669248 L12.5016765,2.99669248 L11.682246,1.04186788 C11.5652255,0.753047836 11.3544738,0.507198178 11.0502779,0.304277904 C10.745795,0.101398633 10.4373759,0 10.1253075,0 L6.3792164,0 C6.06714806,0 5.75881093,0.101398633 5.45445103,0.304277904 C5.15005011,0.507198178 4.93933941,0.753006834 4.8222369,1.04186788 L4.00280638,2.99669248 L0.385585421,2.99669248 C0.276232346,2.99669248 0.186601367,3.03191344 0.116323462,3.10198633 C0.0462505695,3.17222323 0.0110296128,3.26201822 0.0110296128,3.37124829 L0.0110296128,4.12052392 C0.0110296128,4.22975399 0.0460865604,4.31954897 0.116323462,4.38966287 C0.186601367,4.45985877 0.276396355,4.49495672 0.385585421,4.49495672 L1.50929385,4.49495672 L1.50929385,15.6393759 C1.50929385,16.2873349 1.69269704,16.8393485 2.05946241,17.2957859 C2.42630979,17.7525103 2.86724829,17.9806469 3.38235991,17.9806469 L13.122123,17.9806469 C13.6373576,17.9806469 14.0782551,17.7446378 14.4450615,17.2726196 C14.8118269,16.8002733 14.9951071,16.2404282 14.9951071,15.5927153 L14.9951071,4.49495672 L16.1190205,4.49495672 C16.2281686,4.49495672 16.3180046,4.45985877 16.3881185,4.38966287 C16.4581503,4.31958998 16.4934943,4.22975399 16.4934943,4.12052392 L16.4934943,3.37124829 C16.4935763,3.26201822 16.4581913,3.17222323 16.3881595,3.10198633 Z M6.20368565,1.62688838 C6.25825968,1.55669248 6.32464237,1.51364009 6.4026697,1.49814123 L10.1135399,1.49814123 C10.1915672,1.5137631 10.2580729,1.55677449 10.3125649,1.62688838 L10.8746651,2.99652847 L5.63006378,2.99652847 L6.20368565,1.62688838 Z M13.4968428,15.5927973 C13.4968428,15.7644328 13.4696173,15.9225376 13.4148793,16.0668246 C13.3601822,16.2110706 13.3034761,16.3164465 13.2450888,16.3827882 C13.1864146,16.4492938 13.1457403,16.4823007 13.122164,16.4823007 L3.38240091,16.4823007 C3.35898861,16.4823007 3.31823235,16.4492938 3.25955809,16.3827882 C3.20096583,16.3164465 3.14434169,16.2110706 3.08968565,16.0668246 C3.03511162,15.9225376 3.0078041,15.7642688 3.0078041,15.5927973 L3.0078041,4.49495672 L13.4968428,4.49495672 L13.4968018,15.5927973 L13.4968428,15.5927973 Z M4.88091116,14.2348428 L5.63006378,14.2348428 C5.73941686,14.2348428 5.82925285,14.1997859 5.89932574,14.12959 C5.96939863,14.0591481 6.00461959,13.9696401 6.00461959,13.860205 L6.00461959,7.1172164 C6.00461959,7.00802733 5.96939863,6.91823235 5.89932574,6.84795444 C5.82904784,6.77788155 5.73945786,6.7427836 5.63006378,6.7427836 L4.88091116,6.7427836 C4.77155809,6.7427836 4.6818861,6.77784055 4.6116492,6.84795444 C4.54149431,6.91823235 4.50635535,7.00802733 4.50635535,7.1172164 L4.50635535,13.860205 C4.50635535,13.9696401 4.5413713,14.0591891 4.6116492,14.12959 C4.6818861,14.1997449 4.77155809,14.2348428 4.88091116,14.2348428 Z M7.87772665,14.2348428 L8.62687927,14.2348428 C8.73619134,14.2348428 8.82598633,14.1997859 8.89601822,14.12959 C8.96646014,14.0591481 9.00135308,13.9696401 9.00135308,13.860205 L9.00135308,7.1172164 C9.00135308,7.00802733 8.96641913,6.91823235 8.89601822,6.84795444 C8.82598633,6.77788155 8.73619134,6.7427836 8.62687927,6.7427836 L7.87772665,6.7427836 C7.76849658,6.7427836 7.67870159,6.77784055 7.60846469,6.84795444 C7.53818679,6.91823235 7.50317084,7.00802733 7.50317084,7.1172164 L7.50317084,13.860205 C7.50317084,13.9696401 7.53818679,14.0591891 7.60846469,14.12959 C7.67866059,14.1997449 7.76849658,14.2348428 7.87772665,14.2348428 Z M10.8746241,14.2348428 L11.6236538,14.2348428 C11.7330888,14.2348428 11.8228838,14.1997859 11.8930387,14.12959 C11.9631936,14.0591481 11.9980866,13.9696401 11.9980866,13.860205 L11.9980866,7.1172164 C11.9980866,7.00802733 11.9631526,6.91823235 11.8930387,6.84795444 C11.8228838,6.77788155 11.7330888,6.7427836 11.6236538,6.7427836 L10.8746241,6.7427836 C10.7651481,6.7427836 10.6756401,6.77784055 10.6051982,6.84795444 C10.5350433,6.91823235 10.4999863,7.00802733 10.4999863,7.1172164 L10.4999863,13.860205 C10.4999863,13.9696401 10.5350433,14.0591891 10.6051982,14.12959 C10.6756401,14.1997449 10.7651481,14.2348428 10.8746241,14.2348428 Z" id="Shape"></path>
                </g>
            </g>
        </g>
    </g>
</svg>