<?xml version="1.0" encoding="UTF-8"?>
<svg width="25px" height="20px" viewBox="0 0 25 20" version="1.1" xmlns="http://www.w3.org/2000/svg" xmlns:xlink="http://www.w3.org/1999/xlink">
    <!-- Generator: Sketch 52.6 (67491) - http://www.bohemiancoding.com/sketch -->
    <title>006-twitter</title>
    <desc>Created with Sketch.</desc>
    <g id="Symbols" stroke="none" stroke-width="1" fill="none" fill-rule="evenodd">
        <g id="Footer" transform="translate(-998.000000, -258.000000)" fill="#000000" fill-rule="nonzero">
            <g transform="translate(150.000000, 0.000000)" id="006-twitter">
                <g transform="translate(848.000000, 258.000000)">
                    <path d="M24.4534413,2.36769231 C23.5531123,2.76923077 22.5937702,3.03538462 21.5935729,3.16461538 C22.6225202,2.54 23.4078492,1.55846154 23.7770597,0.375384615 C22.8177176,0.956923077 21.7585071,1.36769231 20.6296913,1.59692308 C19.7187702,0.610769231 18.4204808,0 17.004165,0 C14.2562702,0 12.0440334,2.26769231 12.0440334,5.04769231 C12.0440334,5.44769231 12.0773229,5.83230769 12.1590334,6.19846154 C8.03265182,5.99384615 4.38140182,3.98307692 1.92857287,0.92 C1.50034919,1.67538462 1.24916498,2.54 1.24916498,3.47076923 C1.24916498,5.21846154 2.13436235,6.76769231 3.45383603,7.66461538 C2.65640182,7.64923077 1.87409919,7.41384615 1.21133603,7.04307692 C1.21133603,7.05846154 1.21133603,7.07846154 1.21133603,7.09846154 C1.21133603,9.55076923 2.93179656,11.5876923 5.18791498,12.0569231 C4.78390182,12.1692308 4.34357287,12.2230769 3.88659919,12.2230769 C3.56883603,12.2230769 3.24804656,12.2046154 2.94692814,12.1369231 C3.59002024,14.1353846 5.41488866,15.6046154 7.58475709,15.6523077 C5.89607287,16.9953846 3.75192814,17.8046154 1.43074393,17.8046154 C1.02370445,17.8046154 0.633309717,17.7861538 0.24291498,17.7353846 C2.4415334,19.1769231 5.0471913,20 7.85712551,20 C16.9905466,20 21.9839676,12.3076923 21.9839676,5.64 C21.9839676,5.41692308 21.9764018,5.20153846 21.9658097,4.98769231 C22.9508755,4.27692308 23.7785729,3.38923077 24.4534413,2.36769231 Z" id="Path"></path>
                </g>
            </g>
        </g>
    </g>
</svg>