<?xml version="1.0" encoding="UTF-8"?>
<svg width="16px" height="18px" viewBox="0 0 16 18" version="1.1" xmlns="http://www.w3.org/2000/svg" xmlns:xlink="http://www.w3.org/1999/xlink">
    <!-- Generator: Sketch 52.6 (67491) - http://www.bohemiancoding.com/sketch -->
    <title>002-user</title>
    <desc>Created with Sketch.</desc>
    <g id="Symbols" stroke="none" stroke-width="1" fill="none" fill-rule="evenodd">
        <g id="Orders-new" transform="translate(-438.000000, -97.000000)" fill="#000000" fill-rule="nonzero">
            <g id="Group-5">
                <g id="Group-4">
                    <g id="Group-7" transform="translate(438.000000, 92.000000)">
                        <g id="002-user" transform="translate(0.000000, 5.000000)">
                            <path d="M7.99066998,8.99044647 C9.19249628,8.99044647 10.2182829,8.55131207 11.0683077,7.6734123 C11.9184119,6.79551253 12.3435434,5.73613667 12.3435434,4.49512073 C12.3435434,3.25430979 11.9184119,2.19489294 11.0683077,1.31678815 C10.218005,0.438929385 9.19217866,0 7.99066998,0 C6.78916129,0 5.76317618,0.438929385 4.91315136,1.31678815 C4.06296774,2.19489294 3.63787593,3.25426879 3.63787593,4.49512073 C3.63787593,5.73613667 4.06296774,6.79551253 4.91315136,7.6734123 C5.76341439,8.55131207 6.78912159,8.99044647 7.99066998,8.99044647 Z" id="Path"></path>
                            <path d="M15.9308387,13.7372392 C15.9043176,13.3432483 15.8513548,12.9178087 15.7721489,12.4612073 C15.6927841,12.0046059 15.592536,11.5814214 15.471603,11.1910387 C15.35067,10.8009431 15.1881687,10.4204419 14.984139,10.0496993 C14.7801886,9.67899772 14.5459454,9.36299317 14.2812903,9.10143964 C14.0166352,8.83996811 13.6936576,8.63134852 13.3123176,8.47529385 C12.9305012,8.31928018 12.5091811,8.24112984 12.0481985,8.24112984 C11.980268,8.24112984 11.8215385,8.3250205 11.572129,8.49284282 C11.3229578,8.66066515 11.0414293,8.84800456 10.7278213,9.05490205 C10.4142531,9.26143052 10.0059553,9.44889294 9.50364268,9.61642825 C9.00109181,9.78425057 8.49675434,9.86818223 7.99027295,9.86818223 C7.48399007,9.86818223 6.9796129,9.78425057 6.47714144,9.61642825 C5.97470968,9.44889294 5.56653102,9.26143052 5.25292308,9.05490205 C4.93935484,8.84800456 4.65790571,8.66070615 4.40857568,8.49284282 C4.15912655,8.3250205 4.00051613,8.24112984 3.9325062,8.24112984 C3.47156328,8.24112984 3.05024318,8.31928018 2.66866501,8.47529385 C2.28700744,8.63134852 1.96399007,8.84013212 1.69945409,9.10143964 C1.43499752,9.36299317 1.20071464,9.67899772 0.996764268,10.0496993 C0.792813896,10.4204419 0.630352357,10.8011071 0.509419355,11.1910387 C0.388526055,11.5814214 0.28835732,12.0046059 0.209032258,12.4612073 C0.129627792,12.9178087 0.0767444169,13.3429613 0.0502630273,13.7372392 C0.02382134,14.1315171 0.0106401985,14.5353895 0.0106401985,14.9490205 C0.0106401985,15.8853485 0.286531017,16.6249886 0.838114144,17.1674077 C1.38981638,17.7096219 2.12287841,17.9806879 3.03722084,17.9806879 L12.9442382,17.9806879 C13.8585012,17.9806879 14.5914839,17.7096219 15.1432655,17.1674077 C15.6951663,16.6249886 15.9708586,15.8854715 15.9708586,14.9490205 C15.9707792,14.5353895 15.957598,14.1315171 15.9308387,13.7372392 Z" id="Path"></path>
                        </g>
                    </g>
                </g>
            </g>
        </g>
    </g>
</svg>