<?xml version="1.0" encoding="UTF-8"?>
<svg xmlns="http://www.w3.org/2000/svg" xmlns:xlink="http://www.w3.org/1999/xlink" width="28pt" height="20pt" viewBox="0 0 28 20" version="1.1">
<g id="surface1">
<path style=" stroke:none;fill-rule:nonzero;fill:rgb(15.686275%,15.686275%,15.686275%);fill-opacity:1;" d="M 27.582031 3.128906 C 27.257812 1.90625 26.304688 0.941406 25.101562 0.613281 C 22.894531 0 14.082031 0 14.082031 0 C 14.082031 0 5.265625 0 3.0625 0.589844 C 1.878906 0.917969 0.90625 1.90625 0.578125 3.128906 C 0 5.363281 0 10 0 10 C 0 10 0 14.660156 0.578125 16.871094 C 0.90625 18.09375 1.855469 19.058594 3.0625 19.386719 C 5.289062 20 14.082031 20 14.082031 20 C 14.082031 20 22.894531 20 25.101562 19.410156 C 26.304688 19.082031 27.257812 18.117188 27.582031 16.894531 C 28.164062 14.660156 28.164062 10.023438 28.164062 10.023438 C 28.164062 10.023438 28.1875 5.363281 27.582031 3.128906 Z M 27.582031 3.128906 "/>
<path style=" stroke:none;fill-rule:nonzero;fill:rgb(100%,100%,100%);fill-opacity:1;" d="M 18.605469 10 L 11.273438 5.71875 L 11.273438 14.28125 Z M 18.605469 10 "/>
</g>
</svg>
