<svg width="37" height="20" viewBox="0 0 37 20" fill="none" xmlns="http://www.w3.org/2000/svg">
<path d="M36.6706 17.8401C36.5711 17.682 35.956 16.4159 32.9957 13.8122C29.8967 11.0862 30.313 11.5285 34.0456 6.81519C36.3193 3.94402 37.228 2.19077 36.9432 1.44144C36.673 0.727065 35.0008 0.915538 35.0008 0.915538L29.4412 0.945936C29.4412 0.945936 29.0289 0.893499 28.7194 1.06677C28.4098 1.24005 28.2293 1.63219 28.2293 1.63219C28.2293 1.63219 27.3471 3.85435 26.173 5.74363C23.6963 9.72968 22.7042 9.94019 22.2992 9.69548C21.3576 9.11866 21.5942 7.37681 21.5942 6.1411C21.5942 2.27741 22.2118 0.669307 20.3912 0.249803C19.7857 0.112248 19.3414 0.0218121 17.7943 0.00433275C15.8101 -0.0146665 14.1283 0.0111724 13.1779 0.451956C12.5443 0.745304 12.055 1.4004 12.355 1.43992C12.7223 1.48628 13.558 1.65271 13.9967 2.22269C14.5678 2.95682 14.5469 4.609 14.5469 4.609C14.5469 4.609 14.8757 9.15666 13.7818 9.72132C13.0303 10.1097 12.0013 9.31854 9.79255 5.70031C8.6617 3.84371 7.80595 1.79178 7.80595 1.79178C7.80595 1.79178 7.64555 1.4118 7.348 1.20661C6.9919 0.958856 6.49225 0.880579 6.49225 0.880579L1.20535 0.910978C1.20535 0.910978 0.412151 0.933017 0.120217 1.2598C-0.138033 1.55087 0.100166 2.15125 0.100166 2.15125C0.100166 2.15125 4.23938 11.3271 8.92236 15.9531C13.222 20.1937 18.1014 19.9156 18.1014 19.9156H20.3126C20.3126 19.9156 20.9807 19.8449 21.3208 19.4968C21.6359 19.1769 21.6239 18.5765 21.6239 18.5765C21.6239 18.5765 21.5798 15.7646 22.9585 15.3504C24.3163 14.9431 26.0599 18.0681 27.9077 19.2711C29.3048 20.1831 30.3659 19.9809 30.3659 19.9809L35.3079 19.9156C35.3079 19.9156 37.896 19.7666 36.6706 17.8401Z" fill="black"/>
</svg>
