<svg width="19" height="20" viewBox="0 0 19 20" fill="none" xmlns="http://www.w3.org/2000/svg">
<path d="M14.3662 0H4.63375C2.08509 0 0 2.195 0 4.878V15.122C0.00142489 17.805 2.08652 20 4.63375 20H14.3662C16.9149 20 19 17.805 19 15.122V4.878C19 2.195 16.9149 0 14.3662 0ZM9.50071 14.065C8.73699 14.065 7.99041 13.8266 7.3554 13.3799C6.72039 12.9333 6.22545 12.2984 5.93319 11.5556C5.64092 10.8128 5.56445 9.99549 5.71345 9.20696C5.86244 8.41843 6.23021 7.69411 6.77025 7.12561C7.31028 6.55711 7.99833 6.16996 8.74738 6.01311C9.49643 5.85626 10.2728 5.93676 10.9784 6.24443C11.684 6.5521 12.2871 7.07312 12.7114 7.74161C13.1357 8.41009 13.3622 9.19602 13.3622 10C13.3622 11.0781 12.9553 12.1121 12.2312 12.8744C11.507 13.6367 10.5248 14.065 9.50071 14.065V14.065ZM14.3662 6.1C14.1371 6.1 13.9132 6.02848 13.7227 5.89448C13.5321 5.76048 13.3837 5.57002 13.296 5.34718C13.2083 5.12435 13.1854 4.87915 13.2301 4.64259C13.2748 4.40603 13.3851 4.18873 13.5471 4.01818C13.7091 3.84763 13.9155 3.73149 14.1402 3.68443C14.365 3.63738 14.5979 3.66153 14.8096 3.75383C15.0212 3.84613 15.2022 4.00244 15.3295 4.20298C15.4567 4.40353 15.5247 4.63931 15.5247 4.8805C15.5247 5.20393 15.4026 5.51412 15.1854 5.74282C14.9681 5.97152 14.6735 6.1 14.3662 6.1V6.1Z" fill="black"/>
</svg>
