<svg width="17" height="20" viewBox="0 0 17 20" fill="none" xmlns="http://www.w3.org/2000/svg">
<path d="M16.4303 4.3936C15.4491 4.39235 14.5085 3.99075 13.8148 3.27689C13.1211 2.56303 12.7309 1.5952 12.7298 0.585719C12.7298 0.430376 12.6698 0.281396 12.563 0.171553C12.4563 0.0617093 12.3115 0 12.1605 0H9.11016C8.95914 -5.05286e-08 8.8143 0.0616942 8.70746 0.171524C8.60063 0.281354 8.54055 0.430333 8.54043 0.585719V13.4517C8.54034 13.8944 8.41267 14.3271 8.17356 14.6951C7.93446 15.0632 7.59465 15.35 7.19712 15.5193C6.79958 15.6887 6.36217 15.733 5.94018 15.6465C5.5182 15.5601 5.1306 15.3469 4.82639 15.0338C4.52218 14.7208 4.31503 14.3219 4.23112 13.8877C4.14721 13.4535 4.19032 13.0035 4.355 12.5945C4.51967 12.1855 4.79852 11.8359 5.15627 11.59C5.51403 11.3441 5.93463 11.2128 6.36489 11.2128C6.51587 11.2128 6.66067 11.1511 6.76743 11.0412C6.87419 10.9314 6.93416 10.7824 6.93416 10.6271V7.49001C6.93416 7.33463 6.8742 7.1856 6.76745 7.07568C6.66071 6.96576 6.51591 6.90395 6.36489 6.90382C2.85508 6.90382 0 9.84187 0 13.4517C0 17.0615 2.85508 20 6.36489 20C9.8747 20 12.7298 17.0638 12.7298 13.4517V7.75711C13.8687 8.38116 15.1399 8.70594 16.4303 8.70258C16.5812 8.7027 16.7259 8.64118 16.8328 8.53153C16.9396 8.42187 16.9998 8.27307 17 8.11781V4.97932C16.9999 4.82393 16.9398 4.67495 16.833 4.56512C16.7261 4.45529 16.5813 4.3936 16.4303 4.3936V4.3936Z" fill="black"/>
</svg>
