<svg width="28" height="20" viewBox="0 0 28 20" fill="none" xmlns="http://www.w3.org/2000/svg">
<path d="M27.4231 3.12786C27.2628 2.5248 26.9506 1.97504 26.5177 1.5332C26.0847 1.09137 25.5459 0.772846 24.9549 0.609286C22.7639 -6.81196e-08 13.9999 0 13.9999 0C13.9999 0 5.23528 -1.36239e-07 3.04429 0.588571C2.45391 0.760643 1.91683 1.0848 1.4847 1.52988C1.05257 1.97496 0.739918 2.52599 0.576798 3.13C1.33514e-07 5.36357 0 10 0 10C0 10 1.33514e-07 14.66 0.576798 16.8721C0.737089 17.4751 1.04916 18.0248 1.48201 18.4666C1.91487 18.9084 2.45345 19.227 3.04429 19.3907C5.25838 20 13.9999 20 13.9999 20C13.9999 20 22.7639 20 24.9549 19.4114C25.5459 19.2481 26.0847 18.9298 26.5177 18.488C26.9507 18.0463 27.2629 17.4966 27.4231 16.8936C27.9999 14.6579 27.9999 10.0214 27.9999 10.0214C27.9999 10.0214 28.023 5.36357 27.4231 3.12786ZM11.2091 14.2857V5.71429L18.4974 10L11.2091 14.2857Z" fill="black"/>
</svg>
